G04 start of page 2 for group 10 layer_idx 1 *
G04 Title: (unknown), bottom_copper *
G04 Creator: pcb-rnd 3.1.0-dev *
G04 CreationDate: 2023-01-28 08:44:06 UTC *
G04 For: tonia *
G04 Format: Gerber/RS-274X *
G04 PCB-Dimensions: 236220 236220 *
G04 PCB-Coordinate-Origin: lower left *
%MOIN*%
%FSLAX25Y25*%
%LNBOTTOM_COPPER_NONE_10*%
%ADD30C,0.0362*%
%ADD29C,0.0906*%
%ADD28C,0.0394*%
%ADD27C,0.1260*%
%ADD26C,0.0637*%
%ADD25C,0.1476*%
%ADD24C,0.0800*%
%ADD23C,0.1890*%
%ADD22C,0.0200*%
%ADD21C,0.0001*%
G54D21*G36*
X165354Y234252D02*Y64961D01*
X145122D01*
Y87316D01*
X145203Y87322D01*
X145394Y87369D01*
X145576Y87446D01*
X145743Y87549D01*
X145892Y87678D01*
X146019Y87828D01*
X146121Y87996D01*
X146192Y88180D01*
X146348Y88732D01*
X146449Y89298D01*
X146500Y89870D01*
Y90445D01*
X146449Y91017D01*
X146348Y91583D01*
X146198Y92137D01*
X146125Y92321D01*
X146022Y92489D01*
X145895Y92640D01*
X145745Y92769D01*
X145578Y92873D01*
X145396Y92949D01*
X145204Y92996D01*
X145122Y93003D01*
Y96146D01*
X145275Y96325D01*
X145809Y97197D01*
X146201Y98143D01*
X146440Y99138D01*
X146500Y100157D01*
X146440Y101177D01*
X146201Y102172D01*
X145809Y103118D01*
X145275Y103990D01*
X145122Y104169D01*
Y106146D01*
X145275Y106325D01*
X145809Y107197D01*
X146201Y108143D01*
X146440Y109138D01*
X146500Y110157D01*
X146440Y111177D01*
X146201Y112172D01*
X145809Y113118D01*
X145275Y113990D01*
X145122Y114169D01*
Y116146D01*
X145275Y116325D01*
X145785Y117157D01*
X146438D01*
X146555Y117148D01*
X147026Y117185D01*
X147026Y117185D01*
X147485Y117296D01*
X147921Y117476D01*
X148324Y117723D01*
X148683Y118030D01*
X148760Y118119D01*
X153357Y122717D01*
X153447Y122793D01*
X153753Y123152D01*
X153753Y123152D01*
X154000Y123555D01*
X154181Y123991D01*
X154291Y124451D01*
X154328Y124921D01*
X154319Y125039D01*
Y166142D01*
X154328Y166260D01*
X154291Y166730D01*
X154291Y166731D01*
X154181Y167190D01*
X154000Y167626D01*
X153753Y168029D01*
X153447Y168388D01*
X153357Y168464D01*
X149586Y172235D01*
X149510Y172325D01*
X149151Y172631D01*
X148748Y172878D01*
X148312Y173059D01*
X147853Y173169D01*
X147852Y173169D01*
X147382Y173206D01*
X147264Y173197D01*
X145761D01*
X145275Y173990D01*
X145122Y174169D01*
Y176146D01*
X145275Y176325D01*
X145809Y177197D01*
X146201Y178143D01*
X146440Y179138D01*
X146500Y180157D01*
X146440Y181177D01*
X146201Y182172D01*
X145809Y183118D01*
X145275Y183990D01*
X145122Y184169D01*
Y186146D01*
X145275Y186325D01*
X145809Y187197D01*
X146201Y188143D01*
X146440Y189138D01*
X146500Y190157D01*
X146440Y191177D01*
X146201Y192172D01*
X145809Y193118D01*
X145275Y193990D01*
X145122Y194169D01*
Y197316D01*
X145203Y197322D01*
X145394Y197369D01*
X145576Y197446D01*
X145743Y197549D01*
X145892Y197678D01*
X146019Y197828D01*
X146121Y197996D01*
X146192Y198180D01*
X146348Y198732D01*
X146449Y199298D01*
X146500Y199870D01*
Y200445D01*
X146449Y201017D01*
X146348Y201583D01*
X146198Y202137D01*
X146125Y202321D01*
X146022Y202489D01*
X145895Y202640D01*
X145745Y202769D01*
X145578Y202873D01*
X145396Y202949D01*
X145204Y202996D01*
X145122Y203003D01*
Y206146D01*
X145275Y206325D01*
X145809Y207197D01*
X146201Y208143D01*
X146440Y209138D01*
X146500Y210157D01*
X146440Y211177D01*
X146201Y212172D01*
X145809Y213118D01*
X145275Y213990D01*
X145122Y214169D01*
Y234252D01*
X165354D01*
G37*
G36*
X144610Y194768D02*X143832Y195432D01*
X142960Y195967D01*
X142015Y196358D01*
X141020Y196597D01*
X140000Y196678D01*
X138980Y196597D01*
X138904Y196579D01*
Y203736D01*
X138980Y203718D01*
X140000Y203637D01*
X141020Y203718D01*
X142015Y203957D01*
X142960Y204348D01*
X143832Y204883D01*
X144610Y205547D01*
X145122Y206146D01*
Y203003D01*
X145007Y203013D01*
X144810Y202998D01*
X144618Y202953D01*
X144436Y202879D01*
X144267Y202776D01*
X144116Y202649D01*
X143987Y202499D01*
X143883Y202332D01*
X143807Y202150D01*
X143760Y201958D01*
X143743Y201761D01*
X143758Y201564D01*
X143807Y201374D01*
X143903Y201034D01*
X143965Y200686D01*
X143996Y200334D01*
Y199981D01*
X143965Y199629D01*
X143903Y199281D01*
X143810Y198940D01*
X143762Y198750D01*
X143747Y198554D01*
X143764Y198358D01*
X143810Y198167D01*
X143887Y197985D01*
X143990Y197818D01*
X144119Y197669D01*
X144269Y197542D01*
X144437Y197440D01*
X144619Y197366D01*
X144811Y197321D01*
X145007Y197306D01*
X145122Y197316D01*
Y194169D01*
X144610Y194768D01*
G37*
G36*
Y184768D02*X144154Y185157D01*
X144610Y185547D01*
X145122Y186146D01*
Y184169D01*
X144610Y184768D01*
G37*
G36*
Y174768D02*X144154Y175157D01*
X144610Y175547D01*
X145122Y176146D01*
Y174169D01*
X144610Y174768D01*
G37*
G36*
Y114768D02*X144154Y115157D01*
X144610Y115547D01*
X145122Y116146D01*
Y114169D01*
X144610Y114768D01*
G37*
G36*
Y104768D02*X144154Y105157D01*
X144610Y105547D01*
X145122Y106146D01*
Y104169D01*
X144610Y104768D01*
G37*
G36*
X138904Y64961D02*Y83750D01*
X139140Y83708D01*
X139713Y83657D01*
X140287D01*
X140860Y83708D01*
X141425Y83809D01*
X141980Y83960D01*
X142163Y84033D01*
X142332Y84135D01*
X142483Y84263D01*
X142611Y84412D01*
X142715Y84580D01*
X142792Y84762D01*
X142839Y84954D01*
X142855Y85150D01*
X142841Y85347D01*
X142796Y85539D01*
X142721Y85722D01*
X142619Y85891D01*
X142491Y86041D01*
X142342Y86170D01*
X142174Y86274D01*
X141992Y86351D01*
X141801Y86398D01*
X141604Y86414D01*
X141407Y86400D01*
X141216Y86351D01*
X140876Y86255D01*
X140529Y86193D01*
X140177Y86161D01*
X139823D01*
X139471Y86193D01*
X139124Y86255D01*
X138904Y86314D01*
Y93736D01*
X138980Y93718D01*
X140000Y93637D01*
X141020Y93718D01*
X142015Y93957D01*
X142960Y94348D01*
X143832Y94883D01*
X144610Y95547D01*
X145122Y96146D01*
Y93003D01*
X145007Y93013D01*
X144810Y92998D01*
X144618Y92953D01*
X144436Y92879D01*
X144267Y92776D01*
X144116Y92649D01*
X143987Y92499D01*
X143883Y92332D01*
X143807Y92150D01*
X143760Y91958D01*
X143743Y91761D01*
X143758Y91564D01*
X143807Y91374D01*
X143903Y91034D01*
X143965Y90686D01*
X143996Y90334D01*
Y89981D01*
X143965Y89629D01*
X143903Y89281D01*
X143810Y88940D01*
X143762Y88750D01*
X143747Y88554D01*
X143764Y88358D01*
X143810Y88167D01*
X143887Y87985D01*
X143990Y87818D01*
X144119Y87669D01*
X144269Y87542D01*
X144437Y87440D01*
X144619Y87366D01*
X144811Y87321D01*
X145007Y87306D01*
X145122Y87316D01*
Y64961D01*
X138904D01*
G37*
G36*
X145122Y234252D02*Y214169D01*
X144610Y214768D01*
X143832Y215432D01*
X142960Y215967D01*
X142015Y216358D01*
X141020Y216597D01*
X140000Y216678D01*
X138980Y216597D01*
X138904Y216579D01*
Y234252D01*
X145122D01*
G37*
G36*
X135390Y95547D02*X136168Y94883D01*
X137040Y94348D01*
X137985Y93957D01*
X138904Y93736D01*
Y86314D01*
X138783Y86347D01*
X138592Y86396D01*
X138396Y86410D01*
X138200Y86394D01*
X138009Y86347D01*
X137828Y86271D01*
X137660Y86167D01*
X137511Y86039D01*
X137384Y85888D01*
X137282Y85720D01*
X137208Y85538D01*
X137163Y85346D01*
X137149Y85150D01*
X137165Y84954D01*
X137212Y84763D01*
X137288Y84582D01*
X137392Y84414D01*
X137520Y84265D01*
X137670Y84138D01*
X137839Y84036D01*
X138022Y83966D01*
X138575Y83809D01*
X138904Y83750D01*
Y64961D01*
X135000D01*
Y87303D01*
X135190Y87317D01*
X135382Y87362D01*
X135564Y87436D01*
X135733Y87539D01*
X135884Y87666D01*
X136013Y87816D01*
X136117Y87983D01*
X136193Y88165D01*
X136229Y88311D01*
X136348Y88732D01*
X136449Y89298D01*
X136500Y89870D01*
Y90445D01*
X136449Y91017D01*
X136348Y91583D01*
X136198Y92137D01*
X136125Y92321D01*
X136022Y92489D01*
X135895Y92640D01*
X135745Y92769D01*
X135578Y92873D01*
X135396Y92949D01*
X135204Y92996D01*
X135007Y93013D01*
X135000Y93012D01*
Y96003D01*
X135390Y95547D01*
G37*
G36*
X131020Y93718D02*X132015Y93957D01*
X132960Y94348D01*
X133832Y94883D01*
X134610Y95547D01*
X135000Y96003D01*
Y93012D01*
X134810Y92998D01*
X134618Y92953D01*
X134436Y92879D01*
X134267Y92776D01*
X134116Y92649D01*
X133987Y92499D01*
X133883Y92332D01*
X133807Y92150D01*
X133771Y92004D01*
X133652Y91583D01*
X133551Y91017D01*
X133500Y90445D01*
Y89870D01*
X133551Y89298D01*
X133652Y88732D01*
X133802Y88178D01*
X133875Y87994D01*
X133978Y87826D01*
X134105Y87675D01*
X134255Y87546D01*
X134422Y87442D01*
X134604Y87366D01*
X134796Y87319D01*
X134993Y87302D01*
X135000Y87303D01*
Y64961D01*
X130002D01*
Y83657D01*
X130287D01*
X130860Y83708D01*
X131425Y83809D01*
X131980Y83960D01*
X132163Y84033D01*
X132332Y84135D01*
X132483Y84263D01*
X132611Y84412D01*
X132715Y84580D01*
X132792Y84762D01*
X132839Y84954D01*
X132855Y85150D01*
X132841Y85347D01*
X132796Y85539D01*
X132721Y85722D01*
X132619Y85891D01*
X132491Y86041D01*
X132342Y86170D01*
X132174Y86274D01*
X131992Y86351D01*
X131801Y86398D01*
X131604Y86414D01*
X131407Y86400D01*
X131216Y86351D01*
X130876Y86255D01*
X130529Y86193D01*
X130177Y86161D01*
X130002D01*
Y93638D01*
X131020Y93718D01*
G37*
G36*
X125390Y95547D02*X126168Y94883D01*
X127040Y94348D01*
X127985Y93957D01*
X128980Y93718D01*
X130000Y93637D01*
X130002Y93638D01*
Y86161D01*
X129823D01*
X129471Y86193D01*
X129124Y86255D01*
X128783Y86347D01*
X128592Y86396D01*
X128396Y86410D01*
X128200Y86394D01*
X128009Y86347D01*
X127828Y86271D01*
X127660Y86167D01*
X127511Y86039D01*
X127384Y85888D01*
X127282Y85720D01*
X127208Y85538D01*
X127163Y85346D01*
X127149Y85150D01*
X127165Y84954D01*
X127212Y84763D01*
X127288Y84582D01*
X127392Y84414D01*
X127520Y84265D01*
X127670Y84138D01*
X127839Y84036D01*
X128022Y83966D01*
X128575Y83809D01*
X129140Y83708D01*
X129713Y83657D01*
X130002D01*
Y64961D01*
X124878D01*
Y87312D01*
X124993Y87302D01*
X125190Y87317D01*
X125382Y87362D01*
X125564Y87436D01*
X125733Y87539D01*
X125884Y87666D01*
X126013Y87816D01*
X126117Y87983D01*
X126193Y88165D01*
X126240Y88357D01*
X126257Y88554D01*
X126242Y88750D01*
X126193Y88941D01*
X126097Y89281D01*
X126035Y89629D01*
X126004Y89981D01*
Y90334D01*
X126035Y90686D01*
X126097Y91034D01*
X126190Y91375D01*
X126238Y91565D01*
X126253Y91761D01*
X126236Y91957D01*
X126190Y92148D01*
X126113Y92330D01*
X126010Y92497D01*
X125881Y92646D01*
X125731Y92773D01*
X125563Y92875D01*
X125381Y92949D01*
X125189Y92994D01*
X124993Y93009D01*
X124878Y92999D01*
Y96146D01*
X125390Y95547D01*
G37*
G36*
Y105547D02*X125846Y105157D01*
X125390Y104768D01*
X124878Y104169D01*
Y106146D01*
X125390Y105547D01*
G37*
G36*
Y115547D02*X125846Y115157D01*
X125390Y114768D01*
X124878Y114169D01*
Y116146D01*
X125390Y115547D01*
G37*
G36*
Y125547D02*X125846Y125157D01*
X125390Y124768D01*
X124878Y124169D01*
Y126146D01*
X125390Y125547D01*
G37*
G36*
Y135547D02*X125846Y135157D01*
X125390Y134768D01*
X124878Y134169D01*
Y136146D01*
X125390Y135547D01*
G37*
G36*
Y145547D02*X125846Y145157D01*
X125390Y144768D01*
X124878Y144169D01*
Y146146D01*
X125390Y145547D01*
G37*
G36*
Y155547D02*X125846Y155157D01*
X125390Y154768D01*
X124878Y154169D01*
Y156146D01*
X125390Y155547D01*
G37*
G36*
Y165547D02*X125846Y165157D01*
X125390Y164768D01*
X124878Y164169D01*
Y166146D01*
X125390Y165547D01*
G37*
G36*
Y175547D02*X125846Y175157D01*
X125390Y174768D01*
X124878Y174169D01*
Y176146D01*
X125390Y175547D01*
G37*
G36*
Y185547D02*X125846Y185157D01*
X125390Y184768D01*
X124878Y184169D01*
Y186146D01*
X125390Y185547D01*
G37*
G36*
X135138Y203923D02*X135474Y204129D01*
X135773Y204384D01*
X136029Y204683D01*
X136157Y204892D01*
X136168Y204883D01*
X137040Y204348D01*
X137985Y203957D01*
X138904Y203736D01*
Y196579D01*
X137985Y196358D01*
X137040Y195967D01*
X136168Y195432D01*
X135390Y194768D01*
X135000Y194312D01*
Y197303D01*
X135190Y197317D01*
X135382Y197362D01*
X135564Y197436D01*
X135733Y197539D01*
X135884Y197666D01*
X136013Y197816D01*
X136117Y197983D01*
X136193Y198165D01*
X136229Y198311D01*
X136348Y198732D01*
X136449Y199298D01*
X136500Y199870D01*
Y200445D01*
X136449Y201017D01*
X136348Y201583D01*
X136198Y202137D01*
X136125Y202321D01*
X136022Y202489D01*
X135895Y202640D01*
X135745Y202769D01*
X135578Y202873D01*
X135396Y202949D01*
X135204Y202996D01*
X135007Y203013D01*
X135000Y203012D01*
Y203866D01*
X135138Y203923D01*
G37*
G36*
X125225Y203773D02*X125608Y203681D01*
X126000Y203650D01*
X126098Y203657D01*
X133902D01*
X134000Y203650D01*
X134392Y203681D01*
X134392Y203681D01*
X134775Y203773D01*
X135000Y203866D01*
Y203012D01*
X134810Y202998D01*
X134618Y202953D01*
X134436Y202879D01*
X134267Y202776D01*
X134116Y202649D01*
X133987Y202499D01*
X133883Y202332D01*
X133807Y202150D01*
X133771Y202004D01*
X133652Y201583D01*
X133551Y201017D01*
X133500Y200445D01*
Y199870D01*
X133551Y199298D01*
X133652Y198732D01*
X133802Y198178D01*
X133875Y197994D01*
X133978Y197826D01*
X134105Y197675D01*
X134255Y197546D01*
X134422Y197442D01*
X134604Y197366D01*
X134796Y197319D01*
X134993Y197302D01*
X135000Y197303D01*
Y194312D01*
X134610Y194768D01*
X133832Y195432D01*
X132960Y195967D01*
X132015Y196358D01*
X131020Y196597D01*
X130000Y196678D01*
X128980Y196597D01*
X127985Y196358D01*
X127040Y195967D01*
X126168Y195432D01*
X125390Y194768D01*
X124878Y194169D01*
Y197312D01*
X124993Y197302D01*
X125190Y197317D01*
X125382Y197362D01*
X125564Y197436D01*
X125733Y197539D01*
X125884Y197666D01*
X126013Y197816D01*
X126117Y197983D01*
X126193Y198165D01*
X126240Y198357D01*
X126257Y198554D01*
X126242Y198750D01*
X126193Y198941D01*
X126097Y199281D01*
X126035Y199629D01*
X126004Y199981D01*
Y200334D01*
X126035Y200686D01*
X126097Y201034D01*
X126190Y201375D01*
X126238Y201565D01*
X126253Y201761D01*
X126236Y201957D01*
X126190Y202148D01*
X126113Y202330D01*
X126010Y202497D01*
X125881Y202646D01*
X125731Y202773D01*
X125563Y202875D01*
X125381Y202949D01*
X125189Y202994D01*
X124993Y203009D01*
X124878Y202999D01*
Y203916D01*
X125225Y203773D01*
G37*
G36*
X138904Y234252D02*Y216579D01*
X137985Y216358D01*
X137040Y215967D01*
X136168Y215432D01*
X136157Y215423D01*
X136029Y215631D01*
X135773Y215931D01*
X135474Y216186D01*
X135138Y216392D01*
X134775Y216542D01*
X134392Y216634D01*
X134000Y216665D01*
X133902Y216657D01*
X126098D01*
X126000Y216665D01*
X125608Y216634D01*
X125608Y216634D01*
X125225Y216542D01*
X124878Y216399D01*
Y234252D01*
X138904D01*
G37*
G36*
X124878D02*Y216399D01*
X124862Y216392D01*
X124526Y216186D01*
X124227Y215931D01*
X123971Y215631D01*
X123766Y215296D01*
X123615Y214932D01*
X123523Y214550D01*
X123492Y214157D01*
X123500Y214059D01*
Y206255D01*
X123492Y206157D01*
X123523Y205765D01*
X123523Y205765D01*
X123615Y205383D01*
X123766Y205019D01*
X123971Y204683D01*
X124227Y204384D01*
X124526Y204129D01*
X124862Y203923D01*
X124878Y203916D01*
Y202999D01*
X124797Y202993D01*
X124606Y202946D01*
X124424Y202869D01*
X124257Y202766D01*
X124108Y202637D01*
X123981Y202487D01*
X123879Y202319D01*
X123808Y202135D01*
X123652Y201583D01*
X123551Y201017D01*
X123500Y200445D01*
Y199870D01*
X123551Y199298D01*
X123652Y198732D01*
X123802Y198178D01*
X123875Y197994D01*
X123978Y197826D01*
X124105Y197675D01*
X124255Y197546D01*
X124422Y197442D01*
X124604Y197366D01*
X124796Y197319D01*
X124878Y197312D01*
Y194169D01*
X124725Y193990D01*
X124191Y193118D01*
X123799Y192172D01*
X123560Y191177D01*
X123480Y190157D01*
X123560Y189138D01*
X123799Y188143D01*
X124191Y187197D01*
X124725Y186325D01*
X124878Y186146D01*
Y184169D01*
X124725Y183990D01*
X124191Y183118D01*
X123799Y182172D01*
X123560Y181177D01*
X123480Y180157D01*
X123560Y179138D01*
X123799Y178143D01*
X124191Y177197D01*
X124725Y176325D01*
X124878Y176146D01*
Y174169D01*
X124725Y173990D01*
X124191Y173118D01*
X123799Y172172D01*
X123560Y171177D01*
X123480Y170157D01*
X123560Y169138D01*
X123799Y168143D01*
X124191Y167197D01*
X124725Y166325D01*
X124878Y166146D01*
Y164169D01*
X124725Y163990D01*
X124191Y163118D01*
X123799Y162172D01*
X123560Y161177D01*
X123480Y160157D01*
X123560Y159138D01*
X123799Y158143D01*
X124191Y157197D01*
X124725Y156325D01*
X124878Y156146D01*
Y154169D01*
X124725Y153990D01*
X124191Y153118D01*
X123799Y152172D01*
X123560Y151177D01*
X123480Y150157D01*
X123560Y149138D01*
X123799Y148143D01*
X124191Y147197D01*
X124725Y146325D01*
X124878Y146146D01*
Y144169D01*
X124725Y143990D01*
X124191Y143118D01*
X123799Y142172D01*
X123560Y141177D01*
X123480Y140157D01*
X123560Y139138D01*
X123799Y138143D01*
X124191Y137197D01*
X124725Y136325D01*
X124878Y136146D01*
Y134169D01*
X124725Y133990D01*
X124191Y133118D01*
X123799Y132172D01*
X123560Y131177D01*
X123480Y130157D01*
X123560Y129138D01*
X123799Y128143D01*
X124191Y127197D01*
X124725Y126325D01*
X124878Y126146D01*
Y124169D01*
X124725Y123990D01*
X124191Y123118D01*
X123799Y122172D01*
X123560Y121177D01*
X123480Y120157D01*
X123560Y119138D01*
X123799Y118143D01*
X124191Y117197D01*
X124725Y116325D01*
X124878Y116146D01*
Y114169D01*
X124725Y113990D01*
X124191Y113118D01*
X123799Y112172D01*
X123560Y111177D01*
X123480Y110157D01*
X123560Y109138D01*
X123799Y108143D01*
X124191Y107197D01*
X124725Y106325D01*
X124878Y106146D01*
Y104169D01*
X124725Y103990D01*
X124191Y103118D01*
X123799Y102172D01*
X123560Y101177D01*
X123480Y100157D01*
X123560Y99138D01*
X123799Y98143D01*
X124191Y97197D01*
X124725Y96325D01*
X124878Y96146D01*
Y92999D01*
X124797Y92993D01*
X124606Y92946D01*
X124424Y92869D01*
X124257Y92766D01*
X124108Y92637D01*
X123981Y92487D01*
X123879Y92319D01*
X123808Y92135D01*
X123652Y91583D01*
X123551Y91017D01*
X123500Y90445D01*
Y89870D01*
X123551Y89298D01*
X123652Y88732D01*
X123802Y88178D01*
X123875Y87994D01*
X123978Y87826D01*
X124105Y87675D01*
X124255Y87546D01*
X124422Y87442D01*
X124604Y87366D01*
X124796Y87319D01*
X124878Y87312D01*
Y64961D01*
X107077D01*
Y182791D01*
X109837D01*
X110033Y182803D01*
X110224Y182849D01*
X110406Y182924D01*
X110574Y183027D01*
X110723Y183155D01*
X110851Y183304D01*
X110954Y183472D01*
X111029Y183654D01*
X111075Y183845D01*
X111090Y184041D01*
X111075Y184237D01*
X111029Y184429D01*
X110954Y184611D01*
X110851Y184778D01*
X110723Y184928D01*
X110574Y185056D01*
X110406Y185159D01*
X110224Y185234D01*
X110033Y185280D01*
X109837Y185291D01*
X111087D01*
Y186541D01*
X111098Y186345D01*
X111144Y186154D01*
X111219Y185972D01*
X111322Y185804D01*
X111450Y185655D01*
X111600Y185527D01*
X111767Y185424D01*
X111949Y185349D01*
X112140Y185303D01*
X112337Y185287D01*
X112533Y185303D01*
X112724Y185349D01*
X112906Y185424D01*
X113074Y185527D01*
X113223Y185655D01*
X113351Y185804D01*
X113454Y185972D01*
X113529Y186154D01*
X113575Y186345D01*
X113587Y186541D01*
Y192041D01*
X113575Y192237D01*
X113529Y192429D01*
X113454Y192611D01*
X113351Y192778D01*
X113223Y192928D01*
X113074Y193056D01*
X112906Y193159D01*
X112724Y193234D01*
X112533Y193280D01*
X112337Y193295D01*
X112140Y193280D01*
X111949Y193234D01*
X111767Y193159D01*
X111600Y193056D01*
X111450Y192928D01*
X111322Y192778D01*
X111219Y192611D01*
X111144Y192429D01*
X111098Y192237D01*
X111087Y192041D01*
Y193291D01*
X109837D01*
X110033Y193303D01*
X110224Y193349D01*
X110406Y193424D01*
X110574Y193527D01*
X110723Y193655D01*
X110851Y193804D01*
X110954Y193972D01*
X111001Y194087D01*
X111697Y194681D01*
X112361Y195459D01*
X112896Y196331D01*
X113288Y197277D01*
X113526Y198271D01*
X113587Y199291D01*
X113526Y200311D01*
X113288Y201306D01*
X112896Y202251D01*
X112361Y203124D01*
X111697Y203902D01*
X110919Y204566D01*
X110047Y205101D01*
X109101Y205492D01*
X108107Y205731D01*
X107087Y205811D01*
X107077Y205811D01*
Y234252D01*
X124878D01*
G37*
G36*
X107077D02*Y205811D01*
X106067Y205731D01*
X105072Y205492D01*
X104127Y205101D01*
X103254Y204566D01*
X102476Y203902D01*
X101812Y203124D01*
X101277Y202251D01*
X100886Y201306D01*
X100647Y200311D01*
X100567Y199291D01*
X100647Y198271D01*
X100886Y197277D01*
X101277Y196331D01*
X101812Y195459D01*
X102476Y194681D01*
X103172Y194087D01*
X103219Y193972D01*
X103322Y193804D01*
X103450Y193655D01*
X103600Y193527D01*
X103767Y193424D01*
X103949Y193349D01*
X104140Y193303D01*
X104336Y193291D01*
X103087D01*
Y192041D01*
X103075Y192237D01*
X103029Y192429D01*
X102954Y192611D01*
X102851Y192778D01*
X102723Y192928D01*
X102574Y193056D01*
X102406Y193159D01*
X102224Y193234D01*
X102033Y193280D01*
X101837Y193295D01*
X101640Y193280D01*
X101449Y193234D01*
X101267Y193159D01*
X101100Y193056D01*
X100950Y192928D01*
X100822Y192778D01*
X100719Y192611D01*
X100644Y192429D01*
X100598Y192237D01*
X100587Y192041D01*
Y186541D01*
X100598Y186345D01*
X100644Y186154D01*
X100719Y185972D01*
X100822Y185804D01*
X100950Y185655D01*
X101100Y185527D01*
X101267Y185424D01*
X101449Y185349D01*
X101640Y185303D01*
X101837Y185287D01*
X102033Y185303D01*
X102224Y185349D01*
X102406Y185424D01*
X102574Y185527D01*
X102723Y185655D01*
X102851Y185804D01*
X102954Y185972D01*
X103029Y186154D01*
X103075Y186345D01*
X103087Y186541D01*
Y185291D01*
X104336D01*
X104140Y185280D01*
X103949Y185234D01*
X103767Y185159D01*
X103600Y185056D01*
X103450Y184928D01*
X103322Y184778D01*
X103219Y184611D01*
X103144Y184429D01*
X103098Y184237D01*
X103083Y184041D01*
X103098Y183845D01*
X103144Y183654D01*
X103219Y183472D01*
X103322Y183304D01*
X103450Y183155D01*
X103600Y183027D01*
X103767Y182924D01*
X103949Y182849D01*
X104140Y182803D01*
X104337Y182791D01*
X107077D01*
Y64961D01*
X92913D01*
Y91945D01*
X93933Y92025D01*
X94928Y92264D01*
X95873Y92655D01*
X96746Y93190D01*
X97524Y93854D01*
X98188Y94632D01*
X98723Y95505D01*
X99114Y96450D01*
X99353Y97445D01*
X99413Y98465D01*
X99353Y99485D01*
X99114Y100479D01*
X98723Y101425D01*
X98188Y102297D01*
X97524Y103075D01*
X96746Y103739D01*
X95873Y104274D01*
X94928Y104666D01*
X93933Y104904D01*
X92913Y104985D01*
Y121965D01*
X96815D01*
X96913Y121957D01*
X97305Y121988D01*
X97306Y121988D01*
X97688Y122080D01*
X98052Y122230D01*
X98387Y122436D01*
X98687Y122691D01*
X98942Y122991D01*
X99148Y123326D01*
X99298Y123690D01*
X99390Y124072D01*
X99421Y124465D01*
X99413Y124563D01*
Y132367D01*
X99421Y132465D01*
X99390Y132857D01*
X99390Y132857D01*
X99298Y133239D01*
X99148Y133603D01*
X98942Y133939D01*
X98687Y134238D01*
X98387Y134493D01*
X98052Y134699D01*
X97688Y134850D01*
X97306Y134941D01*
X96913Y134972D01*
X96815Y134965D01*
X92913D01*
Y162811D01*
X93933Y162891D01*
X94928Y163130D01*
X95873Y163521D01*
X96746Y164056D01*
X97524Y164720D01*
X98188Y165498D01*
X98723Y166371D01*
X99114Y167316D01*
X99353Y168311D01*
X99413Y169331D01*
X99353Y170351D01*
X99114Y171346D01*
X98723Y172291D01*
X98188Y173163D01*
X97524Y173941D01*
X96746Y174606D01*
X95873Y175140D01*
X94928Y175532D01*
X93933Y175770D01*
X92913Y175851D01*
Y192831D01*
X96815D01*
X96913Y192823D01*
X97305Y192854D01*
X97306Y192854D01*
X97688Y192946D01*
X98052Y193096D01*
X98387Y193302D01*
X98687Y193557D01*
X98942Y193857D01*
X99148Y194192D01*
X99298Y194556D01*
X99390Y194938D01*
X99421Y195331D01*
X99413Y195429D01*
Y203233D01*
X99421Y203331D01*
X99390Y203723D01*
X99390Y203723D01*
X99298Y204106D01*
X99148Y204469D01*
X98942Y204805D01*
X98687Y205104D01*
X98387Y205359D01*
X98052Y205565D01*
X97688Y205716D01*
X97306Y205808D01*
X96913Y205838D01*
X96815Y205831D01*
X92913D01*
Y234252D01*
X107077D01*
G37*
G36*
X92913D02*Y205831D01*
X89011D01*
X88913Y205838D01*
X88521Y205808D01*
X88521Y205808D01*
X88138Y205716D01*
X87775Y205565D01*
X87439Y205359D01*
X87140Y205104D01*
X86885Y204805D01*
X86679Y204469D01*
X86528Y204106D01*
X86437Y203723D01*
X86406Y203331D01*
X86413Y203233D01*
Y195429D01*
X86406Y195331D01*
X86437Y194939D01*
X86437Y194938D01*
X86528Y194556D01*
X86679Y194192D01*
X86885Y193857D01*
X87140Y193557D01*
X87439Y193302D01*
X87775Y193096D01*
X88138Y192946D01*
X88521Y192854D01*
X88913Y192823D01*
X89011Y192831D01*
X92913D01*
Y175851D01*
X91893Y175770D01*
X90899Y175532D01*
X89953Y175140D01*
X89081Y174606D01*
X88303Y173941D01*
X87639Y173163D01*
X87104Y172291D01*
X86712Y171346D01*
X86474Y170351D01*
X86393Y169331D01*
X86474Y168311D01*
X86712Y167316D01*
X87104Y166371D01*
X87639Y165498D01*
X88303Y164720D01*
X89081Y164056D01*
X89953Y163521D01*
X90899Y163130D01*
X91893Y162891D01*
X92913Y162811D01*
Y134965D01*
X89011D01*
X88913Y134972D01*
X88521Y134941D01*
X88521Y134941D01*
X88138Y134850D01*
X87775Y134699D01*
X87439Y134493D01*
X87140Y134238D01*
X86885Y133939D01*
X86679Y133603D01*
X86528Y133239D01*
X86437Y132857D01*
X86406Y132465D01*
X86413Y132367D01*
Y124563D01*
X86406Y124465D01*
X86437Y124072D01*
X86437Y124072D01*
X86528Y123690D01*
X86679Y123326D01*
X86885Y122991D01*
X87140Y122691D01*
X87439Y122436D01*
X87775Y122230D01*
X88138Y122080D01*
X88521Y121988D01*
X88913Y121957D01*
X89011Y121965D01*
X92913D01*
Y104985D01*
X91893Y104904D01*
X90899Y104666D01*
X89953Y104274D01*
X89081Y103739D01*
X88303Y103075D01*
X87639Y102297D01*
X87104Y101425D01*
X86712Y100479D01*
X86474Y99485D01*
X86393Y98465D01*
X86474Y97445D01*
X86712Y96450D01*
X87104Y95505D01*
X87639Y94632D01*
X88303Y93854D01*
X89081Y93190D01*
X89953Y92655D01*
X90899Y92264D01*
X91893Y92025D01*
X92913Y91945D01*
Y64961D01*
X77159D01*
Y91945D01*
X77165Y91945D01*
X78185Y92025D01*
X79180Y92264D01*
X80125Y92655D01*
X80998Y93190D01*
X81776Y93854D01*
X82440Y94632D01*
X82975Y95505D01*
X83366Y96450D01*
X83605Y97445D01*
X83665Y98465D01*
X83605Y99485D01*
X83366Y100479D01*
X82975Y101425D01*
X82440Y102297D01*
X82431Y102308D01*
X82639Y102436D01*
X82939Y102691D01*
X83194Y102991D01*
X83400Y103326D01*
X83550Y103690D01*
X83642Y104072D01*
X83673Y104465D01*
X83665Y104563D01*
Y112367D01*
X83673Y112465D01*
X83642Y112857D01*
X83642Y112857D01*
X83550Y113239D01*
X83400Y113603D01*
X83194Y113939D01*
X82939Y114238D01*
X82639Y114493D01*
X82304Y114699D01*
X81940Y114850D01*
X81558Y114941D01*
X81165Y114972D01*
X81067Y114965D01*
X77159D01*
Y162811D01*
X77165Y162811D01*
X78185Y162891D01*
X79180Y163130D01*
X80125Y163521D01*
X80998Y164056D01*
X81776Y164720D01*
X82440Y165498D01*
X82975Y166371D01*
X83366Y167316D01*
X83605Y168311D01*
X83665Y169331D01*
X83605Y170351D01*
X83366Y171346D01*
X82975Y172291D01*
X82440Y173163D01*
X82431Y173174D01*
X82639Y173302D01*
X82939Y173557D01*
X83194Y173857D01*
X83400Y174192D01*
X83550Y174556D01*
X83642Y174938D01*
X83673Y175331D01*
X83665Y175429D01*
Y183233D01*
X83673Y183331D01*
X83642Y183723D01*
X83642Y183723D01*
X83550Y184106D01*
X83400Y184469D01*
X83194Y184805D01*
X82939Y185104D01*
X82639Y185359D01*
X82304Y185565D01*
X81940Y185716D01*
X81558Y185808D01*
X81165Y185838D01*
X81067Y185831D01*
X77159D01*
Y234252D01*
X92913D01*
G37*
G36*
X64747Y64961D02*Y166635D01*
X64992Y166577D01*
X65080Y166555D01*
X65080D01*
X65551Y166518D01*
X65669Y166528D01*
X71291D01*
X71356Y166371D01*
X71891Y165498D01*
X72555Y164720D01*
X73333Y164056D01*
X74205Y163521D01*
X75151Y163130D01*
X76145Y162891D01*
X77159Y162811D01*
Y114965D01*
X73263D01*
X73165Y114972D01*
X72773Y114941D01*
X72773Y114941D01*
X72390Y114850D01*
X72027Y114699D01*
X71691Y114493D01*
X71392Y114238D01*
X71137Y113939D01*
X70931Y113603D01*
X70780Y113239D01*
X70689Y112857D01*
X70658Y112465D01*
X70665Y112367D01*
Y104563D01*
X70658Y104465D01*
X70689Y104072D01*
X70689Y104072D01*
X70780Y103690D01*
X70931Y103326D01*
X71137Y102991D01*
X71392Y102691D01*
X71691Y102436D01*
X71900Y102308D01*
X71891Y102297D01*
X71356Y101425D01*
X70964Y100479D01*
X70726Y99485D01*
X70645Y98465D01*
X70726Y97445D01*
X70964Y96450D01*
X71356Y95505D01*
X71891Y94632D01*
X72555Y93854D01*
X73333Y93190D01*
X74205Y92655D01*
X75151Y92264D01*
X76145Y92025D01*
X77159Y91945D01*
Y64961D01*
X64747D01*
G37*
G36*
X77159Y234252D02*Y185831D01*
X73263D01*
X73165Y185838D01*
X72773Y185808D01*
X72773Y185808D01*
X72390Y185716D01*
X72027Y185565D01*
X71691Y185359D01*
X71392Y185104D01*
X71137Y184805D01*
X70931Y184469D01*
X70780Y184106D01*
X70689Y183723D01*
X70658Y183331D01*
X70665Y183233D01*
Y175429D01*
X70658Y175331D01*
X70689Y174939D01*
X70689Y174938D01*
X70780Y174556D01*
X70931Y174192D01*
X71137Y173857D01*
X71392Y173557D01*
X71691Y173302D01*
X71900Y173174D01*
X71891Y173163D01*
X71501Y172528D01*
X66794D01*
X64747Y174575D01*
Y234252D01*
X77159D01*
G37*
G36*
X51164Y184208D02*X51443Y184183D01*
X51719Y184134D01*
X51989Y184061D01*
X52141Y184022D01*
X52298Y184011D01*
X52455Y184024D01*
X52608Y184062D01*
X52753Y184123D01*
X52887Y184206D01*
X53006Y184309D01*
X53107Y184430D01*
X53189Y184564D01*
X53248Y184710D01*
X53284Y184863D01*
X53295Y185020D01*
X53282Y185177D01*
X53244Y185330D01*
X53183Y185475D01*
X53100Y185609D01*
X52997Y185728D01*
X52876Y185829D01*
X52741Y185911D01*
X52675Y185936D01*
X53386Y186230D01*
X54082Y186657D01*
X54703Y187187D01*
X54961Y187489D01*
X55219Y187187D01*
X55839Y186657D01*
X56536Y186230D01*
X57224Y185945D01*
X56536Y185660D01*
X55839Y185233D01*
X55219Y184703D01*
X54688Y184082D01*
X54262Y183386D01*
X53949Y182631D01*
X53759Y181838D01*
X53695Y181024D01*
X53759Y180210D01*
X53949Y179416D01*
X54262Y178662D01*
X54688Y177965D01*
X55219Y177345D01*
X55839Y176814D01*
X55898Y176779D01*
Y176299D01*
X55888Y176181D01*
X55925Y175710D01*
X56036Y175251D01*
X56216Y174815D01*
X56463Y174412D01*
X56463Y174412D01*
X56770Y174053D01*
X56859Y173977D01*
X63347Y167489D01*
X63423Y167400D01*
X63782Y167093D01*
X63782Y167093D01*
X64185Y166846D01*
X64621Y166666D01*
X64747Y166635D01*
Y64961D01*
X51025D01*
Y105010D01*
X51252D01*
X51706Y105050D01*
X52156Y105130D01*
X52596Y105249D01*
X52743Y105307D01*
X52878Y105389D01*
X52999Y105490D01*
X53102Y105610D01*
X53185Y105744D01*
X53247Y105889D01*
X53285Y106043D01*
X53298Y106200D01*
X53287Y106358D01*
X53251Y106511D01*
X53191Y106658D01*
X53110Y106793D01*
X53008Y106913D01*
X52888Y107017D01*
X52754Y107100D01*
X52609Y107161D01*
X52456Y107199D01*
X52298Y107213D01*
X52141Y107201D01*
X51988Y107162D01*
X51719Y107087D01*
X51443Y107038D01*
X51164Y107013D01*
X51025D01*
Y113381D01*
X51164D01*
X51443Y113356D01*
X51719Y113307D01*
X51989Y113234D01*
X52141Y113195D01*
X52298Y113184D01*
X52455Y113197D01*
X52608Y113235D01*
X52753Y113296D01*
X52887Y113379D01*
X53006Y113482D01*
X53107Y113603D01*
X53189Y113738D01*
X53248Y113883D01*
X53284Y114037D01*
X53295Y114194D01*
X53282Y114350D01*
X53244Y114503D01*
X53183Y114648D01*
X53100Y114782D01*
X52997Y114901D01*
X52876Y115002D01*
X52741Y115084D01*
X52675Y115109D01*
X53386Y115403D01*
X54082Y115830D01*
X54703Y116360D01*
X54961Y116662D01*
X55219Y116360D01*
X55839Y115830D01*
X56536Y115403D01*
X57224Y115118D01*
X56536Y114833D01*
X55839Y114406D01*
X55219Y113876D01*
X54688Y113255D01*
X54262Y112559D01*
X53949Y111805D01*
X53759Y111011D01*
X53695Y110197D01*
X53759Y109383D01*
X53949Y108589D01*
X54262Y107835D01*
X54688Y107139D01*
X55219Y106518D01*
X55839Y105988D01*
X56536Y105561D01*
X57290Y105248D01*
X58084Y105058D01*
X58898Y104994D01*
X59712Y105058D01*
X60505Y105248D01*
X61260Y105561D01*
X61956Y105988D01*
X62577Y106518D01*
X63107Y107139D01*
X63534Y107835D01*
X63846Y108589D01*
X64037Y109383D01*
X64085Y110197D01*
X64037Y111011D01*
X63846Y111805D01*
X63534Y112559D01*
X63107Y113255D01*
X62577Y113876D01*
X61956Y114406D01*
X61260Y114833D01*
X60571Y115118D01*
X61260Y115403D01*
X61956Y115830D01*
X62577Y116360D01*
X63107Y116981D01*
X63534Y117677D01*
X63846Y118432D01*
X64037Y119225D01*
X64085Y120039D01*
X64037Y120853D01*
X63846Y121647D01*
X63534Y122401D01*
X63107Y123098D01*
X62577Y123718D01*
X61956Y124249D01*
X61260Y124675D01*
X60505Y124988D01*
X59712Y125178D01*
X58898Y125242D01*
X58084Y125178D01*
X57290Y124988D01*
X56536Y124675D01*
X55839Y124249D01*
X55219Y123718D01*
X54961Y123416D01*
X54703Y123718D01*
X54082Y124249D01*
X53386Y124675D01*
X52631Y124988D01*
X51838Y125178D01*
X51025Y125242D01*
Y175837D01*
X51252D01*
X51706Y175877D01*
X52156Y175957D01*
X52596Y176076D01*
X52743Y176134D01*
X52878Y176216D01*
X52999Y176317D01*
X53102Y176437D01*
X53185Y176571D01*
X53247Y176716D01*
X53285Y176870D01*
X53298Y177027D01*
X53287Y177184D01*
X53251Y177338D01*
X53191Y177484D01*
X53110Y177619D01*
X53008Y177740D01*
X52888Y177844D01*
X52754Y177927D01*
X52609Y177988D01*
X52456Y178026D01*
X52298Y178039D01*
X52141Y178028D01*
X51988Y177989D01*
X51719Y177913D01*
X51443Y177864D01*
X51164Y177840D01*
X51025D01*
Y184208D01*
X51164D01*
G37*
G36*
X48461Y64961D02*Y86170D01*
X48489Y86180D01*
X48659Y86279D01*
X48812Y86403D01*
X48943Y86549D01*
X49046Y86716D01*
X49444Y87514D01*
X49758Y88348D01*
X49996Y89207D01*
X50156Y90084D01*
X50236Y90972D01*
Y91863D01*
X50156Y92751D01*
X49996Y93628D01*
X49758Y94487D01*
X49444Y95321D01*
X49055Y96123D01*
X48949Y96290D01*
X48817Y96437D01*
X48663Y96562D01*
X48492Y96661D01*
X48461Y96673D01*
Y115526D01*
X48662Y115403D01*
X49367Y115111D01*
X49304Y115087D01*
X49169Y115005D01*
X49049Y114903D01*
X48945Y114784D01*
X48862Y114650D01*
X48800Y114504D01*
X48763Y114351D01*
X48749Y114194D01*
X48761Y114036D01*
X48796Y113882D01*
X48856Y113736D01*
X48938Y113601D01*
X49039Y113480D01*
X49159Y113377D01*
X49293Y113294D01*
X49438Y113232D01*
X49592Y113194D01*
X49749Y113181D01*
X49906Y113192D01*
X50059Y113231D01*
X50329Y113307D01*
X50605Y113356D01*
X50884Y113381D01*
X51025D01*
Y107013D01*
X50884D01*
X50605Y107038D01*
X50329Y107087D01*
X50058Y107160D01*
X49906Y107198D01*
X49749Y107210D01*
X49592Y107196D01*
X49439Y107159D01*
X49294Y107097D01*
X49161Y107014D01*
X49042Y106911D01*
X48940Y106791D01*
X48859Y106656D01*
X48799Y106510D01*
X48764Y106357D01*
X48752Y106200D01*
X48766Y106043D01*
X48803Y105890D01*
X48865Y105745D01*
X48948Y105612D01*
X49051Y105493D01*
X49171Y105391D01*
X49306Y105310D01*
X49452Y105254D01*
X49892Y105130D01*
X50341Y105050D01*
X50795Y105010D01*
X51025D01*
Y64961D01*
X48461D01*
G37*
G36*
X48662Y186230D02*X49367Y185938D01*
X49304Y185913D01*
X49169Y185832D01*
X49049Y185730D01*
X48945Y185611D01*
X48862Y185476D01*
X48800Y185331D01*
X48763Y185178D01*
X48749Y185020D01*
X48761Y184863D01*
X48796Y184709D01*
X48856Y184563D01*
X48938Y184428D01*
X49039Y184307D01*
X49159Y184204D01*
X49293Y184120D01*
X49438Y184059D01*
X49592Y184021D01*
X49749Y184008D01*
X49906Y184019D01*
X50059Y184058D01*
X50329Y184134D01*
X50605Y184183D01*
X50884Y184208D01*
X51025D01*
Y177840D01*
X50884D01*
X50605Y177864D01*
X50329Y177913D01*
X50058Y177986D01*
X49906Y178025D01*
X49749Y178036D01*
X49592Y178023D01*
X49439Y177985D01*
X49294Y177924D01*
X49161Y177841D01*
X49042Y177738D01*
X48940Y177618D01*
X48859Y177483D01*
X48799Y177337D01*
X48764Y177184D01*
X48752Y177027D01*
X48766Y176870D01*
X48803Y176717D01*
X48865Y176572D01*
X48948Y176439D01*
X49051Y176319D01*
X49171Y176218D01*
X49306Y176137D01*
X49452Y176080D01*
X49892Y175957D01*
X50341Y175877D01*
X50795Y175837D01*
X51025D01*
Y125242D01*
X51024Y125242D01*
X50210Y125178D01*
X49416Y124988D01*
X48662Y124675D01*
X48461Y124552D01*
Y133571D01*
X48489Y133582D01*
X48659Y133680D01*
X48812Y133805D01*
X48943Y133951D01*
X49046Y134118D01*
X49444Y134916D01*
X49758Y135750D01*
X49996Y136609D01*
X50156Y137485D01*
X50236Y138373D01*
Y139265D01*
X50156Y140152D01*
X49996Y141029D01*
X49758Y141888D01*
X49444Y142722D01*
X49055Y143525D01*
X48949Y143691D01*
X48817Y143839D01*
X48663Y143964D01*
X48492Y144063D01*
X48461Y144075D01*
Y156996D01*
X48489Y157007D01*
X48659Y157106D01*
X48812Y157230D01*
X48943Y157376D01*
X49046Y157543D01*
X49444Y158341D01*
X49758Y159175D01*
X49996Y160034D01*
X50156Y160911D01*
X50236Y161798D01*
Y162690D01*
X50156Y163578D01*
X49996Y164454D01*
X49758Y165313D01*
X49444Y166147D01*
X49055Y166950D01*
X48949Y167117D01*
X48817Y167264D01*
X48663Y167389D01*
X48492Y167488D01*
X48461Y167500D01*
Y186353D01*
X48662Y186230D01*
G37*
G36*
X64747Y234252D02*Y174575D01*
X62253Y177068D01*
X62577Y177345D01*
X63107Y177965D01*
X63534Y178662D01*
X63846Y179416D01*
X64037Y180210D01*
X64085Y181024D01*
X64037Y181838D01*
X63846Y182631D01*
X63534Y183386D01*
X63107Y184082D01*
X62577Y184703D01*
X61956Y185233D01*
X61260Y185660D01*
X60571Y185945D01*
X61260Y186230D01*
X61956Y186657D01*
X62577Y187187D01*
X63107Y187808D01*
X63534Y188504D01*
X63846Y189258D01*
X64037Y190052D01*
X64085Y190866D01*
X64037Y191680D01*
X63846Y192474D01*
X63534Y193228D01*
X63107Y193924D01*
X62577Y194545D01*
X61956Y195075D01*
X61260Y195502D01*
X60505Y195814D01*
X59712Y196005D01*
X58898Y196069D01*
X58084Y196005D01*
X57290Y195814D01*
X56536Y195502D01*
X55839Y195075D01*
X55219Y194545D01*
X54961Y194243D01*
X54703Y194545D01*
X54082Y195075D01*
X53386Y195502D01*
X52631Y195814D01*
X51838Y196005D01*
X51024Y196069D01*
X50210Y196005D01*
X49416Y195814D01*
X48662Y195502D01*
X48461Y195379D01*
Y204398D01*
X48489Y204409D01*
X48659Y204507D01*
X48812Y204631D01*
X48943Y204778D01*
X49046Y204945D01*
X49444Y205742D01*
X49758Y206576D01*
X49996Y207435D01*
X50156Y208312D01*
X50236Y209200D01*
Y210091D01*
X50156Y210979D01*
X49996Y211856D01*
X49758Y212715D01*
X49444Y213549D01*
X49055Y214351D01*
X48949Y214518D01*
X48817Y214666D01*
X48663Y214790D01*
X48492Y214890D01*
X48461Y214901D01*
Y234252D01*
X64747D01*
G37*
G36*
X47039Y86446D02*X47185Y86315D01*
X47350Y86208D01*
X47530Y86128D01*
X47720Y86078D01*
X47916Y86058D01*
X48113Y86068D01*
X48305Y86109D01*
X48461Y86170D01*
Y64961D01*
X46938D01*
Y86571D01*
X47039Y86446D01*
G37*
G36*
X47137Y94330D02*X47372Y93708D01*
X47550Y93067D01*
X47669Y92412D01*
X47729Y91750D01*
Y91085D01*
X47669Y90422D01*
X47550Y89768D01*
X47372Y89127D01*
X47137Y88504D01*
X46938Y88093D01*
Y94730D01*
X47137Y94330D01*
G37*
G36*
X47345Y116360D02*X47965Y115830D01*
X48461Y115526D01*
Y96673D01*
X48307Y96732D01*
X48114Y96774D01*
X47916Y96785D01*
X47719Y96764D01*
X47528Y96713D01*
X47347Y96633D01*
X47181Y96526D01*
X47033Y96393D01*
X46938Y96276D01*
Y107930D01*
X47027Y107922D01*
X47184Y107934D01*
X47338Y107970D01*
X47484Y108029D01*
X47619Y108111D01*
X47740Y108213D01*
X47843Y108332D01*
X47927Y108466D01*
X47988Y108612D01*
X48026Y108765D01*
X48039Y108922D01*
X48028Y109080D01*
X47989Y109232D01*
X47913Y109502D01*
X47864Y109778D01*
X47840Y110057D01*
Y110337D01*
X47864Y110616D01*
X47913Y110892D01*
X47986Y111162D01*
X48025Y111315D01*
X48036Y111472D01*
X48023Y111628D01*
X47985Y111781D01*
X47924Y111926D01*
X47841Y112060D01*
X47738Y112179D01*
X47618Y112280D01*
X47483Y112362D01*
X47337Y112421D01*
X47184Y112457D01*
X47027Y112468D01*
X46938Y112461D01*
Y116836D01*
X47345Y116360D01*
G37*
G36*
X47039Y133848D02*X47185Y133717D01*
X47350Y133610D01*
X47530Y133530D01*
X47720Y133479D01*
X47916Y133459D01*
X48113Y133470D01*
X48305Y133511D01*
X48461Y133571D01*
Y124552D01*
X47965Y124249D01*
X47345Y123718D01*
X46938Y123242D01*
Y133972D01*
X47039Y133848D01*
G37*
G36*
X47137Y141732D02*X47372Y141109D01*
X47550Y140468D01*
X47669Y139814D01*
X47729Y139151D01*
Y138486D01*
X47669Y137824D01*
X47550Y137169D01*
X47372Y136528D01*
X47137Y135906D01*
X46938Y135494D01*
Y142132D01*
X47137Y141732D01*
G37*
G36*
X47039Y157273D02*X47185Y157142D01*
X47350Y157035D01*
X47530Y156955D01*
X47720Y156905D01*
X47916Y156884D01*
X48113Y156895D01*
X48305Y156936D01*
X48461Y156996D01*
Y144075D01*
X48307Y144134D01*
X48114Y144176D01*
X47916Y144186D01*
X47719Y144166D01*
X47528Y144115D01*
X47347Y144035D01*
X47181Y143927D01*
X47033Y143795D01*
X46938Y143678D01*
Y157397D01*
X47039Y157273D01*
G37*
G36*
X47137Y165157D02*X47372Y164535D01*
X47550Y163894D01*
X47669Y163239D01*
X47729Y162577D01*
Y161912D01*
X47669Y161249D01*
X47550Y160595D01*
X47372Y159954D01*
X47137Y159331D01*
X46938Y158920D01*
Y165557D01*
X47137Y165157D01*
G37*
G36*
X47345Y187187D02*X47965Y186657D01*
X48461Y186353D01*
Y167500D01*
X48307Y167559D01*
X48114Y167601D01*
X47916Y167611D01*
X47719Y167591D01*
X47528Y167540D01*
X47347Y167460D01*
X47181Y167352D01*
X47033Y167220D01*
X46938Y167103D01*
Y178757D01*
X47027Y178749D01*
X47184Y178761D01*
X47338Y178796D01*
X47484Y178856D01*
X47619Y178938D01*
X47740Y179039D01*
X47843Y179159D01*
X47927Y179293D01*
X47988Y179438D01*
X48026Y179592D01*
X48039Y179749D01*
X48028Y179906D01*
X47989Y180059D01*
X47913Y180329D01*
X47864Y180605D01*
X47840Y180884D01*
Y181164D01*
X47864Y181443D01*
X47913Y181719D01*
X47986Y181989D01*
X48025Y182141D01*
X48036Y182298D01*
X48023Y182455D01*
X47985Y182608D01*
X47924Y182753D01*
X47841Y182887D01*
X47738Y183006D01*
X47618Y183107D01*
X47483Y183189D01*
X47337Y183248D01*
X47184Y183284D01*
X47027Y183295D01*
X46938Y183287D01*
Y187663D01*
X47345Y187187D01*
G37*
G36*
X47039Y204675D02*X47185Y204543D01*
X47350Y204436D01*
X47530Y204357D01*
X47720Y204306D01*
X47916Y204286D01*
X48113Y204297D01*
X48305Y204338D01*
X48461Y204398D01*
Y195379D01*
X47965Y195075D01*
X47345Y194545D01*
X46938Y194069D01*
Y204799D01*
X47039Y204675D01*
G37*
G36*
X47137Y212559D02*X47372Y211936D01*
X47550Y211295D01*
X47669Y210641D01*
X47729Y209978D01*
Y209313D01*
X47669Y208651D01*
X47550Y207996D01*
X47372Y207355D01*
X47137Y206733D01*
X46938Y206321D01*
Y212959D01*
X47137Y212559D01*
G37*
G36*
X48461Y234252D02*Y214901D01*
X48307Y214961D01*
X48114Y215002D01*
X47916Y215013D01*
X47719Y214993D01*
X47528Y214942D01*
X47347Y214861D01*
X47181Y214754D01*
X47033Y214622D01*
X46938Y214504D01*
Y234252D01*
X48461D01*
G37*
G36*
X46938D02*Y214504D01*
X46909Y214468D01*
X46809Y214297D01*
X46738Y214112D01*
X46697Y213919D01*
X46686Y213721D01*
X46706Y213524D01*
X46757Y213333D01*
X46841Y213154D01*
X46938Y212959D01*
Y206321D01*
X46847Y206134D01*
X46764Y205956D01*
X46714Y205766D01*
X46693Y205570D01*
X46704Y205374D01*
X46745Y205181D01*
X46816Y204998D01*
X46915Y204827D01*
X46938Y204799D01*
Y194069D01*
X46814Y193924D01*
X46388Y193228D01*
X46075Y192474D01*
X45885Y191680D01*
X45821Y190866D01*
X45885Y190052D01*
X46075Y189258D01*
X46388Y188504D01*
X46814Y187808D01*
X46938Y187663D01*
Y183287D01*
X46870Y183282D01*
X46717Y183244D01*
X46572Y183183D01*
X46439Y183100D01*
X46319Y182997D01*
X46218Y182876D01*
X46137Y182741D01*
X46080Y182595D01*
X45957Y182156D01*
X45877Y181706D01*
X45837Y181252D01*
Y180795D01*
X45877Y180341D01*
X45957Y179892D01*
X46076Y179451D01*
X46134Y179304D01*
X46216Y179169D01*
X46317Y179049D01*
X46437Y178945D01*
X46571Y178862D01*
X46716Y178800D01*
X46870Y178763D01*
X46938Y178757D01*
Y167103D01*
X46909Y167067D01*
X46809Y166895D01*
X46738Y166711D01*
X46697Y166517D01*
X46686Y166319D01*
X46706Y166123D01*
X46757Y165931D01*
X46841Y165752D01*
X46938Y165557D01*
Y158920D01*
X46847Y158732D01*
X46764Y158554D01*
X46714Y158364D01*
X46693Y158169D01*
X46704Y157972D01*
X46745Y157780D01*
X46816Y157596D01*
X46915Y157426D01*
X46938Y157397D01*
Y143678D01*
X46909Y143641D01*
X46809Y143470D01*
X46738Y143285D01*
X46697Y143092D01*
X46686Y142894D01*
X46706Y142697D01*
X46757Y142506D01*
X46841Y142327D01*
X46938Y142132D01*
Y135494D01*
X46847Y135307D01*
X46764Y135129D01*
X46714Y134939D01*
X46693Y134743D01*
X46704Y134547D01*
X46745Y134355D01*
X46816Y134171D01*
X46915Y134001D01*
X46938Y133972D01*
Y123242D01*
X46814Y123098D01*
X46388Y122401D01*
X46075Y121647D01*
X45885Y120853D01*
X45821Y120039D01*
X45885Y119225D01*
X46075Y118432D01*
X46388Y117677D01*
X46814Y116981D01*
X46938Y116836D01*
Y112461D01*
X46870Y112455D01*
X46717Y112417D01*
X46572Y112356D01*
X46439Y112273D01*
X46319Y112170D01*
X46218Y112049D01*
X46137Y111915D01*
X46080Y111768D01*
X45957Y111329D01*
X45877Y110880D01*
X45837Y110425D01*
Y109969D01*
X45877Y109514D01*
X45957Y109065D01*
X46076Y108624D01*
X46134Y108478D01*
X46216Y108342D01*
X46317Y108222D01*
X46437Y108118D01*
X46571Y108035D01*
X46716Y107974D01*
X46870Y107936D01*
X46938Y107930D01*
Y96276D01*
X46909Y96240D01*
X46809Y96069D01*
X46738Y95884D01*
X46697Y95690D01*
X46686Y95493D01*
X46706Y95296D01*
X46757Y95105D01*
X46841Y94925D01*
X46938Y94730D01*
Y88093D01*
X46847Y87906D01*
X46764Y87728D01*
X46714Y87537D01*
X46693Y87342D01*
X46704Y87145D01*
X46745Y86953D01*
X46816Y86769D01*
X46915Y86599D01*
X46938Y86571D01*
Y64961D01*
X40358D01*
Y81535D01*
X40800D01*
X41688Y81616D01*
X42565Y81776D01*
X43424Y82014D01*
X44258Y82328D01*
X45060Y82716D01*
X45227Y82823D01*
X45374Y82955D01*
X45499Y83109D01*
X45598Y83280D01*
X45669Y83464D01*
X45711Y83658D01*
X45722Y83856D01*
X45701Y84053D01*
X45650Y84244D01*
X45570Y84425D01*
X45463Y84591D01*
X45330Y84738D01*
X45177Y84863D01*
X45006Y84962D01*
X44821Y85034D01*
X44627Y85075D01*
X44430Y85086D01*
X44233Y85065D01*
X44042Y85014D01*
X43862Y84931D01*
X43267Y84634D01*
X42645Y84400D01*
X42004Y84222D01*
X41349Y84103D01*
X40687Y84043D01*
X40358D01*
Y98792D01*
X40687D01*
X41349Y98732D01*
X42004Y98613D01*
X42645Y98435D01*
X43267Y98200D01*
X43866Y97910D01*
X44044Y97827D01*
X44234Y97777D01*
X44430Y97756D01*
X44626Y97767D01*
X44819Y97808D01*
X45002Y97879D01*
X45173Y97978D01*
X45325Y98102D01*
X45457Y98248D01*
X45564Y98413D01*
X45643Y98593D01*
X45694Y98783D01*
X45714Y98979D01*
X45703Y99176D01*
X45662Y99368D01*
X45591Y99552D01*
X45493Y99722D01*
X45369Y99875D01*
X45222Y100006D01*
X45055Y100109D01*
X44258Y100507D01*
X43424Y100821D01*
X42565Y101059D01*
X41688Y101219D01*
X40800Y101299D01*
X40358D01*
Y128937D01*
X40800D01*
X41688Y129017D01*
X42565Y129177D01*
X43424Y129415D01*
X44258Y129730D01*
X45060Y130118D01*
X45227Y130224D01*
X45374Y130357D01*
X45499Y130510D01*
X45598Y130681D01*
X45669Y130866D01*
X45711Y131060D01*
X45722Y131257D01*
X45701Y131454D01*
X45650Y131645D01*
X45570Y131826D01*
X45463Y131993D01*
X45330Y132140D01*
X45177Y132265D01*
X45006Y132364D01*
X44821Y132435D01*
X44627Y132477D01*
X44430Y132487D01*
X44233Y132467D01*
X44042Y132416D01*
X43862Y132332D01*
X43267Y132036D01*
X42645Y131801D01*
X42004Y131624D01*
X41349Y131504D01*
X40687Y131445D01*
X40358D01*
Y146193D01*
X40687D01*
X41349Y146133D01*
X42004Y146014D01*
X42645Y145836D01*
X43267Y145602D01*
X43866Y145312D01*
X44044Y145229D01*
X44234Y145178D01*
X44430Y145158D01*
X44626Y145169D01*
X44819Y145210D01*
X45002Y145281D01*
X45173Y145379D01*
X45325Y145503D01*
X45457Y145650D01*
X45564Y145815D01*
X45643Y145995D01*
X45694Y146185D01*
X45714Y146381D01*
X45703Y146577D01*
X45662Y146770D01*
X45591Y146953D01*
X45493Y147123D01*
X45369Y147276D01*
X45222Y147408D01*
X45055Y147511D01*
X44258Y147908D01*
X43424Y148223D01*
X42565Y148461D01*
X41688Y148621D01*
X40800Y148701D01*
X40358D01*
Y152362D01*
X40800D01*
X41688Y152442D01*
X42565Y152602D01*
X43424Y152840D01*
X44258Y153155D01*
X45060Y153543D01*
X45227Y153650D01*
X45374Y153782D01*
X45499Y153935D01*
X45598Y154107D01*
X45669Y154291D01*
X45711Y154485D01*
X45722Y154682D01*
X45701Y154879D01*
X45650Y155071D01*
X45570Y155252D01*
X45463Y155418D01*
X45330Y155565D01*
X45177Y155690D01*
X45006Y155789D01*
X44821Y155860D01*
X44627Y155902D01*
X44430Y155912D01*
X44233Y155892D01*
X44042Y155841D01*
X43862Y155758D01*
X43267Y155461D01*
X42645Y155227D01*
X42004Y155049D01*
X41349Y154930D01*
X40687Y154870D01*
X40358D01*
Y169618D01*
X40687D01*
X41349Y169559D01*
X42004Y169439D01*
X42645Y169262D01*
X43267Y169027D01*
X43866Y168737D01*
X44044Y168654D01*
X44234Y168603D01*
X44430Y168583D01*
X44626Y168594D01*
X44819Y168635D01*
X45002Y168706D01*
X45173Y168805D01*
X45325Y168929D01*
X45457Y169075D01*
X45564Y169240D01*
X45643Y169420D01*
X45694Y169610D01*
X45714Y169806D01*
X45703Y170002D01*
X45662Y170195D01*
X45591Y170378D01*
X45493Y170549D01*
X45369Y170701D01*
X45222Y170833D01*
X45055Y170936D01*
X44258Y171333D01*
X43424Y171648D01*
X42565Y171886D01*
X41688Y172046D01*
X40800Y172126D01*
X40358D01*
Y199764D01*
X40800D01*
X41688Y199844D01*
X42565Y200004D01*
X43424Y200242D01*
X44258Y200556D01*
X45060Y200945D01*
X45227Y201051D01*
X45374Y201183D01*
X45499Y201337D01*
X45598Y201508D01*
X45669Y201693D01*
X45711Y201886D01*
X45722Y202084D01*
X45701Y202281D01*
X45650Y202472D01*
X45570Y202653D01*
X45463Y202819D01*
X45330Y202967D01*
X45177Y203091D01*
X45006Y203191D01*
X44821Y203262D01*
X44627Y203303D01*
X44430Y203314D01*
X44233Y203294D01*
X44042Y203243D01*
X43862Y203159D01*
X43267Y202863D01*
X42645Y202628D01*
X42004Y202450D01*
X41349Y202331D01*
X40687Y202271D01*
X40358D01*
Y217020D01*
X40687D01*
X41349Y216960D01*
X42004Y216841D01*
X42645Y216663D01*
X43267Y216429D01*
X43866Y216139D01*
X44044Y216056D01*
X44234Y216005D01*
X44430Y215985D01*
X44626Y215995D01*
X44819Y216037D01*
X45002Y216107D01*
X45173Y216206D01*
X45325Y216330D01*
X45457Y216477D01*
X45564Y216642D01*
X45643Y216822D01*
X45694Y217012D01*
X45714Y217208D01*
X45703Y217404D01*
X45662Y217596D01*
X45591Y217780D01*
X45493Y217950D01*
X45369Y218103D01*
X45222Y218234D01*
X45055Y218338D01*
X44258Y218735D01*
X43424Y219049D01*
X42565Y219287D01*
X41688Y219447D01*
X40800Y219528D01*
X40358D01*
Y234252D01*
X46938D01*
G37*
G36*
X40358D02*Y219528D01*
X39909D01*
X39021Y219447D01*
X38144Y219287D01*
X37285Y219049D01*
X36451Y218735D01*
X35649Y218347D01*
X35482Y218240D01*
X35334Y218108D01*
X35210Y217954D01*
X35110Y217783D01*
X35039Y217599D01*
X34998Y217405D01*
X34987Y217207D01*
X35007Y217010D01*
X35058Y216819D01*
X35139Y216638D01*
X35246Y216472D01*
X35378Y216325D01*
X35532Y216200D01*
X35703Y216101D01*
X35888Y216029D01*
X36081Y215988D01*
X36279Y215977D01*
X36476Y215998D01*
X36667Y216049D01*
X36846Y216132D01*
X37441Y216429D01*
X38064Y216663D01*
X38705Y216841D01*
X39359Y216960D01*
X40022Y217020D01*
X40358D01*
Y202271D01*
X40022D01*
X39359Y202331D01*
X38705Y202450D01*
X38064Y202628D01*
X37441Y202863D01*
X36843Y203153D01*
X36665Y203236D01*
X36474Y203286D01*
X36279Y203307D01*
X36082Y203296D01*
X35890Y203255D01*
X35706Y203184D01*
X35536Y203085D01*
X35383Y202961D01*
X35252Y202815D01*
X35145Y202650D01*
X35065Y202470D01*
X35015Y202280D01*
X34995Y202084D01*
X35005Y201887D01*
X35046Y201695D01*
X35117Y201511D01*
X35216Y201341D01*
X35340Y201188D01*
X35486Y201057D01*
X35653Y200954D01*
X36451Y200556D01*
X37285Y200242D01*
X38144Y200004D01*
X39021Y199844D01*
X39909Y199764D01*
X40358D01*
Y172126D01*
X39909D01*
X39021Y172046D01*
X38144Y171886D01*
X37285Y171648D01*
X36451Y171333D01*
X35649Y170945D01*
X35482Y170839D01*
X35334Y170706D01*
X35210Y170553D01*
X35110Y170382D01*
X35039Y170197D01*
X34998Y170003D01*
X34987Y169806D01*
X35007Y169609D01*
X35058Y169418D01*
X35139Y169237D01*
X35246Y169070D01*
X35378Y168923D01*
X35532Y168798D01*
X35703Y168699D01*
X35888Y168628D01*
X36081Y168586D01*
X36279Y168576D01*
X36476Y168596D01*
X36667Y168647D01*
X36846Y168731D01*
X37441Y169027D01*
X38064Y169262D01*
X38705Y169439D01*
X39359Y169559D01*
X40022Y169618D01*
X40358D01*
Y154870D01*
X40022D01*
X39359Y154930D01*
X38705Y155049D01*
X38064Y155227D01*
X37441Y155461D01*
X36843Y155751D01*
X36665Y155834D01*
X36474Y155885D01*
X36279Y155905D01*
X36082Y155894D01*
X35890Y155853D01*
X35706Y155782D01*
X35536Y155684D01*
X35383Y155560D01*
X35252Y155413D01*
X35145Y155248D01*
X35065Y155068D01*
X35015Y154878D01*
X34995Y154682D01*
X35005Y154486D01*
X35046Y154293D01*
X35117Y154110D01*
X35216Y153940D01*
X35340Y153787D01*
X35486Y153655D01*
X35653Y153552D01*
X36451Y153155D01*
X37285Y152840D01*
X38144Y152602D01*
X39021Y152442D01*
X39909Y152362D01*
X40358D01*
Y148701D01*
X39909D01*
X39021Y148621D01*
X38144Y148461D01*
X37285Y148223D01*
X36451Y147908D01*
X35649Y147520D01*
X35482Y147413D01*
X35334Y147281D01*
X35210Y147128D01*
X35110Y146956D01*
X35039Y146772D01*
X34998Y146578D01*
X34987Y146381D01*
X35007Y146184D01*
X35058Y145992D01*
X35139Y145811D01*
X35246Y145645D01*
X35378Y145498D01*
X35532Y145373D01*
X35703Y145274D01*
X35888Y145203D01*
X36081Y145161D01*
X36279Y145151D01*
X36476Y145171D01*
X36667Y145222D01*
X36846Y145305D01*
X37441Y145602D01*
X38064Y145836D01*
X38705Y146014D01*
X39359Y146133D01*
X40022Y146193D01*
X40358D01*
Y131445D01*
X40022D01*
X39359Y131504D01*
X38705Y131624D01*
X38064Y131801D01*
X37441Y132036D01*
X36843Y132326D01*
X36665Y132409D01*
X36474Y132460D01*
X36279Y132480D01*
X36082Y132469D01*
X35890Y132428D01*
X35706Y132357D01*
X35536Y132258D01*
X35383Y132134D01*
X35252Y131988D01*
X35145Y131823D01*
X35065Y131643D01*
X35015Y131453D01*
X34995Y131257D01*
X35005Y131061D01*
X35046Y130868D01*
X35117Y130685D01*
X35216Y130514D01*
X35340Y130362D01*
X35486Y130230D01*
X35653Y130127D01*
X36451Y129730D01*
X37285Y129415D01*
X38144Y129177D01*
X39021Y129017D01*
X39909Y128937D01*
X40358D01*
Y101299D01*
X39909D01*
X39021Y101219D01*
X38144Y101059D01*
X37285Y100821D01*
X36451Y100507D01*
X35649Y100118D01*
X35482Y100012D01*
X35334Y99880D01*
X35210Y99726D01*
X35110Y99555D01*
X35039Y99370D01*
X34998Y99177D01*
X34987Y98979D01*
X35007Y98782D01*
X35058Y98591D01*
X35139Y98410D01*
X35246Y98244D01*
X35378Y98096D01*
X35532Y97972D01*
X35703Y97872D01*
X35888Y97801D01*
X36081Y97760D01*
X36279Y97749D01*
X36476Y97769D01*
X36667Y97820D01*
X36846Y97904D01*
X37441Y98200D01*
X38064Y98435D01*
X38705Y98613D01*
X39359Y98732D01*
X40022Y98792D01*
X40358D01*
Y84043D01*
X40022D01*
X39359Y84103D01*
X38705Y84222D01*
X38064Y84400D01*
X37441Y84634D01*
X36843Y84924D01*
X36665Y85007D01*
X36474Y85058D01*
X36279Y85078D01*
X36082Y85068D01*
X35890Y85026D01*
X35706Y84956D01*
X35536Y84857D01*
X35383Y84733D01*
X35252Y84586D01*
X35145Y84421D01*
X35065Y84241D01*
X35015Y84051D01*
X34995Y83855D01*
X35005Y83659D01*
X35046Y83467D01*
X35117Y83283D01*
X35216Y83113D01*
X35340Y82960D01*
X35486Y82829D01*
X35653Y82725D01*
X36451Y82328D01*
X37285Y82014D01*
X38144Y81776D01*
X39021Y81616D01*
X39909Y81535D01*
X40358D01*
Y64961D01*
X32248D01*
Y86162D01*
X32401Y86102D01*
X32595Y86061D01*
X32793Y86050D01*
X32990Y86070D01*
X33181Y86121D01*
X33362Y86202D01*
X33528Y86309D01*
X33675Y86441D01*
X33800Y86595D01*
X33899Y86766D01*
X33971Y86951D01*
X34012Y87144D01*
X34023Y87342D01*
X34002Y87539D01*
X33951Y87730D01*
X33868Y87909D01*
X33571Y88504D01*
X33337Y89127D01*
X33159Y89768D01*
X33040Y90422D01*
X32980Y91085D01*
Y91750D01*
X33040Y92412D01*
X33159Y93067D01*
X33337Y93708D01*
X33571Y94330D01*
X33861Y94929D01*
X33944Y95107D01*
X33995Y95297D01*
X34015Y95493D01*
X34005Y95689D01*
X33963Y95882D01*
X33893Y96065D01*
X33794Y96236D01*
X33670Y96388D01*
X33523Y96520D01*
X33358Y96627D01*
X33178Y96706D01*
X32988Y96757D01*
X32792Y96777D01*
X32596Y96766D01*
X32404Y96725D01*
X32248Y96665D01*
Y133563D01*
X32401Y133504D01*
X32595Y133462D01*
X32793Y133452D01*
X32990Y133472D01*
X33181Y133523D01*
X33362Y133603D01*
X33528Y133711D01*
X33675Y133843D01*
X33800Y133996D01*
X33899Y134168D01*
X33971Y134352D01*
X34012Y134546D01*
X34023Y134744D01*
X34002Y134940D01*
X33951Y135132D01*
X33868Y135311D01*
X33571Y135906D01*
X33337Y136528D01*
X33159Y137169D01*
X33040Y137824D01*
X32980Y138486D01*
Y139151D01*
X33040Y139814D01*
X33159Y140468D01*
X33337Y141109D01*
X33571Y141732D01*
X33861Y142331D01*
X33944Y142509D01*
X33995Y142699D01*
X34015Y142894D01*
X34005Y143091D01*
X33963Y143283D01*
X33893Y143467D01*
X33794Y143637D01*
X33670Y143790D01*
X33523Y143921D01*
X33358Y144028D01*
X33178Y144108D01*
X32988Y144158D01*
X32792Y144179D01*
X32596Y144168D01*
X32404Y144127D01*
X32248Y144067D01*
Y156988D01*
X32401Y156929D01*
X32595Y156887D01*
X32793Y156877D01*
X32990Y156897D01*
X33181Y156948D01*
X33362Y157028D01*
X33528Y157136D01*
X33675Y157268D01*
X33800Y157422D01*
X33899Y157593D01*
X33971Y157778D01*
X34012Y157971D01*
X34023Y158169D01*
X34002Y158366D01*
X33951Y158557D01*
X33868Y158736D01*
X33571Y159331D01*
X33337Y159954D01*
X33159Y160595D01*
X33040Y161249D01*
X32980Y161912D01*
Y162577D01*
X33040Y163239D01*
X33159Y163894D01*
X33337Y164535D01*
X33571Y165157D01*
X33861Y165756D01*
X33944Y165934D01*
X33995Y166124D01*
X34015Y166320D01*
X34005Y166516D01*
X33963Y166708D01*
X33893Y166892D01*
X33794Y167062D01*
X33670Y167215D01*
X33523Y167346D01*
X33358Y167453D01*
X33178Y167533D01*
X32988Y167584D01*
X32792Y167604D01*
X32596Y167593D01*
X32404Y167552D01*
X32248Y167492D01*
Y204390D01*
X32401Y204331D01*
X32595Y204289D01*
X32793Y204278D01*
X32990Y204299D01*
X33181Y204350D01*
X33362Y204430D01*
X33528Y204537D01*
X33675Y204670D01*
X33800Y204823D01*
X33899Y204994D01*
X33971Y205179D01*
X34012Y205373D01*
X34023Y205570D01*
X34002Y205767D01*
X33951Y205958D01*
X33868Y206138D01*
X33571Y206733D01*
X33337Y207355D01*
X33159Y207996D01*
X33040Y208651D01*
X32980Y209313D01*
Y209978D01*
X33040Y210641D01*
X33159Y211295D01*
X33337Y211936D01*
X33571Y212559D01*
X33861Y213157D01*
X33944Y213335D01*
X33995Y213526D01*
X34015Y213721D01*
X34005Y213918D01*
X33963Y214110D01*
X33893Y214294D01*
X33794Y214464D01*
X33670Y214617D01*
X33523Y214748D01*
X33358Y214855D01*
X33178Y214935D01*
X32988Y214985D01*
X32792Y215005D01*
X32596Y214995D01*
X32404Y214954D01*
X32248Y214893D01*
Y234252D01*
X40358D01*
G37*
G36*
X32248D02*Y214893D01*
X32220Y214883D01*
X32050Y214784D01*
X31897Y214660D01*
X31766Y214514D01*
X31662Y214347D01*
X31265Y213549D01*
X30951Y212715D01*
X30713Y211856D01*
X30553Y210979D01*
X30472Y210091D01*
Y209200D01*
X30553Y208312D01*
X30713Y207435D01*
X30951Y206576D01*
X31265Y205742D01*
X31653Y204940D01*
X31760Y204773D01*
X31892Y204626D01*
X32046Y204501D01*
X32217Y204402D01*
X32248Y204390D01*
Y167492D01*
X32220Y167481D01*
X32050Y167383D01*
X31897Y167258D01*
X31766Y167112D01*
X31662Y166945D01*
X31265Y166147D01*
X30951Y165313D01*
X30713Y164454D01*
X30553Y163578D01*
X30472Y162690D01*
Y161798D01*
X30553Y160911D01*
X30713Y160034D01*
X30951Y159175D01*
X31265Y158341D01*
X31653Y157538D01*
X31760Y157372D01*
X31892Y157224D01*
X32046Y157099D01*
X32217Y157000D01*
X32248Y156988D01*
Y144067D01*
X32220Y144056D01*
X32050Y143957D01*
X31897Y143833D01*
X31766Y143687D01*
X31662Y143520D01*
X31265Y142722D01*
X30951Y141888D01*
X30713Y141029D01*
X30553Y140152D01*
X30472Y139265D01*
Y138373D01*
X30553Y137485D01*
X30713Y136609D01*
X30951Y135750D01*
X31265Y134916D01*
X31653Y134113D01*
X31760Y133946D01*
X31892Y133799D01*
X32046Y133674D01*
X32217Y133575D01*
X32248Y133563D01*
Y96665D01*
X32220Y96654D01*
X32050Y96556D01*
X31897Y96432D01*
X31766Y96285D01*
X31662Y96118D01*
X31265Y95321D01*
X30951Y94487D01*
X30713Y93628D01*
X30553Y92751D01*
X30472Y91863D01*
Y90972D01*
X30553Y90084D01*
X30713Y89207D01*
X30951Y88348D01*
X31265Y87514D01*
X31653Y86712D01*
X31760Y86545D01*
X31892Y86397D01*
X32046Y86273D01*
X32217Y86173D01*
X32248Y86162D01*
Y64961D01*
X1969D01*
Y234252D01*
X32248D01*
G37*
G54D22*X77165Y169528D02*X65551D01*
X151319Y166260D02*X147382Y170197D01*
X130039D01*
X65551Y169528D02*X58898Y176181D01*
X130000Y120157D02*X146555D01*
X151319Y124921D01*
Y166260D01*
X58898Y176181D02*Y181024D01*
G54D23*X11811Y224409D03*
G54D21*G36*
X126000Y214157D02*X134000D01*
Y206157D01*
X126000D01*
Y214157D01*
G37*
G54D24*X130000Y200157D03*
G54D25*X40354Y209646D03*
G54D21*G36*
X96913Y203331D02*Y195331D01*
X88913D01*
Y203331D01*
X96913D01*
G37*
G54D24*X107087Y199291D03*
G54D23*X11811Y74803D03*
G54D26*X51024Y110197D03*
G54D25*X40354Y91417D03*
G54D24*X130000Y110157D03*
Y100157D03*
G54D26*X58898Y110197D03*
G54D24*X92913Y98465D03*
G54D21*G36*
X73165Y112465D02*X81165D01*
Y104465D01*
X73165D01*
Y112465D01*
G37*
G54D24*X77165Y98465D03*
X130000Y140157D03*
Y130157D03*
Y90157D03*
G54D26*X58898Y120039D03*
G54D21*G36*
X96913Y132465D02*Y124465D01*
X88913D01*
Y132465D01*
X96913D01*
G37*
G54D26*X51024Y120039D03*
G54D25*X40354Y138819D03*
Y162244D03*
G54D26*X58898Y190866D03*
X51024Y181024D03*
Y190866D03*
X58898Y181024D03*
G54D24*X92913Y169331D03*
G54D21*G36*
X73165Y183331D02*X81165D01*
Y175331D01*
X73165D01*
Y183331D01*
G37*
G54D24*X77165Y169331D03*
G54D21*G36*
X111087Y185291D02*X103087D01*
Y193291D01*
X111087D01*
Y185291D01*
G37*
G54D24*X130000Y170157D03*
Y160157D03*
Y120157D03*
Y190157D03*
Y180157D03*
Y150157D03*
X140000Y210157D03*
Y200157D03*
Y190157D03*
Y180157D03*
Y170157D03*
Y160157D03*
Y150157D03*
Y140157D03*
Y130157D03*
Y120157D03*
Y110157D03*
Y100157D03*
Y90157D03*
G54D23*X178740Y208858D03*
Y90748D03*
G54D27*G54D28*G54D29*G54D28*G54D27*G54D30*G54D29*G54D28*G54D30*G54D28*G54D30*G54D28*G54D30*G54D29*G54D30*G54D28*G54D27*M02*
