M48
INCH
T14C0.036
T13C0.091
T12C0.039
T11C0.126
%
T14
G05
X005102Y011020
X005890Y011020
X005890Y012004
X005102Y012004
X005890Y019087
X005102Y018102
X005102Y019087
X005890Y018102
T12
X013000Y021016
X013000Y020016
X009291Y019933
X010709Y019929
X013000Y011016
X013000Y010016
X009291Y009846
X007717Y010846
X007717Y009846
X013000Y014016
X013000Y013016
X013000Y009016
X009291Y012846
X009291Y016933
X007717Y017933
X007717Y016933
X010709Y018929
X013000Y017016
X013000Y016016
X013000Y012016
X013000Y019016
X013000Y018016
X013000Y015016
X014000Y021016
X014000Y020016
X014000Y019016
X014000Y018016
X014000Y017016
X014000Y016016
X014000Y015016
X014000Y014016
X014000Y013016
X014000Y012016
X014000Y011016
X014000Y010016
X014000Y009016
T13
X004035Y020965
X004035Y009142
X004035Y013882
X004035Y016224
T11
X001181Y022441
X001181Y007480
X017874Y020886
X017874Y009075
M30
