M48
INCH
T14C0.036
T13C0.039
T12C0.091
T11C0.126
%
T14
G05
X005890Y019087
X005102Y018102
X005102Y019087
X005890Y018102
X005890Y011020
X005890Y012004
X005102Y012004
X005102Y011020
T13
X013000Y021016
X014000Y021016
X010750Y020872
X013000Y020016
X014000Y020016
X013000Y020016
X014000Y020016
X008500Y019872
X009500Y019872
X013000Y019016
X014000Y019016
X013000Y019016
X014000Y019016
X014000Y018016
X014000Y018016
X013000Y018016
X014000Y017016
X014000Y017016
X014000Y016016
X014000Y015016
X014000Y015016
X014000Y016016
X013000Y015016
X013000Y016016
X013000Y017016
X014000Y014016
X013000Y018016
X013000Y017016
X013000Y016016
X013000Y015016
X013000Y014016
X009500Y017872
X008500Y017872
X010750Y017872
X010750Y016872
X013000Y014016
X013000Y013016
X013000Y012016
X013000Y012016
X013000Y013016
X013000Y011016
X013000Y010016
X013000Y009016
X013000Y009016
X013000Y010016
X013000Y011016
X013000Y008016
X014000Y014016
X010750Y013872
X014000Y013016
X014000Y013016
X008500Y010872
X009500Y010872
X009500Y012872
X008500Y012872
X014000Y012016
X014000Y011016
X014000Y012016
X014000Y011016
X014000Y010016
X014000Y009016
X014000Y008016
X014000Y009016
X014000Y010016
T12
X004035Y020965
X004035Y016224
X004035Y013882
X004035Y009142
T11
X001181Y022441
X001181Y006299
M30
