G04 start of page 2 for group 1 layer_idx 8 *
G04 Title: (unknown), top_silk *
G04 Creator: pcb-rnd 3.1.0-dev *
G04 CreationDate: 2023-01-28 08:44:06 UTC *
G04 For: tonia *
G04 Format: Gerber/RS-274X *
G04 PCB-Dimensions: 236220 236220 *
G04 PCB-Coordinate-Origin: lower left *
%MOIN*%
%FSLAX25Y25*%
%LNTOP_SILK_NONE_1*%
%ADD51C,0.0070*%
%ADD50C,0.0100*%
%ADD49C,0.0120*%
G54D49*X38660Y74830D02*X38685Y71927D01*
G54D50*X-79Y93465D02*X32913D01*
X-79Y136772D02*Y93465D01*
X32913Y136772D02*X-79D01*
G54D49*X42285Y69434D02*X40726Y67119D01*
X41433Y71441D02*X42285Y69434D01*
X38685Y71927D02*X41433Y71441D01*
G54D50*X-79Y164291D02*X32913D01*
X-79Y207598D02*Y164291D01*
X32913Y207598D02*X-79D01*
G54D49*X45083Y66684D02*X46028Y66294D01*
X42796Y65085D02*X45083Y66684D01*
X40726Y67119D02*X42796Y65085D01*
X55349Y65194D02*X57384Y67265D01*
X53035Y66753D02*X55349Y65194D01*
X51972Y66294D02*X53035Y66753D01*
X41399Y75364D02*X38660Y74830D01*
G54D50*X11811Y86614D03*
Y236221D03*
G54D49*X42215Y77386D02*X41399Y75364D01*
G54D50*X134989Y95157D02*Y85169D01*
X145000Y85157D02*X125000D01*
X66850Y93465D02*X47677D01*
X82165D02*X72165D01*
X125000Y115146D02*X145000D01*
X125000Y95169D02*X145000D01*
X178740Y102559D03*
X92913Y105965D02*Y98465D01*
X90413Y105965D02*X95413D01*
X72165Y113465D02*Y93465D01*
X82165D02*Y113465D01*
X72165Y103465D02*X82165D01*
Y113465D02*Y103465D01*
X72165Y113465D02*X82165D01*
G54D49*X54700Y151869D02*X58300D01*
X59500Y150669D01*
G54D50*X66850Y164291D02*X47677D01*
Y207598D02*X66850D01*
G54D49*X58300Y147069D02*X54700D01*
X59500Y150669D02*Y148269D01*
X58300Y147069D02*X59500Y148269D01*
X63100Y151869D02*X66700D01*
X61900Y150669D02*Y148269D01*
X63100Y147069D02*X66700D01*
X61900Y150669D02*X63100Y151869D01*
X61900Y148269D02*X63100Y147069D01*
X77500Y149469D02*X82300D01*
X69100Y147069D02*X72700D01*
X73900Y148269D02*Y150669D01*
X72700Y151869D02*X69100D01*
X72700D02*X73900Y150669D01*
Y148269D02*X72700Y147069D01*
G54D50*X72165Y184331D02*Y164331D01*
Y184331D02*X82165D01*
Y164331D02*Y184331D01*
X72165Y174331D02*X82165D01*
Y184331D02*Y174331D01*
G54D49*X69100Y157869D02*Y147069D01*
G54D50*X82165Y164331D02*X72165D01*
G54D49*X54700Y151869D02*Y142269D01*
G54D50*X66850Y136772D02*Y93465D01*
Y207598D02*Y164291D01*
X47677Y136772D02*X66850D01*
G54D49*X85900Y151869D02*Y147069D01*
Y150669D02*X87100Y151869D01*
X90700D01*
G54D50*X92913Y128465D02*Y120965D01*
X95413D02*X90413D01*
X95413D02*Y105965D01*
X90413D02*Y120965D01*
G54D49*X93100Y150669D02*X94300Y151869D01*
X96700D01*
G54D50*X92913Y199331D02*Y191831D01*
Y176831D02*Y169331D01*
X95413Y191831D02*Y176831D01*
G54D49*X93100Y151869D02*Y147069D01*
X97900Y150669D02*Y147069D01*
Y150669D02*X96700Y151869D01*
G54D50*X95413Y191831D02*X90413D01*
Y176831D02*Y191831D01*
Y176831D02*X95413D01*
G54D49*X100300Y150669D02*Y148269D01*
Y150669D02*X101500Y151869D01*
X100300Y148269D02*X101500Y147069D01*
X105100D01*
Y157869D01*
G54D50*X125000Y215157D02*X145000D01*
X112087Y184291D02*Y204291D01*
X102087D02*X112087D01*
X102087D02*Y184291D01*
X112087Y194291D02*X102087D01*
Y184291D02*Y194291D01*
X125000Y175169D02*X145000D01*
X125000Y195146D02*X145000D01*
X125000Y205169D02*X145000D01*
G54D49*X105100Y151869D02*X101500D01*
G54D50*X145000Y155169D02*X125000D01*
X145000Y165169D02*X125000D01*
X135011Y175157D02*Y115180D01*
X145000Y135169D02*X125000D01*
X145000Y145169D02*X135000D01*
X145000Y125169D02*X125000D01*
X112087Y184291D02*X102087D01*
X135011Y215157D02*Y195157D01*
X145000Y85157D02*Y215157D01*
X117402Y79528D02*Y220079D01*
X125000Y215157D02*Y85157D01*
X117402Y220079D02*X188465D01*
X117402Y79528D02*X188661D01*
G54D49*X40616Y79672D02*X42215Y77386D01*
X42651Y81743D02*X40616Y79672D01*
X44965Y80184D02*X42651Y81743D01*
X46972Y81036D02*X44965Y80184D01*
X47870Y70741D02*X46028Y66294D01*
X50130Y70741D02*X51972Y66294D01*
X47458Y83783D02*X46972Y81036D01*
X50361Y83809D02*X47458Y83783D01*
X50895Y81070D02*X50361Y83809D01*
X52917Y80253D02*X50895Y81070D01*
X55204Y81852D02*X52917Y80253D01*
X57274Y79818D02*X55204Y81852D01*
X55715Y77503D02*X57274Y79818D01*
X56567Y75496D02*X55715Y77503D01*
X59315Y75010D02*X56567Y75496D01*
X59340Y72107D02*X59315Y75010D01*
X56601Y71573D02*X59340Y72107D01*
X55785Y69551D02*X56601Y71573D01*
X57384Y67265D02*X55785Y69551D01*
X47870Y70741D02*G75*G02X50130Y76196I1130J2728D01*G01*
X50130Y76196D02*G75*G02X50130Y70741I-1130J-2728D01*G01*
X53500Y141069D02*G75*G03X55900Y141069I1200J0D01*G01*
G75*G03X53500Y141069I-1200J0D01*G01*
X67900Y159069D02*G75*G03X70300Y159069I1200J0D01*G01*
G75*G03X67900Y159069I-1200J0D01*G01*
X103900D02*G75*G03X106300Y159069I1200J0D01*G01*
G75*G03X103900Y159069I-1200J0D01*G01*
G54D50*X125000Y90157D02*G75*G03X135000Y90157I5000J0D01*G01*
G75*G03X125000Y90157I-5000J0D01*G01*
X135000D02*G75*G03X145000Y90157I5000J0D01*G01*
G75*G03X135000Y90157I-5000J0D01*G01*
X125000Y120157D02*G75*G03X135000Y120157I5000J0D01*G01*
G75*G03X125000Y120157I-5000J0D01*G01*
X135000D02*G75*G03X145000Y120157I5000J0D01*G01*
G75*G03X135000Y120157I-5000J0D01*G01*
X184724Y90748D02*G75*G02X172809Y90748I-5958J0D01*G01*
G75*G02X184724Y90748I5958J0D01*G01*
X135000Y130157D02*G75*G03X145000Y130157I5000J0D01*G01*
G75*G03X135000Y130157I-5000J0D01*G01*
X125000D02*G75*G03X135000Y130157I5000J0D01*G01*
G75*G03X125000Y130157I-5000J0D01*G01*
X135000Y140157D02*G75*G03X145000Y140157I5000J0D01*G01*
G75*G03X135000Y140157I-5000J0D01*G01*
Y170157D02*G75*G03X145000Y170157I5000J0D01*G01*
G75*G03X135000Y170157I-5000J0D01*G01*
X125000D02*G75*G03X135000Y170157I5000J0D01*G01*
G75*G03X125000Y170157I-5000J0D01*G01*
Y200157D02*G75*G03X135000Y200157I5000J0D01*G01*
G75*G03X125000Y200157I-5000J0D01*G01*
X135000D02*G75*G03X145000Y200157I5000J0D01*G01*
G75*G03X135000Y200157I-5000J0D01*G01*
Y150157D02*G75*G03X145000Y150157I5000J0D01*G01*
G75*G03X135000Y150157I-5000J0D01*G01*
X125000Y160157D02*G75*G03X135000Y160157I5000J0D01*G01*
G75*G03X125000Y160157I-5000J0D01*G01*
X135000D02*G75*G03X145000Y160157I5000J0D01*G01*
G75*G03X135000Y160157I-5000J0D01*G01*
X125000Y210157D02*G75*G03X135000Y210157I5000J0D01*G01*
G75*G03X125000Y210157I-5000J0D01*G01*
X135000D02*G75*G03X145000Y210157I5000J0D01*G01*
G75*G03X135000Y210157I-5000J0D01*G01*
X184724Y208858D02*G75*G02X172809Y208858I-5958J0D01*G01*
G75*G02X184724Y208858I5958J0D01*G01*
X38500Y228021D02*X43068D01*
Y228781D01*
X42688Y229543D01*
X42308Y229925D01*
X41546Y230303D01*
X40404D01*
X39640Y229925D01*
X38878Y229163D01*
X38500Y228021D01*
Y227257D01*
X38878Y226115D01*
X39640Y225353D01*
X40404Y224971D01*
X41546D01*
X42308Y225353D01*
X43068Y226115D01*
X45468Y230303D02*Y224971D01*
Y228017D02*X45848Y229163D01*
X46612Y229923D01*
X47372Y230303D01*
X48516D01*
X51296Y230321D02*Y224989D01*
X50916Y232989D02*X51296Y232607D01*
X51678Y232989D01*
X51296Y233369D01*
X50916Y232989D01*
X58650Y229163D02*X57886Y229925D01*
X57126Y230303D01*
X55982D01*
X55222Y229925D01*
X54458Y229163D01*
X54078Y228021D01*
Y227257D01*
X54458Y226115D01*
X55222Y225353D01*
X55982Y224971D01*
X57126D01*
X57886Y225353D01*
X58650Y226115D01*
X61050Y232969D02*Y224969D01*
Y228779D02*X62190Y229923D01*
X62954Y230303D01*
X64096D01*
X64858Y229923D01*
X65240Y228779D01*
Y224969D01*
X67640Y232969D02*X70686Y224969D01*
X73736Y232969D02*X70686Y224969D01*
X76136Y232969D02*Y224969D01*
X81468Y232969D02*X76136Y227635D01*
X78040Y229539D02*X81468Y224969D01*
X88440Y232969D02*X84630D01*
X84248Y229543D01*
X84630Y229921D01*
X85772Y230303D01*
X86916D01*
X88058Y229921D01*
X88820Y229161D01*
X89202Y228017D01*
Y227257D01*
X88820Y226113D01*
X88058Y225351D01*
X86916Y224969D01*
X85772D01*
X84630Y225351D01*
X84248Y225733D01*
X83868Y226493D01*
X91602Y228969D02*X96602D01*
X103190Y229163D02*X102810Y229923D01*
X101666Y230303D01*
X100524D01*
X99380Y229923D01*
X99002Y229163D01*
X99380Y228399D01*
X100142Y228017D01*
X102048Y227637D01*
X102810Y227257D01*
X103190Y226495D01*
Y226113D01*
X102810Y225353D01*
X101666Y224971D01*
X100524D01*
X99380Y225353D01*
X99002Y226113D01*
X105590Y230303D02*Y226495D01*
X105970Y225353D01*
X106734Y224971D01*
X107876D01*
X108638Y225353D01*
X109780Y226495D01*
Y230303D02*Y224971D01*
X116370Y230303D02*X112180Y224971D01*
Y230303D02*X116370D01*
X112180Y224971D02*X116370D01*
X119150Y230303D02*X121436Y224971D01*
X123722Y230303D02*X121436Y224971D01*
X120674Y223449D01*
X119914Y222685D01*
X119150Y222303D01*
X118770D01*
X126122Y228969D02*X131122D01*
X135806Y232969D02*X135046Y232587D01*
X134282Y231825D01*
X133902Y231065D01*
X133522Y229921D01*
Y228017D01*
X133902Y226873D01*
X134282Y226111D01*
X135046Y225351D01*
X135806Y224969D01*
X137332D01*
X138092Y225351D01*
X138854Y226111D01*
X139236Y226873D01*
X139616Y228017D01*
Y229921D01*
X139236Y231065D01*
X138854Y231825D01*
X138092Y232587D01*
X137332Y232969D01*
X135806D01*
X136950Y226493D02*X139236Y224207D01*
X142016Y228969D02*X147016D01*
X149416Y230303D02*X151700Y224971D01*
X153984Y230303D02*X151700Y224971D01*
X156384Y231447D02*X157144Y231827D01*
X158288Y232969D01*
Y224969D01*
G54D51*X120761Y208096D02*X121161Y208496D01*
X120761Y206896D02*Y208096D01*
X121161Y206496D02*X120761Y206896D01*
X121161Y206496D02*X121961D01*
X122361Y206896D01*
Y208096D01*
X122761Y208496D01*
X123561D01*
X123961Y208096D02*X123561Y208496D01*
X123961Y206896D02*Y208096D01*
X123561Y206496D02*X123961Y206896D01*
X120761Y211056D02*X121161Y211456D01*
X120761Y209856D02*Y211056D01*
X121161Y209456D02*X120761Y209856D01*
X121161Y209456D02*X123561D01*
X123961Y209856D01*
Y211056D01*
X123561Y211456D01*
X122761D02*X123561D01*
X122361Y211056D02*X122761Y211456D01*
X122361Y210256D02*Y211056D01*
X120761Y212416D02*X123961D01*
X120761D02*X123961Y214416D01*
X120761D02*X123961D01*
X120761Y215776D02*X123961D01*
X120761Y216816D02*X121321Y217376D01*
X123401D01*
X123961Y216816D02*X123401Y217376D01*
X123961Y215376D02*Y216816D01*
X120761Y215376D02*Y216816D01*
Y197466D02*X121161Y197866D01*
X120761Y196266D02*Y197466D01*
X121161Y195866D02*X120761Y196266D01*
X121161Y195866D02*X123561D01*
X123961Y196266D01*
Y197466D01*
X123561Y197866D01*
X122761D02*X123561D01*
X122361Y197466D02*X122761Y197866D01*
X122361Y196666D02*Y197466D01*
X120761Y198826D02*X123961D01*
X120761D02*X123961Y200826D01*
X120761D02*X123961D01*
X120761Y202186D02*X123961D01*
X120761Y203226D02*X121321Y203786D01*
X123401D01*
X123961Y203226D02*X123401Y203786D01*
X123961Y201786D02*Y203226D01*
X120761Y201786D02*Y203226D01*
X145957Y208490D02*X146357Y208890D01*
X145957Y207290D02*Y208490D01*
X146357Y206890D02*X145957Y207290D01*
X146357Y206890D02*X147157D01*
X147557Y207290D01*
Y208490D01*
X147957Y208890D01*
X148757D01*
X149157Y208490D02*X148757Y208890D01*
X149157Y207290D02*Y208490D01*
X148757Y206890D02*X149157Y207290D01*
X145957Y211450D02*X146357Y211850D01*
X145957Y210250D02*Y211450D01*
X146357Y209850D02*X145957Y210250D01*
X146357Y209850D02*X148757D01*
X149157Y210250D01*
Y211450D01*
X148757Y211850D01*
X147957D02*X148757D01*
X147557Y211450D02*X147957Y211850D01*
X147557Y210650D02*Y211450D01*
X145957Y212810D02*X149157D01*
X145957D02*X149157Y214810D01*
X145957D02*X149157D01*
X145957Y216170D02*X149157D01*
X145957Y217210D02*X146517Y217770D01*
X148597D01*
X149157Y217210D02*X148597Y217770D01*
X149157Y215770D02*Y217210D01*
X145957Y215770D02*Y217210D01*
Y197860D02*X146357Y198260D01*
X145957Y196660D02*Y197860D01*
X146357Y196260D02*X145957Y196660D01*
X146357Y196260D02*X148757D01*
X149157Y196660D01*
Y197860D01*
X148757Y198260D01*
X147957D02*X148757D01*
X147557Y197860D02*X147957Y198260D01*
X147557Y197060D02*Y197860D01*
X145957Y199220D02*X149157D01*
X145957D02*X149157Y201220D01*
X145957D02*X149157D01*
X145957Y202580D02*X149157D01*
X145957Y203620D02*X146517Y204180D01*
X148597D01*
X149157Y203620D02*X148597Y204180D01*
X149157Y202180D02*Y203620D01*
X145957Y202180D02*Y203620D01*
X101470Y209947D02*X102270D01*
Y206447D01*
X101770Y205947D02*X102270Y206447D01*
X101270Y205947D02*X101770D01*
X100770Y206447D02*X101270Y205947D01*
X100770Y206447D02*Y206947D01*
X103470Y209947D02*Y205947D01*
Y209947D02*X104970Y207947D01*
X106470Y209947D01*
Y205947D01*
X108170Y209947D02*Y205947D01*
X107670Y209947D02*X109670D01*
X110170Y209447D01*
Y208447D01*
X109670Y207947D02*X110170Y208447D01*
X108170Y207947D02*X109670D01*
X111370Y209447D02*X111870Y209947D01*
X112870D01*
X113370Y209447D01*
X112870Y205947D02*X113370Y206447D01*
X111870Y205947D02*X112870D01*
X111370Y206447D02*X111870Y205947D01*
Y208147D02*X112870D01*
X113370Y209447D02*Y208647D01*
Y207647D02*Y206447D01*
Y207647D02*X112870Y208147D01*
X113370Y208647D02*X112870Y208147D01*
X72100Y156069D02*Y154269D01*
Y156069D02*X72700Y156669D01*
X73300D01*
X73900Y156069D01*
Y154269D01*
Y156069D02*X74500Y156669D01*
X75100D01*
X75700Y156069D01*
Y154269D01*
X71500Y156669D02*X72100Y156069D01*
X78940Y156669D02*X79540Y156069D01*
X77740Y156669D02*X78940D01*
X77140Y156069D02*X77740Y156669D01*
X77140Y156069D02*Y154869D01*
X77740Y154269D01*
X79540Y156669D02*Y154869D01*
X80140Y154269D01*
X77740D02*X78940D01*
X79540Y154869D01*
X83980Y159069D02*Y154269D01*
X83380D02*X83980Y154869D01*
X82180Y154269D02*X83380D01*
X81580Y154869D02*X82180Y154269D01*
X81580Y156069D02*Y154869D01*
Y156069D02*X82180Y156669D01*
X83380D01*
X83980Y156069D01*
X86020Y154269D02*X87820D01*
X85420Y154869D02*X86020Y154269D01*
X85420Y156069D02*Y154869D01*
Y156069D02*X86020Y156669D01*
X87220D01*
X87820Y156069D01*
X85420Y155469D02*X87820D01*
Y156069D01*
X91420Y156669D02*Y154869D01*
X92020Y154269D01*
X92620D01*
X93220Y154869D01*
Y156669D02*Y154869D01*
X93820Y154269D01*
X94420D01*
X95020Y154869D01*
Y156669D02*Y154869D01*
X96460Y157869D02*Y157749D01*
Y156069D02*Y154269D01*
X98260Y159069D02*Y154869D01*
X98860Y154269D01*
X97660Y157269D02*X98860D01*
X100060Y159069D02*Y154269D01*
Y156069D02*X100660Y156669D01*
X101860D01*
X102460Y156069D01*
Y154269D01*
X123961Y187598D02*Y189198D01*
X123561Y189598D01*
X122601D02*X123561D01*
X122201Y189198D02*X122601Y189598D01*
X122201Y187998D02*Y189198D01*
X120761Y187998D02*X123961D01*
X120761Y187598D02*Y189198D01*
X121161Y189598D01*
X121801D01*
X122201Y189198D02*X121801Y189598D01*
X121161Y190558D02*X120761Y190958D01*
Y192158D01*
X121161Y192558D01*
X121961D01*
X123961Y190558D02*X121961Y192558D01*
X123961Y190558D02*Y192558D01*
X146757Y176969D02*X149157D01*
X146757D02*X145957Y177529D01*
Y178409D01*
X146757Y178969D01*
X149157D01*
X147557Y176969D02*Y178969D01*
X146597Y179929D02*X145957Y180569D01*
X149157D01*
Y179929D02*Y181129D01*
X148757Y182089D02*X149157Y182489D01*
X146357Y182089D02*X148757D01*
X146357D02*X145957Y182489D01*
Y183289D01*
X146357Y183689D01*
X148757D01*
X149157Y183289D02*X148757Y183689D01*
X149157Y182489D02*Y183289D01*
X148357Y182089D02*X146757Y183689D01*
X94898Y190724D02*Y188724D01*
X94398Y188224D01*
X93398D01*
X92898Y188724D02*X93398Y188224D01*
X92898Y190224D02*Y188724D01*
X94898Y190224D02*X90898D01*
X92898Y189424D02*X90898Y188224D01*
X94398Y187024D02*X94898Y186524D01*
Y185024D01*
X94398Y184524D01*
X93398D01*
X90898Y187024D02*X93398Y184524D01*
X90898Y187024D02*Y184524D01*
X145957Y165748D02*X149157Y166548D01*
X145957Y167348D01*
X149157Y168868D02*Y169908D01*
X148597Y168308D02*X149157Y168868D01*
X146517Y168308D02*X148597D01*
X146517D02*X145957Y168868D01*
Y169908D01*
X149157Y171428D02*Y172468D01*
X148597Y170868D02*X149157Y171428D01*
X146517Y170868D02*X148597D01*
X146517D02*X145957Y171428D01*
Y172468D01*
X146757Y187008D02*X149157D01*
X146757D02*X145957Y187568D01*
Y188448D01*
X146757Y189008D01*
X149157D01*
X147557Y187008D02*Y189008D01*
X146597Y189968D02*X145957Y190608D01*
X149157D01*
Y189968D02*Y191168D01*
X146597Y192128D02*X145957Y192768D01*
X149157D01*
Y192128D02*Y193328D01*
X146757Y157087D02*X149157D01*
X146757D02*X145957Y157647D01*
Y158527D01*
X146757Y159087D01*
X149157D01*
X147557Y157087D02*Y159087D01*
X148757Y160047D02*X149157Y160447D01*
X148117Y160047D02*X148757D01*
X148117D02*X147557Y160607D01*
Y161087D01*
X148117Y161647D01*
X148757D01*
X149157Y161247D02*X148757Y161647D01*
X149157Y160447D02*Y161247D01*
X146997Y160047D02*X147557Y160607D01*
X146357Y160047D02*X146997D01*
X146357D02*X145957Y160447D01*
Y161247D01*
X146357Y161647D01*
X146997D01*
X147557Y161087D02*X146997Y161647D01*
X5939Y143618D02*Y140118D01*
X6439Y139618D01*
X5439Y142118D02*X6439D01*
X7939Y143618D02*Y140118D01*
X8439Y139618D01*
X7439Y142118D02*X8439D01*
X9439Y141618D02*Y140118D01*
X9939Y139618D01*
X11439Y141618D02*Y138618D01*
X10939Y138118D02*X11439Y138618D01*
X9939Y138118D02*X10939D01*
X9439Y138618D02*X9939Y138118D01*
Y139618D02*X10939D01*
X11439Y140118D01*
X12639Y143618D02*Y140118D01*
X13139Y139618D01*
X14139D01*
X14639Y140118D01*
Y143618D02*Y140118D01*
X17839Y143618D02*X18339Y143118D01*
X16339Y143618D02*X17839D01*
X15839Y143118D02*X16339Y143618D01*
X15839Y143118D02*Y142118D01*
X16339Y141618D01*
X17839D01*
X18339Y141118D01*
Y140118D01*
X17839Y139618D02*X18339Y140118D01*
X16339Y139618D02*X17839D01*
X15839Y140118D02*X16339Y139618D01*
X19539D02*X21539D01*
X22039Y140118D01*
Y141318D02*Y140118D01*
X21539Y141818D02*X22039Y141318D01*
X20039Y141818D02*X21539D01*
X20039Y143618D02*Y139618D01*
X19539Y143618D02*X21539D01*
X22039Y143118D01*
Y142318D01*
X21539Y141818D02*X22039Y142318D01*
X23239Y142818D02*X24039Y143618D01*
Y139618D01*
X23239D02*X24739D01*
X5500Y161618D02*Y158118D01*
X6000Y157618D01*
X5000Y160118D02*X6000D01*
X7500Y161618D02*Y158118D01*
X8000Y157618D01*
X7000Y160118D02*X8000D01*
X9000Y159618D02*Y158118D01*
X9500Y157618D01*
X11000Y159618D02*Y156618D01*
X10500Y156118D02*X11000Y156618D01*
X9500Y156118D02*X10500D01*
X9000Y156618D02*X9500Y156118D01*
Y157618D02*X10500D01*
X11000Y158118D01*
X12200Y161618D02*Y158118D01*
X12700Y157618D01*
X13700D01*
X14200Y158118D01*
Y161618D02*Y158118D01*
X17400Y161618D02*X17900Y161118D01*
X15900Y161618D02*X17400D01*
X15400Y161118D02*X15900Y161618D01*
X15400Y161118D02*Y160118D01*
X15900Y159618D01*
X17400D01*
X17900Y159118D01*
Y158118D01*
X17400Y157618D02*X17900Y158118D01*
X15900Y157618D02*X17400D01*
X15400Y158118D02*X15900Y157618D01*
X19100D02*X21100D01*
X21600Y158118D01*
Y159318D02*Y158118D01*
X21100Y159818D02*X21600Y159318D01*
X19600Y159818D02*X21100D01*
X19600Y161618D02*Y157618D01*
X19100Y161618D02*X21100D01*
X21600Y161118D01*
Y160318D01*
X21100Y159818D02*X21600Y160318D01*
X22800Y158118D02*X23300Y157618D01*
X22800Y161118D02*Y158118D01*
Y161118D02*X23300Y161618D01*
X24300D01*
X24800Y161118D01*
Y158118D01*
X24300Y157618D02*X24800Y158118D01*
X23300Y157618D02*X24300D01*
X22800Y158618D02*X24800Y160618D01*
X71444Y191547D02*X72244D01*
Y188047D01*
X71744Y187547D02*X72244Y188047D01*
X71244Y187547D02*X71744D01*
X70744Y188047D02*X71244Y187547D01*
X70744Y188047D02*Y188547D01*
X73444Y191547D02*Y187547D01*
Y191547D02*X74944Y189547D01*
X76444Y191547D01*
Y187547D01*
X78144Y191547D02*Y187547D01*
X77644Y191547D02*X79644D01*
X80144Y191047D01*
Y190047D01*
X79644Y189547D02*X80144Y190047D01*
X78144Y189547D02*X79644D01*
X81344Y188047D02*X81844Y187547D01*
X81344Y191047D02*Y188047D01*
Y191047D02*X81844Y191547D01*
X82844D01*
X83344Y191047D01*
Y188047D01*
X82844Y187547D02*X83344Y188047D01*
X81844Y187547D02*X82844D01*
X81344Y188547D02*X83344Y190547D01*
X123961Y177559D02*Y179159D01*
X123561Y179559D01*
X122601D02*X123561D01*
X122201Y179159D02*X122601Y179559D01*
X122201Y177959D02*Y179159D01*
X120761Y177959D02*X123961D01*
X120761Y177559D02*Y179159D01*
X121161Y179559D01*
X121801D01*
X122201Y179159D02*X121801Y179559D01*
X121161Y180519D02*X120761Y180919D01*
Y181719D01*
X121161Y182119D01*
X123961Y181719D02*X123561Y182119D01*
X123961Y180919D02*Y181719D01*
X123561Y180519D02*X123961Y180919D01*
X122201D02*Y181719D01*
X121161Y182119D02*X121801D01*
X122601D02*X123561D01*
X122601D02*X122201Y181719D01*
X121801Y182119D02*X122201Y181719D01*
X120761Y165945D02*X123961Y166745D01*
X120761Y167545D01*
X123961Y169065D02*Y170105D01*
X123401Y168505D02*X123961Y169065D01*
X121321Y168505D02*X123401D01*
X121321D02*X120761Y169065D01*
Y170105D01*
X123961Y171625D02*Y172665D01*
X123401Y171065D02*X123961Y171625D01*
X121321Y171065D02*X123401D01*
X121321D02*X120761Y171625D01*
Y172665D01*
X123961Y157283D02*Y158883D01*
X123561Y159283D01*
X122601D02*X123561D01*
X122201Y158883D02*X122601Y159283D01*
X122201Y157683D02*Y158883D01*
X120761Y157683D02*X123961D01*
X120761Y157283D02*Y158883D01*
X121161Y159283D01*
X121801D01*
X122201Y158883D02*X121801Y159283D01*
X120761Y160243D02*Y161843D01*
Y160243D02*X122361D01*
X121961Y160643D01*
Y161443D01*
X122361Y161843D01*
X123561D01*
X123961Y161443D02*X123561Y161843D01*
X123961Y160643D02*Y161443D01*
X123561Y160243D02*X123961Y160643D01*
Y127756D02*Y129356D01*
X123561Y129756D01*
X122601D02*X123561D01*
X122201Y129356D02*X122601Y129756D01*
X122201Y128156D02*Y129356D01*
X120761Y128156D02*X123961D01*
X120761Y127756D02*Y129356D01*
X121161Y129756D01*
X121801D01*
X122201Y129356D02*X121801Y129756D01*
X123561Y130716D02*X123961Y131116D01*
X122921Y130716D02*X123561D01*
X122921D02*X122361Y131276D01*
Y131756D01*
X122921Y132316D01*
X123561D01*
X123961Y131916D02*X123561Y132316D01*
X123961Y131116D02*Y131916D01*
X121801Y130716D02*X122361Y131276D01*
X121161Y130716D02*X121801D01*
X121161D02*X120761Y131116D01*
Y131916D01*
X121161Y132316D01*
X121801D01*
X122361Y131756D02*X121801Y132316D01*
X120761Y137605D02*X123961D01*
X120761Y138645D02*X121321Y139205D01*
X123401D01*
X123961Y138645D02*X123401Y139205D01*
X123961Y137205D02*Y138645D01*
X120761Y137205D02*Y138645D01*
X122361Y140165D02*Y141765D01*
X120761Y147644D02*X123961D01*
X120761Y148684D02*X121321Y149244D01*
X123401D01*
X123961Y148684D02*X123401Y149244D01*
X123961Y147244D02*Y148684D01*
X120761Y147244D02*Y148684D01*
X122361Y150204D02*Y151804D01*
X121561Y151004D02*X123161D01*
X145957Y138589D02*X149157D01*
X145957Y139629D02*X146517Y140189D01*
X148597D01*
X149157Y139629D02*X148597Y140189D01*
X149157Y138189D02*Y139629D01*
X145957Y138189D02*Y139629D01*
X147557Y141149D02*Y142749D01*
X146757Y141949D02*X148357D01*
X145957Y148628D02*X149157D01*
X145957Y149668D02*X146517Y150228D01*
X148597D01*
X149157Y149668D02*X148597Y150228D01*
X149157Y148228D02*Y149668D01*
X145957Y148228D02*Y149668D01*
X147557Y151188D02*Y152788D01*
X158000Y110969D02*X160857D01*
X161429Y111160D01*
X161809Y111540D01*
X162000Y112112D01*
Y112492D01*
X161809Y113064D01*
X161429Y113445D01*
X160857Y113635D01*
X158000D01*
X158572Y117501D02*X158191Y117120D01*
X158000Y116549D01*
Y115787D01*
X158191Y115215D01*
X158572Y114835D01*
X158952D01*
X159334Y115024D01*
X159524Y115215D01*
X159714Y115597D01*
X160095Y116740D01*
X160286Y117120D01*
X160476Y117310D01*
X160857Y117501D01*
X161429D01*
X161809Y117120D01*
X162000Y116549D01*
Y115787D01*
X161809Y115215D01*
X161429Y114835D01*
X158000Y118701D02*X162000D01*
X158000D02*Y120415D01*
X158191Y120986D01*
X158381Y121177D01*
X158763Y121367D01*
X159143D01*
X159524Y121177D01*
X159715Y120986D01*
X159905Y120415D01*
Y118701D02*Y120415D01*
X160095Y120986D01*
X160286Y121177D01*
X160667Y121367D01*
X161238D01*
X161620Y121177D01*
X161809Y120986D01*
X162000Y120415D01*
Y118701D01*
X158952Y127224D02*X158572Y127033D01*
X158191Y126652D01*
X158000Y126272D01*
Y125509D01*
X158191Y125129D01*
X158572Y124747D01*
X158952Y124557D01*
X159524Y124367D01*
X160477D01*
X161048Y124557D01*
X161429Y124747D01*
X161809Y125129D01*
X162000Y125509D01*
Y126272D01*
X161809Y126652D01*
X161429Y127033D01*
X161048Y127224D01*
X159333Y130224D02*X161999Y131366D01*
X159333Y132508D02*X161999Y131366D01*
X158000Y134088D02*Y136183D01*
X159524Y135040D01*
Y135612D01*
X159713Y135992D01*
X159904Y136183D01*
X160476Y136374D01*
X160856D01*
X161428Y136183D01*
X161809Y135803D01*
X162000Y135231D01*
Y134660D01*
X161809Y134088D01*
X161618Y133898D01*
X161238Y133708D01*
X161700Y137764D02*X161891Y137574D01*
X162080Y137764D01*
X161891Y137954D01*
X161700Y137764D01*
X158761Y139154D02*X158571Y139534D01*
X158000Y140106D01*
X162000D01*
X158000Y143106D02*X162000D01*
X159904D02*X159523Y143487D01*
X159333Y143867D01*
Y144439D01*
X159523Y144819D01*
X159904Y145201D01*
X160475Y145392D01*
X160856D01*
X161427Y145201D01*
X161809Y144819D01*
X162000Y144439D01*
Y143867D01*
X161809Y143487D01*
X161427Y143106D01*
X159333Y146592D02*X161999D01*
X160476D02*X159903Y146782D01*
X159523Y147164D01*
X159333Y147544D01*
Y148116D01*
X160474Y149316D02*Y151600D01*
X160094D01*
X159713Y151410D01*
X159522Y151220D01*
X159333Y150839D01*
Y150268D01*
X159522Y149886D01*
X159903Y149505D01*
X160474Y149316D01*
X160856D01*
X161427Y149505D01*
X161808Y149886D01*
X161999Y150268D01*
Y150839D01*
X161808Y151220D01*
X161427Y151600D01*
X159333Y155086D02*X161999D01*
X159903D02*X159522Y154704D01*
X159333Y154324D01*
Y153752D01*
X159522Y153372D01*
X159903Y152990D01*
X160474Y152800D01*
X160856D01*
X161427Y152990D01*
X161808Y153372D01*
X161999Y153752D01*
Y154324D01*
X161808Y154704D01*
X161427Y155086D01*
X158000Y156286D02*X162000D01*
X159333Y158190D02*X161238Y156286D01*
X160475Y157047D02*X162000Y158381D01*
X159333Y160533D02*X159522Y160151D01*
X159903Y159770D01*
X160474Y159581D01*
X160856D01*
X161427Y159770D01*
X161808Y160151D01*
X161999Y160533D01*
Y161104D01*
X161808Y161485D01*
X161427Y161865D01*
X160856Y162056D01*
X160474D01*
X159903Y161865D01*
X159522Y161485D01*
X159333Y161104D01*
Y160533D01*
Y163256D02*X161237D01*
X161808Y163446D01*
X161999Y163828D01*
Y164399D01*
X161808Y164780D01*
X161237Y165351D01*
X159333D02*X161999D01*
X158000Y167123D02*X161238D01*
X161809Y167312D01*
X162000Y167694D01*
Y168075D01*
X159333Y166551D02*Y167884D01*
X158000Y171075D02*X162000D01*
X159904D02*X159523Y171456D01*
X159333Y171836D01*
Y172408D01*
X159523Y172788D01*
X159904Y173170D01*
X160475Y173361D01*
X160856D01*
X161427Y173170D01*
X161809Y172788D01*
X162000Y172408D01*
Y171836D01*
X161809Y171456D01*
X161427Y171075D01*
X159333Y175513D02*X159522Y175131D01*
X159903Y174750D01*
X160474Y174561D01*
X160856D01*
X161427Y174750D01*
X161808Y175131D01*
X161999Y175513D01*
Y176084D01*
X161808Y176465D01*
X161427Y176845D01*
X160856Y177036D01*
X160474D01*
X159903Y176845D01*
X159522Y176465D01*
X159333Y176084D01*
Y175513D01*
Y180522D02*X161999D01*
X159903D02*X159522Y180140D01*
X159333Y179760D01*
Y179188D01*
X159522Y178808D01*
X159903Y178426D01*
X160474Y178236D01*
X160856D01*
X161427Y178426D01*
X161808Y178808D01*
X161999Y179188D01*
Y179760D01*
X161808Y180140D01*
X161427Y180522D01*
X159333Y181722D02*X161999D01*
X160476D02*X159903Y181912D01*
X159523Y182294D01*
X159333Y182674D01*
Y183246D01*
X158000Y186730D02*X162000D01*
X159904D02*X159523Y186350D01*
X159333Y185969D01*
Y185398D01*
X159523Y185016D01*
X159904Y184635D01*
X160475Y184446D01*
X160856D01*
X161427Y184635D01*
X161809Y185016D01*
X162000Y185398D01*
Y185969D01*
X161809Y186350D01*
X161427Y186730D01*
X123961Y106693D02*Y108293D01*
X123561Y108693D01*
X122601D02*X123561D01*
X122201Y108293D02*X122601Y108693D01*
X122201Y107093D02*Y108293D01*
X120761Y107093D02*X123961D01*
X120761Y106693D02*Y108293D01*
X121161Y108693D01*
X121801D01*
X122201Y108293D02*X121801Y108693D01*
X121401Y109653D02*X120761Y110293D01*
X123961D01*
Y109653D02*Y110853D01*
X123561Y111813D02*X123961Y112213D01*
X121161Y111813D02*X123561D01*
X121161D02*X120761Y112213D01*
Y113013D01*
X121161Y113413D01*
X123561D01*
X123961Y113013D02*X123561Y113413D01*
X123961Y112213D02*Y113013D01*
X123161Y111813D02*X121561Y113413D01*
X120761Y115945D02*X123961Y116745D01*
X120761Y117545D01*
X123961Y119065D02*Y120105D01*
X123401Y118505D02*X123961Y119065D01*
X121321Y118505D02*X123401D01*
X121321D02*X120761Y119065D01*
Y120105D01*
X123961Y121625D02*Y122665D01*
X123401Y121065D02*X123961Y121625D01*
X121321Y121065D02*X123401D01*
X121321D02*X120761Y121625D01*
Y122665D01*
X146757Y107087D02*X149157D01*
X146757D02*X145957Y107647D01*
Y108527D01*
X146757Y109087D01*
X149157D01*
X147557Y107087D02*Y109087D01*
X146357Y110047D02*X145957Y110447D01*
Y111247D01*
X146357Y111647D01*
X149157Y111247D02*X148757Y111647D01*
X149157Y110447D02*Y111247D01*
X148757Y110047D02*X149157Y110447D01*
X147397D02*Y111247D01*
X146357Y111647D02*X146997D01*
X147797D02*X148757D01*
X147797D02*X147397Y111247D01*
X146997Y111647D02*X147397Y111247D01*
X145957Y115748D02*X149157Y116548D01*
X145957Y117348D01*
X149157Y118868D02*Y119908D01*
X148597Y118308D02*X149157Y118868D01*
X146517Y118308D02*X148597D01*
X146517D02*X145957Y118868D01*
Y119908D01*
X149157Y121428D02*Y122468D01*
X148597Y120868D02*X149157Y121428D01*
X146517Y120868D02*X148597D01*
X146517D02*X145957Y121428D01*
Y122468D01*
X146757Y127362D02*X149157D01*
X146757D02*X145957Y127922D01*
Y128802D01*
X146757Y129362D01*
X149157D01*
X147557Y127362D02*Y129362D01*
X145957Y130322D02*Y131922D01*
Y130322D02*X147557D01*
X147157Y130722D01*
Y131522D01*
X147557Y131922D01*
X148757D01*
X149157Y131522D02*X148757Y131922D01*
X149157Y130722D02*Y131522D01*
X148757Y130322D02*X149157Y130722D01*
X120761Y87624D02*X121161Y88024D01*
X120761Y86424D02*Y87624D01*
X121161Y86024D02*X120761Y86424D01*
X121161Y86024D02*X123561D01*
X123961Y86424D01*
Y87624D01*
X123561Y88024D01*
X122761D02*X123561D01*
X122361Y87624D02*X122761Y88024D01*
X122361Y86824D02*Y87624D01*
X120761Y88984D02*X123961D01*
X120761D02*X123961Y90984D01*
X120761D02*X123961D01*
X120761Y92344D02*X123961D01*
X120761Y93384D02*X121321Y93944D01*
X123401D01*
X123961Y93384D02*X123401Y93944D01*
X123961Y91944D02*Y93384D01*
X120761Y91944D02*Y93384D01*
X110594Y80594D02*X114094D01*
X114594Y81094D01*
Y82094D01*
X114094Y82594D01*
X110594D02*X114094D01*
X110594Y85794D02*X111094Y86294D01*
X110594Y84294D02*Y85794D01*
X111094Y83794D02*X110594Y84294D01*
X111094Y83794D02*X112094D01*
X112594Y84294D01*
Y85794D01*
X113094Y86294D01*
X114094D01*
X114594Y85794D02*X114094Y86294D01*
X114594Y84294D02*Y85794D01*
X114094Y83794D02*X114594Y84294D01*
Y87494D02*Y89494D01*
X114094Y89994D01*
X112894D02*X114094D01*
X112394Y89494D02*X112894Y89994D01*
X112394Y87994D02*Y89494D01*
X110594Y87994D02*X114594D01*
X110594Y87494D02*Y89494D01*
X111094Y89994D01*
X111894D01*
X112394Y89494D02*X111894Y89994D01*
X114594Y91894D02*Y93194D01*
X113894Y91194D02*X114594Y91894D01*
X111294Y91194D02*X113894D01*
X111294D02*X110594Y91894D01*
Y93194D01*
X94898Y119465D02*Y117465D01*
X94398Y116965D01*
X93398D01*
X92898Y117465D02*X93398Y116965D01*
X92898Y118965D02*Y117465D01*
X94898Y118965D02*X90898D01*
X92898Y118165D02*X90898Y116965D01*
X94098Y115765D02*X94898Y114965D01*
X90898D01*
Y115765D02*Y114265D01*
X65784Y75969D02*Y71969D01*
Y74065D02*X65404Y74446D01*
X65023Y74636D01*
X64452D01*
X64070Y74446D01*
X63689Y74065D01*
X63500Y73494D01*
Y73113D01*
X63689Y72542D01*
X64070Y72160D01*
X64452Y71969D01*
X65023D01*
X65404Y72160D01*
X65784Y72542D01*
X66984Y73495D02*X69268D01*
Y73875D01*
X69078Y74256D01*
X68888Y74447D01*
X68507Y74636D01*
X67936D01*
X67554Y74447D01*
X67173Y74066D01*
X66984Y73495D01*
Y73113D01*
X67173Y72542D01*
X67554Y72161D01*
X67936Y71970D01*
X68507D01*
X68888Y72161D01*
X69268Y72542D01*
X72562Y74066D02*X72372Y74446D01*
X71800Y74636D01*
X71229D01*
X70657Y74446D01*
X70468Y74066D01*
X70657Y73684D01*
X71038Y73493D01*
X71991Y73303D01*
X72372Y73113D01*
X72562Y72732D01*
Y72541D01*
X72372Y72161D01*
X71800Y71970D01*
X71229D01*
X70657Y72161D01*
X70468Y72541D01*
X73952Y74645D02*Y71979D01*
X73762Y75979D02*X73952Y75788D01*
X74143Y75979D01*
X73952Y76169D01*
X73762Y75979D01*
X77629Y74636D02*Y71590D01*
X77438Y71018D01*
X77247Y70827D01*
X76867Y70638D01*
X76295D01*
X75915Y70827D01*
X77629Y74066D02*X77247Y74447D01*
X76867Y74636D01*
X76295D01*
X75915Y74447D01*
X75533Y74066D01*
X75343Y73495D01*
Y73113D01*
X75533Y72542D01*
X75915Y72161D01*
X76295Y71970D01*
X76867D01*
X77247Y72161D01*
X77629Y72542D01*
X78829Y74636D02*Y71970D01*
Y73875D02*X79401Y74447D01*
X79781Y74636D01*
X80353D01*
X80733Y74447D01*
X80924Y73875D01*
Y71970D01*
X83924Y75969D02*Y71969D01*
X85314Y74645D02*Y71979D01*
X85124Y75979D02*X85314Y75788D01*
X85505Y75979D01*
X85314Y76169D01*
X85124Y75979D01*
X88991Y74066D02*X88609Y74447D01*
X88229Y74636D01*
X87657D01*
X87277Y74447D01*
X86895Y74066D01*
X86705Y73495D01*
Y73113D01*
X86895Y72542D01*
X87277Y72161D01*
X87657Y71970D01*
X88229D01*
X88609Y72161D01*
X88991Y72542D01*
X90191Y73495D02*X92475D01*
Y73875D01*
X92285Y74256D01*
X92095Y74447D01*
X91714Y74636D01*
X91143D01*
X90761Y74447D01*
X90380Y74066D01*
X90191Y73495D01*
Y73113D01*
X90380Y72542D01*
X90761Y72161D01*
X91143Y71970D01*
X91714D01*
X92095Y72161D01*
X92475Y72542D01*
X93675Y74636D02*Y71970D01*
Y73875D02*X94247Y74447D01*
X94627Y74636D01*
X95199D01*
X95579Y74447D01*
X95770Y73875D01*
Y71970D01*
X99256Y74066D02*X98874Y74447D01*
X98494Y74636D01*
X97922D01*
X97542Y74447D01*
X97160Y74066D01*
X96970Y73495D01*
Y73113D01*
X97160Y72542D01*
X97542Y72161D01*
X97922Y71970D01*
X98494D01*
X98874Y72161D01*
X99256Y72542D01*
X100456Y73495D02*X102740D01*
Y73875D01*
X102550Y74256D01*
X102360Y74447D01*
X101979Y74636D01*
X101408D01*
X101026Y74447D01*
X100645Y74066D01*
X100456Y73495D01*
Y73113D01*
X100645Y72542D01*
X101026Y72161D01*
X101408Y71970D01*
X101979D01*
X102360Y72161D01*
X102740Y72542D01*
X104130Y73569D02*X103940Y73378D01*
X104130Y73188D01*
X104320Y73378D01*
X104130Y73569D01*
Y72235D02*X103940Y72044D01*
X104130Y71855D01*
X104320Y72044D01*
X104130Y72235D01*
X109120Y74636D02*X109881Y71970D01*
X110643Y74636D02*X109881Y71970D01*
X110643Y74636D02*X111406Y71970D01*
X112167Y74636D02*X111406Y71970D01*
X113367Y74636D02*X114128Y71970D01*
X114890Y74636D02*X114128Y71970D01*
X114890Y74636D02*X115653Y71970D01*
X116414Y74636D02*X115653Y71970D01*
X117614Y74636D02*X118375Y71970D01*
X119137Y74636D02*X118375Y71970D01*
X119137Y74636D02*X119900Y71970D01*
X120661Y74636D02*X119900Y71970D01*
X122051Y72269D02*X121861Y72078D01*
X122051Y71889D01*
X122241Y72078D01*
X122051Y72269D01*
X124013Y75969D02*Y72731D01*
X124202Y72160D01*
X124584Y71969D01*
X124965D01*
X123441Y74636D02*X124774D01*
X128451D02*Y71970D01*
Y74066D02*X128069Y74447D01*
X127689Y74636D01*
X127117D01*
X126737Y74447D01*
X126355Y74066D01*
X126165Y73495D01*
Y73113D01*
X126355Y72542D01*
X126737Y72161D01*
X127117Y71970D01*
X127689D01*
X128069Y72161D01*
X128451Y72542D01*
X129651Y74636D02*Y70636D01*
Y74066D02*X130032Y74446D01*
X130412Y74636D01*
X130984D01*
X131365Y74446D01*
X131746Y74066D01*
X131937Y73493D01*
Y73113D01*
X131746Y72541D01*
X131365Y72161D01*
X130984Y71970D01*
X130412D01*
X130032Y72161D01*
X129651Y72541D01*
X133137Y74636D02*Y71970D01*
Y73493D02*X133327Y74066D01*
X133709Y74446D01*
X134089Y74636D01*
X134661D01*
X136051Y72269D02*X135861Y72078D01*
X136051Y71889D01*
X136241Y72078D01*
X136051Y72269D01*
X138393Y74636D02*X138011Y74447D01*
X137630Y74066D01*
X137441Y73495D01*
Y73113D01*
X137630Y72542D01*
X138011Y72161D01*
X138393Y71970D01*
X138964D01*
X139345Y72161D01*
X139725Y72542D01*
X139916Y73113D01*
Y73495D01*
X139725Y74066D01*
X139345Y74447D01*
X138964Y74636D01*
X138393D01*
X141116D02*Y71970D01*
Y73493D02*X141306Y74066D01*
X141688Y74446D01*
X142068Y74636D01*
X142640D01*
X146126D02*Y71590D01*
X145935Y71018D01*
X145744Y70827D01*
X145364Y70638D01*
X144792D01*
X144412Y70827D01*
X146126Y74066D02*X145744Y74447D01*
X145364Y74636D01*
X144792D01*
X144412Y74447D01*
X144030Y74066D01*
X143840Y73495D01*
Y73113D01*
X144030Y72542D01*
X144412Y72161D01*
X144792Y71970D01*
X145364D01*
X145744Y72161D01*
X146126Y72542D01*
X149577Y75969D02*X147326Y71969D01*
X151919Y75969D02*X151539Y75778D01*
X151157Y75397D01*
X150967Y75017D01*
X150777Y74445D01*
Y73493D01*
X150967Y72920D01*
Y72921D02*X151157Y72540D01*
X151539Y72160D01*
X151919Y71969D01*
X152682D01*
X153062Y72160D01*
X153443Y72540D01*
X153634Y72921D01*
X153823Y73493D01*
Y74445D01*
X153634Y75017D01*
X153443Y75397D01*
X153062Y75778D01*
X152682Y75969D01*
X151919D01*
X155023D02*Y71969D01*
X157690D02*Y75969D01*
X155023Y74064D02*X157690D01*
X158890Y75969D02*Y71969D01*
X161175D01*
X123961Y97441D02*Y99041D01*
X123561Y99441D01*
X122601D02*X123561D01*
X122201Y99041D02*X122601Y99441D01*
X122201Y97841D02*Y99041D01*
X120761Y97841D02*X123961D01*
X120761Y97441D02*Y99041D01*
X121161Y99441D01*
X121801D01*
X122201Y99041D02*X121801Y99441D01*
X121401Y100401D02*X120761Y101041D01*
X123961D01*
Y100401D02*Y101601D01*
X121401Y102561D02*X120761Y103201D01*
X123961D01*
Y102561D02*Y103761D01*
X145811Y87724D02*X146236Y88149D01*
X145811Y86449D02*Y87724D01*
X146236Y86024D02*X145811Y86449D01*
X146236Y86024D02*X148786D01*
X149211Y86449D01*
Y87724D01*
X148786Y88149D01*
X147936D02*X148786D01*
X147511Y87724D02*X147936Y88149D01*
X147511Y86874D02*Y87724D01*
X145811Y89169D02*X149211D01*
X145811D02*X149211Y91294D01*
X145811D02*X149211D01*
X145811Y92739D02*X149211D01*
X145811Y93844D02*X146406Y94439D01*
X148616D01*
X149211Y93844D02*X148616Y94439D01*
X149211Y92314D02*Y93844D01*
X145811Y92314D02*Y93844D01*
X146757Y97441D02*X149157D01*
X146757D02*X145957Y98001D01*
Y98881D01*
X146757Y99441D01*
X149157D01*
X147557Y97441D02*Y99441D01*
X146357Y100401D02*X145957Y100801D01*
Y102001D01*
X146357Y102401D01*
X147157D01*
X149157Y100401D02*X147157Y102401D01*
X149157Y100401D02*Y102401D01*
X71641Y120681D02*X72441D01*
Y117181D01*
X71941Y116681D02*X72441Y117181D01*
X71441Y116681D02*X71941D01*
X70941Y117181D02*X71441Y116681D01*
X70941Y117181D02*Y117681D01*
X73641Y120681D02*Y116681D01*
Y120681D02*X75141Y118681D01*
X76641Y120681D01*
Y116681D01*
X78341Y120681D02*Y116681D01*
X77841Y120681D02*X79841D01*
X80341Y120181D01*
Y119181D01*
X79841Y118681D02*X80341Y119181D01*
X78341Y118681D02*X79841D01*
X81541Y119881D02*X82341Y120681D01*
Y116681D01*
X81541D02*X83041D01*
M02*
