G04 start of page 2 for group 12 layer_idx 7 *
G04 Title: (unknown), bottom_silk *
G04 Creator: pcb-rnd 3.1.0-dev *
G04 CreationDate: 2023-01-29 01:50:48 UTC *
G04 For: tonia *
G04 Format: Gerber/RS-274X *
G04 PCB-Dimensions: 236220 236220 *
G04 PCB-Coordinate-Origin: lower left *
%MOIN*%
%FSLAX25Y25*%
%LNBOTTOM_SILK_NONE_12*%
%ADD53C,0.0070*%
%ADD52C,0.0100*%
G54D52*X125000Y175169D02*X145000D01*
X125000Y195146D02*X145000D01*
X125000Y205169D02*X145000D01*
Y215169D02*Y195146D01*
Y205157D02*X125000D01*
X145000Y155169D02*X125000D01*
X135011Y175157D02*Y115180D01*
X145000Y135169D02*X125000D01*
X145000Y165169D02*X125000D01*
X145000Y125169D02*X125000D01*
X145011Y175157D02*Y115157D01*
X124989Y135157D02*Y115157D01*
X135011Y115180D02*X135000Y115169D01*
X145000Y145169D02*X135000D01*
X135011Y175157D02*X135000Y175169D01*
X125000Y215169D02*X145000D01*
X117402Y210787D02*X192362D01*
X125000Y195146D02*Y215169D01*
X135000Y195146D02*Y215169D01*
X134989Y95157D02*Y85169D01*
X145011Y115157D02*X145000Y115146D01*
X125000D02*X145000D01*
X125000Y95169D02*X145000D01*
X125000D02*Y85146D01*
X145000Y95169D02*Y85146D01*
X125000Y75157D02*Y205157D01*
Y75157D02*X145000D01*
Y205157D02*Y75157D01*
X125000Y85146D02*X145000D01*
X117402Y70236D02*X192283D01*
X124989Y175157D02*Y155157D01*
X117402Y210787D02*Y70236D01*
X125000Y120157D02*G75*G03X135000Y120157I5000J0D01*G01*
G75*G03X125000Y120157I-5000J0D01*G01*
X135000Y130157D02*G75*G03X145000Y130157I5000J0D01*G01*
G75*G03X135000Y130157I-5000J0D01*G01*
X125000D02*G75*G03X135000Y130157I5000J0D01*G01*
G75*G03X125000Y130157I-5000J0D01*G01*
X135000Y140157D02*G75*G03X145000Y140157I5000J0D01*G01*
G75*G03X135000Y140157I-5000J0D01*G01*
X125000Y90157D02*G75*G03X135000Y90157I5000J0D01*G01*
G75*G03X125000Y90157I-5000J0D01*G01*
X135000D02*G75*G03X145000Y90157I5000J0D01*G01*
G75*G03X135000Y90157I-5000J0D01*G01*
Y120157D02*G75*G03X145000Y120157I5000J0D01*G01*
G75*G03X135000Y120157I-5000J0D01*G01*
Y150157D02*G75*G03X145000Y150157I5000J0D01*G01*
G75*G03X135000Y150157I-5000J0D01*G01*
X125000Y160157D02*G75*G03X135000Y160157I5000J0D01*G01*
G75*G03X125000Y160157I-5000J0D01*G01*
Y170157D02*G75*G03X135000Y170157I5000J0D01*G01*
G75*G03X125000Y170157I-5000J0D01*G01*
Y200157D02*G75*G03X135000Y200157I5000J0D01*G01*
G75*G03X125000Y200157I-5000J0D01*G01*
Y210157D02*G75*G03X135000Y210157I5000J0D01*G01*
G75*G03X125000Y210157I-5000J0D01*G01*
X135000Y160157D02*G75*G03X145000Y160157I5000J0D01*G01*
G75*G03X135000Y160157I-5000J0D01*G01*
Y170157D02*G75*G03X145000Y170157I5000J0D01*G01*
G75*G03X135000Y170157I-5000J0D01*G01*
Y200157D02*G75*G03X145000Y200157I5000J0D01*G01*
G75*G03X135000Y200157I-5000J0D01*G01*
Y210157D02*G75*G03X145000Y210157I5000J0D01*G01*
G75*G03X135000Y210157I-5000J0D01*G01*
G54D53*X59945Y137835D02*X55945D01*
X59945D02*Y139549D01*
X59754Y140120D01*
X59564Y140311D01*
X59183Y140501D01*
X58802D01*
X58421Y140311D01*
X58231Y140120D01*
X58040Y139549D01*
Y137835D01*
Y139168D02*X55945Y140501D01*
X58993Y141891D02*X59184D01*
X59564Y142082D01*
X59755Y142271D01*
X59945Y142653D01*
Y143414D01*
X59755Y143796D01*
X59564Y143986D01*
X59184Y144176D01*
X58802D01*
X58421Y143986D01*
X57850Y143605D01*
X55945Y141701D01*
Y144367D01*
X57545Y145757D02*X57354Y145567D01*
X57164Y145757D01*
X57354Y145947D01*
X57545Y145757D01*
X56211D02*X56020Y145567D01*
X55831Y145757D01*
X56020Y145947D01*
X56211Y145757D01*
X59945Y154833D02*Y152928D01*
X58232Y152737D01*
X58421Y152928D01*
X58612Y153499D01*
Y154071D01*
X58421Y154642D01*
X58041Y155023D01*
X57469Y155214D01*
X57089D01*
X56517Y155023D01*
X56136Y154642D01*
X55945Y154071D01*
Y153499D01*
X56136Y152928D01*
X56327Y152737D01*
X56707Y152547D01*
X59374Y158699D02*X59755Y158509D01*
X59945Y157937D01*
Y157557D01*
X59755Y156984D01*
X59184Y156604D01*
X58232Y156414D01*
X57279D01*
X56517Y156604D01*
X56136Y156984D01*
X55945Y157557D01*
Y157747D01*
X56136Y158318D01*
X56517Y158699D01*
X57089Y158889D01*
X57279D01*
X57850Y158699D01*
X58232Y158318D01*
X58421Y157747D01*
Y157557D01*
X58232Y156984D01*
X57850Y156604D01*
X57279Y156414D01*
X59945Y160089D02*X55945D01*
X58612Y161993D02*X56707Y160089D01*
X57470Y160850D02*X55945Y162184D01*
X25890Y80531D02*X22842D01*
X22270Y80341D01*
X22081Y80150D01*
X21890Y79769D01*
Y79389D01*
X22081Y79007D01*
X22270Y78817D01*
X22842Y78626D01*
X23223D01*
X25890Y81731D02*X21890D01*
X25890D02*X21890Y83254D01*
X25890Y84779D02*X21890Y83254D01*
X25890Y84779D02*X21890D01*
X25890Y85979D02*X21890D01*
X25890D02*Y87693D01*
X25699Y88264D01*
X25509Y88455D01*
X25128Y88645D01*
X24556D01*
X24176Y88455D01*
X23985Y88264D01*
X23795Y87693D01*
Y85979D01*
X25890Y90988D02*X25700Y90417D01*
X25129Y90035D01*
X24177Y89845D01*
X23605D01*
X22652Y90035D01*
X22081Y90417D01*
X21890Y90988D01*
Y91369D01*
X22081Y91940D01*
X22652Y92321D01*
X23605Y92512D01*
X24177D01*
X25129Y92321D01*
X25700Y91940D01*
X25890Y91369D01*
Y90988D01*
X23987Y97798D02*X24368Y97416D01*
X24557Y97036D01*
Y96464D01*
X24368Y96084D01*
X23987Y95702D01*
X23416Y95512D01*
X23034D01*
X22463Y95702D01*
X22082Y96084D01*
X21891Y96464D01*
Y97036D01*
X22082Y97416D01*
X22463Y97798D01*
X24557Y99950D02*X24368Y99568D01*
X23987Y99187D01*
X23416Y98998D01*
X23034D01*
X22463Y99187D01*
X22082Y99568D01*
X21891Y99950D01*
Y100521D01*
X22082Y100902D01*
X22463Y101282D01*
X23034Y101473D01*
X23416D01*
X23987Y101282D01*
X24368Y100902D01*
X24557Y100521D01*
Y99950D01*
Y102673D02*X21891D01*
X23796D02*X24368Y103243D01*
X24557Y103625D01*
Y104196D01*
X24368Y104577D01*
X23796Y104767D01*
X21891D01*
X23796D02*X24368Y105339D01*
X24557Y105719D01*
Y106291D01*
X24368Y106671D01*
X23796Y106862D01*
X21891D01*
X24557Y108062D02*X21891D01*
X23796D02*X24368Y108632D01*
X24557Y109014D01*
Y109585D01*
X24368Y109966D01*
X23796Y110156D01*
X21891D01*
X23796D02*X24368Y110728D01*
X24557Y111108D01*
Y111680D01*
X24368Y112060D01*
X23796Y112251D01*
X21891D01*
X24557Y114403D02*X24368Y114021D01*
X23987Y113640D01*
X23416Y113451D01*
X23034D01*
X22463Y113640D01*
X22082Y114021D01*
X21891Y114403D01*
Y114974D01*
X22082Y115355D01*
X22463Y115735D01*
X23034Y115926D01*
X23416D01*
X23987Y115735D01*
X24368Y115355D01*
X24557Y114974D01*
Y114403D01*
Y117126D02*X21891D01*
X23796D02*X24368Y117698D01*
X24557Y118078D01*
Y118650D01*
X24368Y119030D01*
X23796Y119221D01*
X21891D01*
X23987Y122515D02*X24367Y122325D01*
X24557Y121753D01*
Y121182D01*
X24367Y120610D01*
X23987Y120421D01*
X23605Y120610D01*
X23414Y120991D01*
X23224Y121944D01*
X23034Y122325D01*
X22653Y122515D01*
X22462D01*
X22082Y122325D01*
X21891Y121753D01*
Y121182D01*
X22082Y120610D01*
X22462Y120421D01*
X25890Y125515D02*X23033D01*
X22461Y125706D01*
X22081Y126086D01*
X21890Y126658D01*
Y127038D01*
X22081Y127610D01*
X22461Y127991D01*
X23033Y128181D01*
X25890D01*
X25318Y132047D02*X25699Y131666D01*
X25890Y131095D01*
Y130333D01*
X25699Y129761D01*
X25318Y129381D01*
X24938D01*
X24556Y129570D01*
X24366Y129761D01*
X24176Y130143D01*
X23795Y131286D01*
X23604Y131666D01*
X23414Y131856D01*
X23033Y132047D01*
X22461D01*
X22081Y131666D01*
X21890Y131095D01*
Y130333D01*
X22081Y129761D01*
X22461Y129381D01*
X25890Y133247D02*X21890D01*
X25890D02*Y134961D01*
X25699Y135532D01*
X25509Y135723D01*
X25127Y135913D01*
X24747D01*
X24366Y135723D01*
X24175Y135532D01*
X23985Y134961D01*
Y133247D02*Y134961D01*
X23795Y135532D01*
X23604Y135723D01*
X23223Y135913D01*
X22652D01*
X22270Y135723D01*
X22081Y135532D01*
X21890Y134961D01*
Y133247D01*
X24938Y139970D02*X25318Y139779D01*
X25699Y139398D01*
X25890Y139018D01*
Y138255D01*
X25699Y137875D01*
X25318Y137493D01*
X24938Y137303D01*
X24366Y137113D01*
X23413D01*
X22842Y137303D01*
X22461Y137493D01*
X22081Y137875D01*
X21890Y138255D01*
Y139018D01*
X22081Y139398D01*
X22461Y139779D01*
X22842Y139970D01*
X25890Y142970D02*X21890Y144493D01*
X25890Y146018D02*X21890Y144493D01*
X23987Y149504D02*X24368Y149122D01*
X24557Y148742D01*
Y148170D01*
X24368Y147790D01*
X23987Y147408D01*
X23416Y147218D01*
X23034D01*
X22463Y147408D01*
X22082Y147790D01*
X21891Y148170D01*
Y148742D01*
X22082Y149122D01*
X22463Y149504D01*
X23987Y152990D02*X24368Y152608D01*
X24557Y152228D01*
Y151656D01*
X24368Y151276D01*
X23987Y150894D01*
X23416Y150704D01*
X23034D01*
X22463Y150894D01*
X22082Y151276D01*
X21891Y151656D01*
Y152228D01*
X22082Y152608D01*
X22463Y152990D01*
X24557Y158276D02*X21891D01*
X23987D02*X24368Y157894D01*
X24557Y157514D01*
Y156942D01*
X24368Y156562D01*
X23987Y156180D01*
X23416Y155990D01*
X23034D01*
X22463Y156180D01*
X22082Y156562D01*
X21891Y156942D01*
Y157514D01*
X22082Y157894D01*
X22463Y158276D01*
X24557Y159476D02*X21891D01*
X23796D02*X24368Y160048D01*
X24557Y160428D01*
Y161000D01*
X24368Y161380D01*
X23796Y161571D01*
X21891D01*
X25890Y165055D02*X21890D01*
X23986D02*X24367Y164675D01*
X24557Y164294D01*
Y163723D01*
X24367Y163341D01*
X23986Y162960D01*
X23415Y162771D01*
X23034D01*
X22463Y162960D01*
X22081Y163341D01*
X21890Y163723D01*
Y164294D01*
X22081Y164675D01*
X22463Y165055D01*
X25890Y168627D02*X22652D01*
X22081Y168816D01*
X21890Y169198D01*
Y169579D01*
X24557Y168055D02*Y169388D01*
X25890Y171351D02*X22652D01*
X22081Y171540D01*
X21890Y171922D01*
Y172303D01*
X24557Y170779D02*Y172112D01*
Y173693D02*X21891Y174836D01*
X24557Y175979D02*X21891Y174836D01*
X21130Y174455D01*
X20748Y174075D01*
X20557Y173693D01*
Y173503D01*
X25890Y177179D02*X23033D01*
X22461Y177370D01*
X22081Y177750D01*
X21890Y178322D01*
Y178702D01*
X22081Y179274D01*
X22461Y179655D01*
X23033Y179845D01*
X25890D01*
X25318Y183711D02*X25699Y183330D01*
X25890Y182759D01*
Y181997D01*
X25699Y181425D01*
X25318Y181045D01*
X24938D01*
X24556Y181234D01*
X24366Y181425D01*
X24176Y181807D01*
X23795Y182950D01*
X23604Y183330D01*
X23414Y183520D01*
X23033Y183711D01*
X22461D01*
X22081Y183330D01*
X21890Y182759D01*
Y181997D01*
X22081Y181425D01*
X22461Y181045D01*
X25890Y184911D02*X21890D01*
X25890D02*Y186625D01*
X25699Y187196D01*
X25509Y187387D01*
X25127Y187577D01*
X24747D01*
X24366Y187387D01*
X24175Y187196D01*
X23985Y186625D01*
Y184911D02*Y186625D01*
X23795Y187196D01*
X23604Y187387D01*
X23223Y187577D01*
X22652D01*
X22270Y187387D01*
X22081Y187196D01*
X21890Y186625D01*
Y184911D01*
X25890Y189920D02*X25700Y189349D01*
X25129Y188967D01*
X24177Y188777D01*
X23605D01*
X22652Y188967D01*
X22081Y189349D01*
X21890Y189920D01*
Y190301D01*
X22081Y190872D01*
X22652Y191253D01*
X23605Y191444D01*
X24177D01*
X25129Y191253D01*
X25700Y190872D01*
X25890Y190301D01*
Y189920D01*
Y194444D02*X21890Y195967D01*
X25890Y197492D02*X21890Y195967D01*
X23987Y200978D02*X24368Y200596D01*
X24557Y200216D01*
Y199644D01*
X24368Y199264D01*
X23987Y198882D01*
X23416Y198692D01*
X23034D01*
X22463Y198882D01*
X22082Y199264D01*
X21891Y199644D01*
Y200216D01*
X22082Y200596D01*
X22463Y200978D01*
X23987Y204464D02*X24368Y204082D01*
X24557Y203702D01*
Y203130D01*
X24368Y202750D01*
X23987Y202368D01*
X23416Y202178D01*
X23034D01*
X22463Y202368D01*
X22082Y202750D01*
X21891Y203130D01*
Y203702D01*
X22082Y204082D01*
X22463Y204464D01*
X8278Y81192D02*X8659Y80811D01*
X8850Y80240D01*
Y79478D01*
X8659Y78906D01*
X8278Y78526D01*
X7898D01*
X7516Y78715D01*
X7326Y78906D01*
X7136Y79288D01*
X6755Y80431D01*
X6564Y80811D01*
X6374Y81001D01*
X5993Y81192D01*
X5421D01*
X5041Y80811D01*
X4850Y80240D01*
Y79478D01*
X5041Y78906D01*
X5421Y78526D01*
X7898Y85249D02*X8278Y85058D01*
X8659Y84678D01*
X8850Y84297D01*
Y83535D01*
X8659Y83154D01*
X8278Y82773D01*
X7898Y82583D01*
X7326Y82392D01*
X6373D01*
X5802Y82583D01*
X5421Y82773D01*
X5041Y83154D01*
X4850Y83535D01*
Y84297D01*
X5041Y84678D01*
X5421Y85058D01*
X5802Y85249D01*
X6373D01*
Y84297D02*Y85249D01*
X8850Y86449D02*X4850D01*
X8850D02*X4850Y89115D01*
X8850D02*X4850D01*
X8850Y90315D02*X4850D01*
X8850D02*Y91649D01*
X8659Y92220D01*
X8278Y92601D01*
X7898Y92791D01*
X7326Y92981D01*
X6373D01*
X5802Y92791D01*
X5421Y92601D01*
X5041Y92220D01*
X4850Y91649D01*
Y90315D01*
X8850Y94181D02*X4850D01*
X8850D02*X4850Y95704D01*
X8850Y97229D02*X4850Y95704D01*
X8850Y97229D02*X4850D01*
X8850Y100680D02*X4850Y98429D01*
X8850Y101880D02*X4850D01*
X8850D02*Y104355D01*
X6945Y101880D02*Y103403D01*
X6947Y109641D02*X7328Y109259D01*
X7517Y108879D01*
Y108307D01*
X7328Y107927D01*
X6947Y107545D01*
X6376Y107355D01*
X5994D01*
X5423Y107545D01*
X5042Y107927D01*
X4851Y108307D01*
Y108879D01*
X5042Y109259D01*
X5423Y109641D01*
X7517Y111793D02*X7328Y111411D01*
X6947Y111030D01*
X6376Y110841D01*
X5994D01*
X5423Y111030D01*
X5042Y111411D01*
X4851Y111793D01*
Y112364D01*
X5042Y112745D01*
X5423Y113125D01*
X5994Y113316D01*
X6376D01*
X6947Y113125D01*
X7328Y112745D01*
X7517Y112364D01*
Y111793D01*
Y114516D02*X4851D01*
X6756D02*X7328Y115086D01*
X7517Y115468D01*
Y116039D01*
X7328Y116420D01*
X6756Y116610D01*
X4851D01*
X6756D02*X7328Y117182D01*
X7517Y117562D01*
Y118134D01*
X7328Y118514D01*
X6756Y118705D01*
X4851D01*
X7517Y119905D02*X4851D01*
X6756D02*X7328Y120475D01*
X7517Y120857D01*
Y121428D01*
X7328Y121809D01*
X6756Y121999D01*
X4851D01*
X6756D02*X7328Y122571D01*
X7517Y122951D01*
Y123523D01*
X7328Y123903D01*
X6756Y124094D01*
X4851D01*
X7517Y126246D02*X7328Y125864D01*
X6947Y125483D01*
X6376Y125294D01*
X5994D01*
X5423Y125483D01*
X5042Y125864D01*
X4851Y126246D01*
Y126817D01*
X5042Y127198D01*
X5423Y127578D01*
X5994Y127769D01*
X6376D01*
X6947Y127578D01*
X7328Y127198D01*
X7517Y126817D01*
Y126246D01*
Y128969D02*X4851D01*
X6756D02*X7328Y129541D01*
X7517Y129921D01*
Y130493D01*
X7328Y130873D01*
X6756Y131064D01*
X4851D01*
X8850Y134064D02*X5993D01*
X5421Y134255D01*
X5041Y134635D01*
X4850Y135207D01*
Y135587D01*
X5041Y136159D01*
X5421Y136540D01*
X5993Y136730D01*
X8850D01*
X8278Y140596D02*X8659Y140215D01*
X8850Y139644D01*
Y138882D01*
X8659Y138310D01*
X8278Y137930D01*
X7898D01*
X7516Y138119D01*
X7326Y138310D01*
X7136Y138692D01*
X6755Y139835D01*
X6564Y140215D01*
X6374Y140405D01*
X5993Y140596D01*
X5421D01*
X5041Y140215D01*
X4850Y139644D01*
Y138882D01*
X5041Y138310D01*
X5421Y137930D01*
X8850Y141796D02*X4850D01*
X8850D02*Y143510D01*
X8659Y144081D01*
X8469Y144272D01*
X8087Y144462D01*
X7707D01*
X7326Y144272D01*
X7135Y144081D01*
X6945Y143510D01*
Y141796D02*Y143510D01*
X6755Y144081D01*
X6564Y144272D01*
X6183Y144462D01*
X5612D01*
X5230Y144272D01*
X5041Y144081D01*
X4850Y143510D01*
Y141796D01*
X7898Y148519D02*X8278Y148328D01*
X8659Y147947D01*
X8850Y147567D01*
Y146804D01*
X8659Y146424D01*
X8278Y146042D01*
X7898Y145852D01*
X7326Y145662D01*
X6373D01*
X5802Y145852D01*
X5421Y146042D01*
X5041Y146424D01*
X4850Y146804D01*
Y147567D01*
X5041Y147947D01*
X5421Y148328D01*
X5802Y148519D01*
X7898Y154376D02*X8278Y154185D01*
X8659Y153805D01*
X8850Y153424D01*
Y152662D01*
X8659Y152281D01*
X8278Y151900D01*
X7898Y151710D01*
X7326Y151519D01*
X6373D01*
X5802Y151710D01*
X5421Y151900D01*
X5041Y152281D01*
X4850Y152662D01*
Y153424D01*
X5041Y153805D01*
X5421Y154185D01*
X5802Y154376D01*
X6373D01*
Y153424D02*Y154376D01*
X8850Y155576D02*X4850D01*
X8850D02*X4850Y158242D01*
X8850D02*X4850D01*
X8850Y159442D02*X4850D01*
X8850D02*Y160776D01*
X8659Y161347D01*
X8278Y161728D01*
X7898Y161918D01*
X7326Y162108D01*
X6373D01*
X5802Y161918D01*
X5421Y161728D01*
X5041Y161347D01*
X4850Y160776D01*
Y159442D01*
X7517Y167394D02*X4851D01*
X6947D02*X7328Y167012D01*
X7517Y166632D01*
Y166060D01*
X7328Y165680D01*
X6947Y165298D01*
X6376Y165108D01*
X5994D01*
X5423Y165298D01*
X5042Y165680D01*
X4851Y166060D01*
Y166632D01*
X5042Y167012D01*
X5423Y167394D01*
X7517Y168594D02*X4851D01*
X6756D02*X7328Y169166D01*
X7517Y169546D01*
Y170118D01*
X7328Y170498D01*
X6756Y170689D01*
X4851D01*
X8850Y174173D02*X4850D01*
X6946D02*X7327Y173793D01*
X7517Y173412D01*
Y172841D01*
X7327Y172459D01*
X6946Y172078D01*
X6375Y171889D01*
X5994D01*
X5423Y172078D01*
X5041Y172459D01*
X4850Y172841D01*
Y173412D01*
X5041Y173793D01*
X5423Y174173D01*
X8850Y177173D02*X5993D01*
X5421Y177364D01*
X5041Y177744D01*
X4850Y178316D01*
Y178696D01*
X5041Y179268D01*
X5421Y179649D01*
X5993Y179839D01*
X8850D01*
X8278Y183705D02*X8659Y183324D01*
X8850Y182753D01*
Y181991D01*
X8659Y181419D01*
X8278Y181039D01*
X7898D01*
X7516Y181228D01*
X7326Y181419D01*
X7136Y181801D01*
X6755Y182944D01*
X6564Y183324D01*
X6374Y183514D01*
X5993Y183705D01*
X5421D01*
X5041Y183324D01*
X4850Y182753D01*
Y181991D01*
X5041Y181419D01*
X5421Y181039D01*
X8850Y184905D02*X4850D01*
X8850D02*Y186619D01*
X8659Y187190D01*
X8469Y187381D01*
X8087Y187571D01*
X7707D01*
X7326Y187381D01*
X7135Y187190D01*
X6945Y186619D01*
Y184905D02*Y186619D01*
X6755Y187190D01*
X6564Y187381D01*
X6183Y187571D01*
X5612D01*
X5230Y187381D01*
X5041Y187190D01*
X4850Y186619D01*
Y184905D01*
X7898Y191628D02*X8278Y191437D01*
X8659Y191056D01*
X8850Y190676D01*
Y189913D01*
X8659Y189533D01*
X8278Y189151D01*
X7898Y188961D01*
X7326Y188771D01*
X6373D01*
X5802Y188961D01*
X5421Y189151D01*
X5041Y189533D01*
X4850Y189913D01*
Y190676D01*
X5041Y191056D01*
X5421Y191437D01*
X5802Y191628D01*
X6947Y196722D02*X7327Y196532D01*
X7517Y195960D01*
Y195389D01*
X7327Y194817D01*
X6947Y194628D01*
X6565Y194817D01*
X6374Y195198D01*
X6184Y196151D01*
X5994Y196532D01*
X5613Y196722D01*
X5422D01*
X5042Y196532D01*
X4851Y195960D01*
Y195389D01*
X5042Y194817D01*
X5422Y194628D01*
X8850Y197922D02*X4850D01*
X6755D02*X7327Y198492D01*
X7517Y198874D01*
Y199445D01*
X7327Y199826D01*
X6755Y200017D01*
X4850D01*
X7526Y201407D02*X4860D01*
X8860Y201217D02*X8669Y201407D01*
X8860Y201598D01*
X9050Y201407D01*
X8860Y201217D01*
X6376Y202798D02*Y205082D01*
X6756D01*
X7137Y204892D01*
X7328Y204702D01*
X7517Y204321D01*
Y203750D01*
X7328Y203368D01*
X6947Y202987D01*
X6376Y202798D01*
X5994D01*
X5423Y202987D01*
X5042Y203368D01*
X4851Y203750D01*
Y204321D01*
X5042Y204702D01*
X5423Y205082D01*
X8850Y206282D02*X4850D01*
X8850Y209766D02*X4850D01*
X6946D02*X7327Y209386D01*
X7517Y209005D01*
Y208434D01*
X7327Y208052D01*
X6946Y207671D01*
X6375Y207482D01*
X5994D01*
X5423Y207671D01*
X5041Y208052D01*
X4850Y208434D01*
Y209005D01*
X5041Y209386D01*
X5423Y209766D01*
X17390Y80541D02*X14342D01*
X13770Y80351D01*
X13581Y80160D01*
X13390Y79779D01*
Y79399D01*
X13581Y79017D01*
X13770Y78827D01*
X14342Y78636D01*
X14723D01*
X17390Y81741D02*X13390D01*
X17390D02*X13390Y83264D01*
X17390Y84789D02*X13390Y83264D01*
X17390Y84789D02*X13390D01*
X17390Y85989D02*X13390D01*
X17390D02*Y87703D01*
X17199Y88274D01*
X17009Y88465D01*
X16628Y88655D01*
X16056D01*
X15676Y88465D01*
X15485Y88274D01*
X15295Y87703D01*
Y85989D01*
X16629Y89855D02*X16819Y90235D01*
X17390Y90807D01*
X13390D01*
X15487Y96093D02*X15868Y95711D01*
X16057Y95331D01*
Y94759D01*
X15868Y94379D01*
X15487Y93997D01*
X14916Y93807D01*
X14534D01*
X13963Y93997D01*
X13582Y94379D01*
X13391Y94759D01*
Y95331D01*
X13582Y95711D01*
X13963Y96093D01*
X16057Y98245D02*X15868Y97863D01*
X15487Y97482D01*
X14916Y97293D01*
X14534D01*
X13963Y97482D01*
X13582Y97863D01*
X13391Y98245D01*
Y98816D01*
X13582Y99197D01*
X13963Y99577D01*
X14534Y99768D01*
X14916D01*
X15487Y99577D01*
X15868Y99197D01*
X16057Y98816D01*
Y98245D01*
Y100968D02*X13391D01*
X15296D02*X15868Y101538D01*
X16057Y101920D01*
Y102491D01*
X15868Y102872D01*
X15296Y103062D01*
X13391D01*
X15296D02*X15868Y103634D01*
X16057Y104014D01*
Y104586D01*
X15868Y104966D01*
X15296Y105157D01*
X13391D01*
X16057Y106357D02*X13391D01*
X15296D02*X15868Y106927D01*
X16057Y107309D01*
Y107880D01*
X15868Y108261D01*
X15296Y108451D01*
X13391D01*
X15296D02*X15868Y109023D01*
X16057Y109403D01*
Y109975D01*
X15868Y110355D01*
X15296Y110546D01*
X13391D01*
X16057Y112698D02*X15868Y112316D01*
X15487Y111935D01*
X14916Y111746D01*
X14534D01*
X13963Y111935D01*
X13582Y112316D01*
X13391Y112698D01*
Y113269D01*
X13582Y113650D01*
X13963Y114030D01*
X14534Y114221D01*
X14916D01*
X15487Y114030D01*
X15868Y113650D01*
X16057Y113269D01*
Y112698D01*
Y115421D02*X13391D01*
X15296D02*X15868Y115993D01*
X16057Y116373D01*
Y116945D01*
X15868Y117325D01*
X15296Y117516D01*
X13391D01*
X15487Y120810D02*X15867Y120620D01*
X16057Y120048D01*
Y119477D01*
X15867Y118905D01*
X15487Y118716D01*
X15105Y118905D01*
X14914Y119286D01*
X14724Y120239D01*
X14534Y120620D01*
X14153Y120810D01*
X13962D01*
X13582Y120620D01*
X13391Y120048D01*
Y119477D01*
X13582Y118905D01*
X13962Y118716D01*
X17390Y123810D02*X14533D01*
X13961Y124001D01*
X13581Y124381D01*
X13390Y124953D01*
Y125333D01*
X13581Y125905D01*
X13961Y126286D01*
X14533Y126476D01*
X17390D01*
X16818Y130342D02*X17199Y129961D01*
X17390Y129390D01*
Y128628D01*
X17199Y128056D01*
X16818Y127676D01*
X16438D01*
X16056Y127865D01*
X15866Y128056D01*
X15676Y128438D01*
X15295Y129581D01*
X15104Y129961D01*
X14914Y130151D01*
X14533Y130342D01*
X13961D01*
X13581Y129961D01*
X13390Y129390D01*
Y128628D01*
X13581Y128056D01*
X13961Y127676D01*
X17390Y131542D02*X13390D01*
X17390D02*Y133256D01*
X17199Y133827D01*
X17009Y134018D01*
X16627Y134208D01*
X16247D01*
X15866Y134018D01*
X15675Y133827D01*
X15485Y133256D01*
Y131542D02*Y133256D01*
X15295Y133827D01*
X15104Y134018D01*
X14723Y134208D01*
X14152D01*
X13770Y134018D01*
X13581Y133827D01*
X13390Y133256D01*
Y131542D01*
X16438Y138265D02*X16818Y138074D01*
X17199Y137693D01*
X17390Y137313D01*
Y136550D01*
X17199Y136170D01*
X16818Y135788D01*
X16438Y135598D01*
X15866Y135408D01*
X14913D01*
X14342Y135598D01*
X13961Y135788D01*
X13581Y136170D01*
X13390Y136550D01*
Y137313D01*
X13581Y137693D01*
X13961Y138074D01*
X14342Y138265D01*
X17390Y141265D02*X13390Y142788D01*
X17390Y144313D02*X13390Y142788D01*
X15487Y147799D02*X15868Y147417D01*
X16057Y147037D01*
Y146465D01*
X15868Y146085D01*
X15487Y145703D01*
X14916Y145513D01*
X14534D01*
X13963Y145703D01*
X13582Y146085D01*
X13391Y146465D01*
Y147037D01*
X13582Y147417D01*
X13963Y147799D01*
X15487Y151285D02*X15868Y150903D01*
X16057Y150523D01*
Y149951D01*
X15868Y149571D01*
X15487Y149189D01*
X14916Y148999D01*
X14534D01*
X13963Y149189D01*
X13582Y149571D01*
X13391Y149951D01*
Y150523D01*
X13582Y150903D01*
X13963Y151285D01*
X16057Y156571D02*X13391D01*
X15487D02*X15868Y156189D01*
X16057Y155809D01*
Y155237D01*
X15868Y154857D01*
X15487Y154475D01*
X14916Y154285D01*
X14534D01*
X13963Y154475D01*
X13582Y154857D01*
X13391Y155237D01*
Y155809D01*
X13582Y156189D01*
X13963Y156571D01*
X16057Y157771D02*X13391D01*
X15296D02*X15868Y158343D01*
X16057Y158723D01*
Y159295D01*
X15868Y159675D01*
X15296Y159866D01*
X13391D01*
X17390Y163350D02*X13390D01*
X15486D02*X15867Y162970D01*
X16057Y162589D01*
Y162018D01*
X15867Y161636D01*
X15486Y161255D01*
X14915Y161066D01*
X14534D01*
X13963Y161255D01*
X13581Y161636D01*
X13390Y162018D01*
Y162589D01*
X13581Y162970D01*
X13963Y163350D01*
X17390Y166922D02*X14152D01*
X13581Y167111D01*
X13390Y167493D01*
Y167874D01*
X16057Y166350D02*Y167683D01*
X17390Y169646D02*X14152D01*
X13581Y169835D01*
X13390Y170217D01*
Y170598D01*
X16057Y169074D02*Y170407D01*
Y171988D02*X13391Y173131D01*
X16057Y174274D02*X13391Y173131D01*
X12630Y172750D01*
X12248Y172370D01*
X12057Y171988D01*
Y171798D01*
X17390Y175474D02*X14533D01*
X13961Y175665D01*
X13581Y176045D01*
X13390Y176617D01*
Y176997D01*
X13581Y177569D01*
X13961Y177950D01*
X14533Y178140D01*
X17390D01*
X16818Y182006D02*X17199Y181625D01*
X17390Y181054D01*
Y180292D01*
X17199Y179720D01*
X16818Y179340D01*
X16438D01*
X16056Y179529D01*
X15866Y179720D01*
X15676Y180102D01*
X15295Y181245D01*
X15104Y181625D01*
X14914Y181815D01*
X14533Y182006D01*
X13961D01*
X13581Y181625D01*
X13390Y181054D01*
Y180292D01*
X13581Y179720D01*
X13961Y179340D01*
X17390Y183206D02*X13390D01*
X17390D02*Y184920D01*
X17199Y185491D01*
X17009Y185682D01*
X16627Y185872D01*
X16247D01*
X15866Y185682D01*
X15675Y185491D01*
X15485Y184920D01*
Y183206D02*Y184920D01*
X15295Y185491D01*
X15104Y185682D01*
X14723Y185872D01*
X14152D01*
X13770Y185682D01*
X13581Y185491D01*
X13390Y184920D01*
Y183206D01*
X16629Y187072D02*X16819Y187452D01*
X17390Y188024D01*
X13390D01*
X17390Y191024D02*X13390Y192547D01*
X17390Y194072D02*X13390Y192547D01*
X15487Y197558D02*X15868Y197176D01*
X16057Y196796D01*
Y196224D01*
X15868Y195844D01*
X15487Y195462D01*
X14916Y195272D01*
X14534D01*
X13963Y195462D01*
X13582Y195844D01*
X13391Y196224D01*
Y196796D01*
X13582Y197176D01*
X13963Y197558D01*
X15487Y201044D02*X15868Y200662D01*
X16057Y200282D01*
Y199710D01*
X15868Y199330D01*
X15487Y198948D01*
X14916Y198758D01*
X14534D01*
X13963Y198948D01*
X13582Y199330D01*
X13391Y199710D01*
Y200282D01*
X13582Y200662D01*
X13963Y201044D01*
X67740Y137756D02*X63740D01*
X67740D02*Y139470D01*
X67549Y140041D01*
X67359Y140232D01*
X66978Y140422D01*
X66597D01*
X66216Y140232D01*
X66026Y140041D01*
X65835Y139470D01*
Y137756D01*
Y139089D02*X63740Y140422D01*
X66979Y141622D02*X67169Y142002D01*
X67740Y142574D01*
X63740D01*
X65340Y143964D02*X65149Y143774D01*
X64959Y143964D01*
X65149Y144154D01*
X65340Y143964D01*
X64006D02*X63815Y143774D01*
X63626Y143964D01*
X63815Y144154D01*
X64006Y143964D01*
X66788Y150944D02*X66979D01*
X67359Y151135D01*
X67550Y151324D01*
X67740Y151706D01*
Y152467D01*
X67550Y152849D01*
X67359Y153039D01*
X66979Y153229D01*
X66597D01*
X66216Y153039D01*
X65645Y152658D01*
X63740Y150754D01*
Y153420D01*
X66788Y154810D02*X66979D01*
X67359Y155001D01*
X67550Y155190D01*
X67740Y155572D01*
Y156333D01*
X67550Y156715D01*
X67359Y156905D01*
X66979Y157095D01*
X66597D01*
X66216Y156905D01*
X65645Y156524D01*
X63740Y154620D01*
Y157286D01*
X67740Y158486D02*X63740D01*
X66407Y160390D02*X64502Y158486D01*
X65265Y159247D02*X63740Y160581D01*
X120761Y112756D02*X123961D01*
X120761D02*Y111385D01*
X120913Y110928D01*
X121065Y110775D01*
X121371Y110623D01*
X121675D01*
X121980Y110775D01*
X122133Y110928D01*
X122285Y111385D01*
Y112756D02*Y111385D01*
X122437Y110928D01*
X122589Y110775D01*
X122894Y110623D01*
X123351D01*
X123657Y110775D01*
X123808Y110928D01*
X123961Y111385D01*
Y112756D01*
X120761Y109359D02*Y107683D01*
X121980Y108598D01*
Y108140D01*
X122131Y107836D01*
X122284Y107683D01*
X122741Y107530D01*
X123045D01*
X123503Y107683D01*
X123808Y107987D01*
X123961Y108445D01*
Y108902D01*
X123808Y109359D01*
X123655Y109511D01*
X123351Y109663D01*
X120761Y124370D02*X123961Y123152D01*
X120761Y121932D02*X123961Y123152D01*
X121522Y118686D02*X121218Y118839D01*
X120913Y119144D01*
X120761Y119448D01*
Y120058D01*
X120913Y120362D01*
X121218Y120668D01*
X121522Y120820D01*
X121980Y120972D01*
X122742D01*
X123199Y120820D01*
X123504Y120668D01*
X123808Y120362D01*
X123961Y120058D01*
Y119448D01*
X123808Y119144D01*
X123504Y118839D01*
X123199Y118686D01*
X121522Y115440D02*X121218Y115593D01*
X120913Y115898D01*
X120761Y116202D01*
Y116812D01*
X120913Y117116D01*
X121218Y117422D01*
X121522Y117574D01*
X121980Y117726D01*
X122742D01*
X123199Y117574D01*
X123504Y117422D01*
X123808Y117116D01*
X123961Y116812D01*
Y116202D01*
X123808Y115898D01*
X123504Y115593D01*
X123199Y115440D01*
X120761Y133031D02*X123961D01*
X120761D02*Y131660D01*
X120913Y131203D01*
X121065Y131051D01*
X121371Y130899D01*
X121675D01*
X121980Y131051D01*
X122133Y131203D01*
X122285Y131660D01*
Y133031D02*Y131660D01*
X122437Y131203D01*
X122589Y131051D01*
X122894Y130899D01*
X123351D01*
X123657Y131051D01*
X123808Y131203D01*
X123961Y131660D01*
Y133031D01*
X120761Y128110D02*Y129634D01*
X122131Y129787D01*
X121980Y129634D01*
X121827Y129177D01*
Y128719D01*
X121980Y128263D01*
X122284Y127958D01*
X122741Y127805D01*
X123045D01*
X123503Y127958D01*
X123808Y128263D01*
X123961Y128719D01*
Y129177D01*
X123808Y129634D01*
X123655Y129787D01*
X123351Y129939D01*
X120761Y143071D02*X123961D01*
X120761D02*Y142004D01*
X120913Y141547D01*
X121218Y141242D01*
X121522Y141090D01*
X121980Y140938D01*
X122742D01*
X123199Y141090D01*
X123504Y141242D01*
X123808Y141547D01*
X123961Y142004D01*
Y143071D01*
X120961Y138607D02*X123703D01*
X122332Y139978D02*Y137236D01*
X121218Y81686D02*X120913Y81991D01*
X120761Y82448D01*
Y83057D01*
X120913Y83515D01*
X121218Y83819D01*
X121522D01*
X121828Y83668D01*
X121980Y83515D01*
X122132Y83209D01*
X122437Y82295D01*
X122589Y81991D01*
X122741Y81839D01*
X123046Y81686D01*
X123504D01*
X123808Y81991D01*
X123961Y82448D01*
Y83057D01*
X123808Y83515D01*
X123504Y83819D01*
X121522Y78440D02*X121218Y78593D01*
X120913Y78897D01*
X120761Y79202D01*
Y79812D01*
X120913Y80116D01*
X121218Y80421D01*
X121522Y80573D01*
X121980Y80726D01*
X122742D01*
X123199Y80573D01*
X123504Y80421D01*
X123808Y80116D01*
X123961Y79812D01*
Y79202D01*
X123808Y78897D01*
X123504Y78593D01*
X123199Y78440D01*
X122742D01*
Y79202D02*Y78440D01*
X120761Y77480D02*X123961D01*
X120761D02*X123961Y75348D01*
X120761D02*X123961D01*
X120761Y74388D02*X123961D01*
X120761D02*Y73320D01*
X120913Y72864D01*
X121218Y72559D01*
X121522Y72407D01*
X121980Y72255D01*
X122742D01*
X123199Y72407D01*
X123504Y72559D01*
X123808Y72864D01*
X123961Y73320D01*
Y74388D01*
X120761Y102717D02*X123961D01*
X120761D02*Y101345D01*
X120913Y100889D01*
X121065Y100736D01*
X121371Y100584D01*
X121675D01*
X121980Y100736D01*
X122133Y100889D01*
X122285Y101345D01*
Y102717D02*Y101345D01*
X122437Y100889D01*
X122589Y100736D01*
X122894Y100584D01*
X123351D01*
X123657Y100736D01*
X123808Y100889D01*
X123961Y101345D01*
Y102717D01*
X121522Y99472D02*X121369D01*
X121065Y99319D01*
X120913Y99168D01*
X120761Y98862D01*
Y98253D01*
X120913Y97948D01*
X121065Y97796D01*
X121369Y97644D01*
X121675D01*
X121980Y97796D01*
X122437Y98101D01*
X123961Y99624D01*
Y97491D01*
X121522Y92163D02*X121218Y92316D01*
X120913Y92620D01*
X120761Y92925D01*
Y93534D01*
X120913Y93839D01*
X121218Y94144D01*
X121522Y94296D01*
X121980Y94449D01*
X122742D01*
X123199Y94296D01*
X123504Y94144D01*
X123808Y93839D01*
X123961Y93534D01*
Y92925D01*
X123808Y92620D01*
X123504Y92316D01*
X123199Y92163D01*
X122742D01*
Y92925D02*Y92163D01*
X120761Y91203D02*X123961D01*
X120761D02*X123961Y89070D01*
X120761D02*X123961D01*
X120761Y88110D02*X123961D01*
X120761D02*Y87043D01*
X120913Y86586D01*
X121218Y86282D01*
X121522Y86130D01*
X121980Y85978D01*
X122742D01*
X123199Y86130D01*
X123504Y86282D01*
X123808Y86586D01*
X123961Y87043D01*
Y88110D01*
X111276Y89921D02*X114776D01*
X115276Y89421D01*
Y88421D01*
X114776Y87921D01*
X111276D02*X114776D01*
X111276Y84721D02*X111776Y84221D01*
X111276Y86221D02*Y84721D01*
X111776Y86721D02*X111276Y86221D01*
X111776Y86721D02*X112776D01*
X113276Y86221D01*
Y84721D01*
X113776Y84221D01*
X114776D01*
X115276Y84721D02*X114776Y84221D01*
X115276Y86221D02*Y84721D01*
X114776Y86721D02*X115276Y86221D01*
Y83021D02*Y81021D01*
X114776Y80521D01*
X113576D02*X114776D01*
X113076Y81021D02*X113576Y80521D01*
X113076Y82521D02*Y81021D01*
X111276Y82521D02*X115276D01*
X111276Y83021D02*Y81021D01*
X111776Y80521D01*
X112576D01*
X113076Y81021D02*X112576Y80521D01*
X115276Y78621D02*Y77321D01*
X114576Y79321D02*X115276Y78621D01*
X111976Y79321D02*X114576D01*
X111976D02*X111276Y78621D01*
Y77321D01*
X115276Y76121D02*Y74121D01*
X111276Y72921D02*X115276D01*
X111276D02*Y70921D01*
X113076Y72921D02*Y71421D01*
X121522Y202006D02*X121218Y202159D01*
X120913Y202463D01*
X120761Y202767D01*
Y203377D01*
X120913Y203682D01*
X121218Y203987D01*
X121522Y204139D01*
X121980Y204291D01*
X122742D01*
X123199Y204139D01*
X123504Y203987D01*
X123808Y203682D01*
X123961Y203377D01*
Y202767D01*
X123808Y202463D01*
X123504Y202159D01*
X123199Y202006D01*
X122742D01*
Y202767D02*Y202006D01*
X120761Y201046D02*X123961D01*
X120761D02*X123961Y198913D01*
X120761D02*X123961D01*
X120761Y197953D02*X123961D01*
X120761D02*Y196886D01*
X120913Y196429D01*
X121218Y196124D01*
X121522Y195972D01*
X121980Y195820D01*
X122742D01*
X123199Y195972D01*
X123504Y196124D01*
X123808Y196429D01*
X123961Y196886D01*
Y197953D01*
X146620Y201863D02*X146297Y202025D01*
X145973Y202348D01*
X145811Y202672D01*
Y203320D01*
X145973Y203644D01*
X146297Y203967D01*
X146620Y204129D01*
X147106Y204291D01*
X147916D01*
X148401Y204129D01*
X148725Y203967D01*
X149048Y203644D01*
X149211Y203320D01*
Y202672D01*
X149048Y202348D01*
X148725Y202025D01*
X148401Y201863D01*
X147916D01*
Y202672D02*Y201863D01*
X145811Y200843D02*X149211D01*
X145811D02*X149211Y198577D01*
X145811D02*X149211D01*
X145811Y197557D02*X149211D01*
X145811D02*Y196423D01*
X145973Y195938D01*
X146297Y195614D01*
X146620Y195452D01*
X147106Y195291D01*
X147916D01*
X148401Y195452D01*
X148725Y195614D01*
X149048Y195938D01*
X149211Y196423D01*
Y197557D01*
X120761Y192874D02*X123961D01*
X120761D02*Y191503D01*
X120913Y191046D01*
X121065Y190893D01*
X121371Y190741D01*
X121675D01*
X121980Y190893D01*
X122133Y191046D01*
X122285Y191503D01*
Y192874D02*Y191503D01*
X122437Y191046D01*
X122589Y190893D01*
X122894Y190741D01*
X123351D01*
X123657Y190893D01*
X123808Y191046D01*
X123961Y191503D01*
Y192874D01*
X121369Y189781D02*X121217Y189477D01*
X120761Y189020D01*
X123961D01*
X121369Y188060D02*X121217Y187756D01*
X120761Y187298D01*
X123961D01*
X145957Y191655D02*X149157Y192874D01*
X145957Y191655D02*X149157Y190436D01*
X148091Y192416D02*Y190892D01*
X146719Y189324D02*X146566D01*
X146262Y189171D01*
X146109Y189020D01*
X145957Y188714D01*
Y188105D01*
X146109Y187800D01*
X146262Y187648D01*
X146566Y187496D01*
X146872D01*
X147177Y187648D01*
X147633Y187952D01*
X149157Y189476D01*
Y187343D01*
X120761Y183622D02*X123961D01*
X120761D02*Y182251D01*
X120913Y181794D01*
X121065Y181641D01*
X121371Y181489D01*
X121675D01*
X121980Y181641D01*
X122133Y181794D01*
X122285Y182251D01*
Y183622D02*Y182251D01*
X122437Y181794D01*
X122589Y181641D01*
X122894Y181489D01*
X123351D01*
X123657Y181641D01*
X123808Y181794D01*
X123961Y182251D01*
Y183622D01*
X121369Y180529D02*X121217Y180225D01*
X120761Y179768D01*
X123961D01*
X120761Y177893D02*X120913Y178350D01*
X121369Y178656D01*
X122131Y178808D01*
X122589D01*
X123351Y178656D01*
X123808Y178350D01*
X123961Y177893D01*
Y177588D01*
X123808Y177132D01*
X123351Y176827D01*
X122589Y176674D01*
X122131D01*
X121369Y176827D01*
X120913Y177132D01*
X120761Y177588D01*
Y177893D01*
Y162559D02*X123961D01*
X120761D02*Y161188D01*
X120913Y160731D01*
X121065Y160578D01*
X121371Y160426D01*
X121675D01*
X121980Y160578D01*
X122133Y160731D01*
X122285Y161188D01*
Y162559D02*Y161188D01*
X122437Y160731D01*
X122589Y160578D01*
X122894Y160426D01*
X123351D01*
X123657Y160578D01*
X123808Y160731D01*
X123961Y161188D01*
Y162559D01*
X120761Y158705D02*X120913Y159162D01*
X121217Y159314D01*
X121522D01*
X121827Y159162D01*
X121980Y158857D01*
X122131Y158248D01*
X122284Y157790D01*
X122589Y157486D01*
X122893Y157333D01*
X123351D01*
X123655Y157486D01*
X123808Y157639D01*
X123961Y158096D01*
Y158705D01*
X123808Y159162D01*
X123655Y159314D01*
X123351Y159466D01*
X122893D01*
X122589Y159314D01*
X122284Y159010D01*
X122131Y158553D01*
X121980Y157943D01*
X121827Y157639D01*
X121522Y157486D01*
X121217D01*
X120913Y157639D01*
X120761Y158096D01*
Y158705D01*
Y174370D02*X123961Y173152D01*
X120761Y171932D02*X123961Y173152D01*
X121522Y168686D02*X121218Y168839D01*
X120913Y169144D01*
X120761Y169448D01*
Y170058D01*
X120913Y170362D01*
X121218Y170668D01*
X121522Y170820D01*
X121980Y170972D01*
X122742D01*
X123199Y170820D01*
X123504Y170668D01*
X123808Y170362D01*
X123961Y170058D01*
Y169448D01*
X123808Y169144D01*
X123504Y168839D01*
X123199Y168686D01*
X121522Y165440D02*X121218Y165593D01*
X120913Y165898D01*
X120761Y166202D01*
Y166812D01*
X120913Y167116D01*
X121218Y167422D01*
X121522Y167574D01*
X121980Y167726D01*
X122742D01*
X123199Y167574D01*
X123504Y167422D01*
X123808Y167116D01*
X123961Y166812D01*
Y166202D01*
X123808Y165898D01*
X123504Y165593D01*
X123199Y165440D01*
X120761Y153110D02*X123961D01*
X120761D02*Y152043D01*
X120913Y151586D01*
X121218Y151281D01*
X121522Y151129D01*
X121980Y150977D01*
X122742D01*
X123199Y151129D01*
X123504Y151281D01*
X123808Y151586D01*
X123961Y152043D01*
Y153110D01*
X122361Y150017D02*Y148017D01*
X145957Y152126D02*X149157D01*
X145957D02*Y151059D01*
X146110Y150602D01*
X146415Y150297D01*
X146719Y150145D01*
X147177Y149993D01*
X147939D01*
X148396Y150145D01*
X148701Y150297D01*
X149005Y150602D01*
X149157Y151059D01*
Y152126D01*
X146157Y147662D02*X148900D01*
X147529Y149033D02*Y146291D01*
X145957Y142087D02*X149157D01*
X145957D02*Y141019D01*
X146110Y140563D01*
X146415Y140258D01*
X146719Y140106D01*
X147177Y139954D01*
X147939D01*
X148396Y140106D01*
X148701Y140258D01*
X149005Y140563D01*
X149157Y141019D01*
Y142087D01*
X147557Y138994D02*Y136994D01*
X145957Y124567D02*X149157Y123349D01*
X145957Y122129D02*X149157Y123349D01*
X146719Y118883D02*X146415Y119036D01*
X146110Y119341D01*
X145957Y119645D01*
Y120255D01*
X146110Y120559D01*
X146415Y120865D01*
X146719Y121017D01*
X147177Y121169D01*
X147939D01*
X148396Y121017D01*
X148701Y120865D01*
X149005Y120559D01*
X149157Y120255D01*
Y119645D01*
X149005Y119341D01*
X148701Y119036D01*
X148396Y118883D01*
X146719Y115637D02*X146415Y115790D01*
X146110Y116095D01*
X145957Y116399D01*
Y117009D01*
X146110Y117313D01*
X146415Y117619D01*
X146719Y117771D01*
X147177Y117923D01*
X147939D01*
X148396Y117771D01*
X148701Y117619D01*
X149005Y117313D01*
X149157Y117009D01*
Y116399D01*
X149005Y116095D01*
X148701Y115790D01*
X148396Y115637D01*
X145957Y132009D02*X149157Y133228D01*
X145957Y132009D02*X149157Y130790D01*
X148091Y132771D02*Y131247D01*
X145957Y129068D02*X146109Y129526D01*
X146414Y129678D01*
X146719D01*
X147024Y129526D01*
X147177Y129221D01*
X147328Y128612D01*
X147481Y128154D01*
X147785Y127850D01*
X148090Y127697D01*
X148548D01*
X148852Y127850D01*
X149005Y128003D01*
X149157Y128460D01*
Y129068D01*
X149005Y129526D01*
X148852Y129678D01*
X148548Y129830D01*
X148090D01*
X147785Y129678D01*
X147481Y129374D01*
X147328Y128916D01*
X147177Y128307D01*
X147024Y128003D01*
X146719Y127850D01*
X146414D01*
X146109Y128003D01*
X145957Y128460D01*
Y129068D01*
Y102088D02*X149157Y103307D01*
X145957Y102088D02*X149157Y100869D01*
X148091Y102849D02*Y101325D01*
X146566Y99909D02*X146414Y99605D01*
X145957Y99147D01*
X149157D01*
X146566Y98187D02*X146414Y97883D01*
X145957Y97425D01*
X149157D01*
X146415Y81292D02*X146110Y81597D01*
X145957Y82054D01*
Y82664D01*
X146110Y83121D01*
X146415Y83425D01*
X146719D01*
X147025Y83274D01*
X147177Y83121D01*
X147329Y82816D01*
X147633Y81901D01*
X147786Y81597D01*
X147938Y81445D01*
X148243Y81292D01*
X148701D01*
X149005Y81597D01*
X149157Y82054D01*
Y82664D01*
X149005Y83121D01*
X148701Y83425D01*
X146719Y78047D02*X146415Y78200D01*
X146110Y78504D01*
X145957Y78808D01*
Y79418D01*
X146110Y79723D01*
X146415Y80028D01*
X146719Y80180D01*
X147177Y80332D01*
X147939D01*
X148396Y80180D01*
X148701Y80028D01*
X149005Y79723D01*
X149157Y79418D01*
Y78808D01*
X149005Y78504D01*
X148701Y78200D01*
X148396Y78047D01*
X147939D01*
Y78808D02*Y78047D01*
X145957Y77087D02*X149157D01*
X145957D02*X149157Y74954D01*
X145957D02*X149157D01*
X145957Y73994D02*X149157D01*
X145957D02*Y72927D01*
X146110Y72470D01*
X146415Y72165D01*
X146719Y72013D01*
X147177Y71861D01*
X147939D01*
X148396Y72013D01*
X148701Y72165D01*
X149005Y72470D01*
X149157Y72927D01*
Y73994D01*
X145957Y112127D02*X149157Y113346D01*
X145957Y112127D02*X149157Y110908D01*
X148091Y112889D02*Y111365D01*
X146566Y109948D02*X146414Y109644D01*
X145957Y109186D01*
X149157D01*
X145957Y107312D02*X146109Y107769D01*
X146566Y108074D01*
X147328Y108226D01*
X147785D01*
X148548Y108074D01*
X149005Y107769D01*
X149157Y107312D01*
Y107007D01*
X149005Y106550D01*
X148548Y106246D01*
X147785Y106093D01*
X147328D01*
X146566Y106246D01*
X146109Y106550D01*
X145957Y107007D01*
Y107312D01*
Y182009D02*X149157Y183228D01*
X145957Y182009D02*X149157Y180790D01*
X148091Y182771D02*Y181247D01*
X145957Y179526D02*Y177850D01*
X147177Y178764D01*
Y178307D01*
X147328Y178003D01*
X147481Y177850D01*
X147938Y177697D01*
X148242D01*
X148700Y177850D01*
X149005Y178154D01*
X149157Y178612D01*
Y179068D01*
X149005Y179526D01*
X148852Y179678D01*
X148548Y179830D01*
X145957Y174567D02*X149157Y173349D01*
X145957Y172129D02*X149157Y173349D01*
X146719Y168883D02*X146415Y169036D01*
X146110Y169341D01*
X145957Y169645D01*
Y170255D01*
X146110Y170559D01*
X146415Y170865D01*
X146719Y171017D01*
X147177Y171169D01*
X147939D01*
X148396Y171017D01*
X148701Y170865D01*
X149005Y170559D01*
X149157Y170255D01*
Y169645D01*
X149005Y169341D01*
X148701Y169036D01*
X148396Y168883D01*
X146719Y165637D02*X146415Y165790D01*
X146110Y166095D01*
X145957Y166399D01*
Y167009D01*
X146110Y167313D01*
X146415Y167619D01*
X146719Y167771D01*
X147177Y167923D01*
X147939D01*
X148396Y167771D01*
X148701Y167619D01*
X149005Y167313D01*
X149157Y167009D01*
Y166399D01*
X149005Y166095D01*
X148701Y165790D01*
X148396Y165637D01*
X145957Y161734D02*X149157Y162953D01*
X145957Y161734D02*X149157Y160514D01*
X148091Y162495D02*Y160971D01*
X145957Y157726D02*Y159250D01*
X147328Y159402D01*
X147177Y159250D01*
X147024Y158793D01*
Y158335D01*
X147177Y157878D01*
X147481Y157574D01*
X147938Y157421D01*
X148242D01*
X148700Y157574D01*
X149005Y157878D01*
X149157Y158335D01*
Y158793D01*
X149005Y159250D01*
X148852Y159402D01*
X148548Y159554D01*
X159693Y190654D02*X162550D01*
X163122Y190463D01*
X163502Y190083D01*
X163693Y189511D01*
Y189131D01*
X163502Y188559D01*
X163122Y188178D01*
X162550Y187988D01*
X159693D01*
X160265Y184122D02*X159884Y184503D01*
X159693Y185074D01*
Y185836D01*
X159884Y186408D01*
X160265Y186788D01*
X160645D01*
X161027Y186599D01*
X161217Y186408D01*
X161407Y186026D01*
X161788Y184883D01*
X161979Y184503D01*
X162169Y184313D01*
X162550Y184122D01*
X163122D01*
X163502Y184503D01*
X163693Y185074D01*
Y185836D01*
X163502Y186408D01*
X163122Y186788D01*
X159693Y182922D02*X163693D01*
X159693D02*Y181208D01*
X159884Y180637D01*
X160074Y180446D01*
X160456Y180256D01*
X160836D01*
X161217Y180446D01*
X161408Y180637D01*
X161598Y181208D01*
Y182922D02*Y181208D01*
X161788Y180637D01*
X161979Y180446D01*
X162360Y180256D01*
X162931D01*
X163313Y180446D01*
X163502Y180637D01*
X163693Y181208D01*
Y182922D01*
X160645Y174399D02*X160265Y174590D01*
X159884Y174971D01*
X159693Y175351D01*
Y176114D01*
X159884Y176494D01*
X160265Y176876D01*
X160645Y177066D01*
X161217Y177256D01*
X162170D01*
X162741Y177066D01*
X163122Y176876D01*
X163502Y176494D01*
X163693Y176114D01*
Y175351D01*
X163502Y174971D01*
X163122Y174590D01*
X162741Y174399D01*
X161026Y171399D02*X163692Y170257D01*
X161026Y169115D02*X163692Y170257D01*
X159693Y167535D02*Y165440D01*
X161217Y166583D01*
Y166011D01*
X161406Y165631D01*
X161597Y165440D01*
X162169Y165249D01*
X162549D01*
X163121Y165440D01*
X163502Y165820D01*
X163693Y166392D01*
Y166963D01*
X163502Y167535D01*
X163311Y167725D01*
X162931Y167915D01*
X163393Y163859D02*X163584Y164049D01*
X163773Y163859D01*
X163584Y163669D01*
X163393Y163859D01*
X160454Y162469D02*X160264Y162089D01*
X159693Y161517D01*
X163693D01*
X159693Y158517D02*X163693D01*
X161597D02*X161216Y158136D01*
X161026Y157756D01*
Y157184D01*
X161216Y156804D01*
X161597Y156422D01*
X162168Y156231D01*
X162549D01*
X163120Y156422D01*
X163502Y156804D01*
X163693Y157184D01*
Y157756D01*
X163502Y158136D01*
X163120Y158517D01*
X161026Y155031D02*X163692D01*
X162169D02*X161596Y154841D01*
X161216Y154459D01*
X161026Y154079D01*
Y153507D01*
X162167Y152307D02*Y150023D01*
X161787D01*
X161406Y150213D01*
X161215Y150403D01*
X161026Y150784D01*
Y151355D01*
X161215Y151737D01*
X161596Y152118D01*
X162167Y152307D01*
X162549D01*
X163120Y152118D01*
X163501Y151737D01*
X163692Y151355D01*
Y150784D01*
X163501Y150403D01*
X163120Y150023D01*
X161026Y146536D02*X163692D01*
X161596D02*X161215Y146918D01*
X161026Y147298D01*
Y147870D01*
X161215Y148250D01*
X161596Y148632D01*
X162167Y148822D01*
X162549D01*
X163120Y148632D01*
X163501Y148250D01*
X163692Y147870D01*
Y147298D01*
X163501Y146918D01*
X163120Y146536D01*
X159693Y145336D02*X163693D01*
X161026Y143432D02*X162931Y145336D01*
X162168Y144575D02*X163693Y143241D01*
X161026Y141089D02*X161215Y141471D01*
X161596Y141852D01*
X162167Y142041D01*
X162549D01*
X163120Y141852D01*
X163501Y141471D01*
X163692Y141089D01*
Y140518D01*
X163501Y140137D01*
X163120Y139757D01*
X162549Y139566D01*
X162167D01*
X161596Y139757D01*
X161215Y140137D01*
X161026Y140518D01*
Y141089D01*
Y138366D02*X162930D01*
X163501Y138176D01*
X163692Y137794D01*
Y137223D01*
X163501Y136842D01*
X162930Y136271D01*
X161026D02*X163692D01*
X159693Y134499D02*X162931D01*
X163502Y134310D01*
X163693Y133928D01*
Y133547D01*
X161026Y135071D02*Y133738D01*
X159693Y130547D02*X163693D01*
X161597D02*X161216Y130166D01*
X161026Y129786D01*
Y129214D01*
X161216Y128834D01*
X161597Y128452D01*
X162168Y128261D01*
X162549D01*
X163120Y128452D01*
X163502Y128834D01*
X163693Y129214D01*
Y129786D01*
X163502Y130166D01*
X163120Y130547D01*
X161026Y126109D02*X161215Y126491D01*
X161596Y126872D01*
X162167Y127061D01*
X162549D01*
X163120Y126872D01*
X163501Y126491D01*
X163692Y126109D01*
Y125538D01*
X163501Y125157D01*
X163120Y124777D01*
X162549Y124586D01*
X162167D01*
X161596Y124777D01*
X161215Y125157D01*
X161026Y125538D01*
Y126109D01*
Y121100D02*X163692D01*
X161596D02*X161215Y121482D01*
X161026Y121862D01*
Y122434D01*
X161215Y122814D01*
X161596Y123196D01*
X162167Y123386D01*
X162549D01*
X163120Y123196D01*
X163501Y122814D01*
X163692Y122434D01*
Y121862D01*
X163501Y121482D01*
X163120Y121100D01*
X161026Y119900D02*X163692D01*
X162169D02*X161596Y119710D01*
X161216Y119328D01*
X161026Y118948D01*
Y118376D01*
X159693Y114892D02*X163693D01*
X161597D02*X161216Y115272D01*
X161026Y115653D01*
Y116224D01*
X161216Y116606D01*
X161597Y116987D01*
X162168Y117176D01*
X162549D01*
X163120Y116987D01*
X163502Y116606D01*
X163693Y116224D01*
Y115653D01*
X163502Y115272D01*
X163120Y114892D01*
X159693Y111892D02*X163693D01*
X159693D02*Y109417D01*
X161598Y111892D02*Y110369D01*
X162167Y108217D02*Y105933D01*
X161787D01*
X161406Y106123D01*
X161215Y106313D01*
X161026Y106694D01*
Y107265D01*
X161215Y107647D01*
X161596Y108028D01*
X162167Y108217D01*
X162549D01*
X163120Y108028D01*
X163501Y107647D01*
X163692Y107265D01*
Y106694D01*
X163501Y106313D01*
X163120Y105933D01*
X161026Y104733D02*X163692D01*
X161787D02*X161215Y104163D01*
X161026Y103781D01*
Y103210D01*
X161215Y102829D01*
X161787Y102639D01*
X163692D01*
X161787D02*X161215Y102067D01*
X161026Y101687D01*
Y101115D01*
X161215Y100735D01*
X161787Y100544D01*
X163692D01*
X161026Y97058D02*X163692D01*
X161596D02*X161215Y97440D01*
X161026Y97820D01*
Y98392D01*
X161215Y98772D01*
X161596Y99154D01*
X162167Y99344D01*
X162549D01*
X163120Y99154D01*
X163501Y98772D01*
X163692Y98392D01*
Y97820D01*
X163501Y97440D01*
X163120Y97058D01*
X159693Y95858D02*X163693D01*
X162167Y94658D02*Y92374D01*
X161787D01*
X161406Y92564D01*
X161215Y92754D01*
X161026Y93135D01*
Y93706D01*
X161215Y94088D01*
X161596Y94469D01*
X162167Y94658D01*
X162549D01*
X163120Y94469D01*
X163501Y94088D01*
X163692Y93706D01*
Y93135D01*
X163501Y92754D01*
X163120Y92374D01*
X146719Y91770D02*X146415Y91922D01*
X146110Y92226D01*
X145957Y92531D01*
Y93141D01*
X146110Y93446D01*
X146415Y93750D01*
X146719Y93902D01*
X147177Y94055D01*
X147939D01*
X148396Y93902D01*
X148701Y93750D01*
X149005Y93446D01*
X149157Y93141D01*
Y92531D01*
X149005Y92226D01*
X148701Y91922D01*
X148396Y91770D01*
X147939D01*
Y92531D02*Y91770D01*
X145957Y90810D02*X149157D01*
X145957D02*X149157Y88677D01*
X145957D02*X149157D01*
X145957Y87717D02*X149157D01*
X145957D02*Y86650D01*
X146110Y86193D01*
X146415Y85888D01*
X146719Y85736D01*
X147177Y85584D01*
X147939D01*
X148396Y85736D01*
X148701Y85888D01*
X149005Y86193D01*
X149157Y86650D01*
Y87717D01*
M02*
