G04 start of page 2 for group 2 layer_idx 10 *
G04 Title: (unknown), top_mask *
G04 Creator: pcb-rnd 3.1.0-dev *
G04 CreationDate: 2023-01-29 01:50:48 UTC *
G04 For: tonia *
G04 Format: Gerber/RS-274X *
G04 PCB-Dimensions: 236220 236220 *
G04 PCB-Coordinate-Origin: lower left *
%MOIN*%
%FSLAX25Y25*%
%LNTOP_MASK_NONE_2*%
%ADD57C,0.0697*%
%ADD56C,0.0001*%
%ADD55C,0.1536*%
%ADD54C,0.0860*%
G54D54*X11811Y224409D03*
G54D55*X40354Y209646D03*
G54D56*G36*
X125700Y214457D02*X134300D01*
Y205857D01*
X125700D01*
Y214457D01*
G37*
G54D54*X140000Y210157D03*
X107500Y208720D03*
X130000Y200157D03*
X140000D03*
X130000D03*
X140000D03*
G54D56*G36*
X80700Y194420D02*Y203020D01*
X89300D01*
Y194420D01*
X80700D01*
G37*
G54D54*X95000Y198720D03*
X130000Y190157D03*
X140000D03*
X130000D03*
X140000D03*
Y180157D03*
D03*
X130000D03*
X140000Y170157D03*
D03*
Y160157D03*
Y150157D03*
D03*
Y160157D03*
X130000Y150157D03*
Y160157D03*
Y170157D03*
X140000Y140157D03*
X130000Y180157D03*
Y170157D03*
Y160157D03*
Y150157D03*
Y140157D03*
G54D56*G36*
X99300Y183020D02*Y174420D01*
X90700D01*
Y183020D01*
X99300D01*
G37*
G54D54*X85000Y178720D03*
G54D56*G36*
X103200Y174420D02*Y183020D01*
X111800D01*
Y174420D01*
X103200D01*
G37*
G36*
X111800Y173020D02*Y164420D01*
X103200D01*
Y173020D01*
X111800D01*
G37*
G54D55*X40354Y162244D03*
Y138819D03*
G54D57*X58898Y190866D03*
X51024Y181024D03*
Y190866D03*
X58898Y181024D03*
Y110197D03*
Y120039D03*
X51024D03*
Y110197D03*
G54D55*X40354Y91417D03*
G54D54*X11811Y62992D03*
X130000Y140157D03*
Y130157D03*
Y120157D03*
D03*
Y130157D03*
Y110157D03*
Y100157D03*
Y90157D03*
D03*
Y100157D03*
Y110157D03*
G54D56*G36*
X125700Y84457D02*X134300D01*
Y75857D01*
X125700D01*
Y84457D01*
G37*
G54D54*X140000Y140157D03*
X107500Y138720D03*
X140000Y130157D03*
D03*
G54D56*G36*
X80700Y104420D02*Y113020D01*
X89300D01*
Y104420D01*
X80700D01*
G37*
G54D54*X95000Y108720D03*
G54D56*G36*
X99300Y133020D02*Y124420D01*
X90700D01*
Y133020D01*
X99300D01*
G37*
G54D54*X85000Y128720D03*
X140000Y120157D03*
Y110157D03*
Y120157D03*
Y110157D03*
Y100157D03*
Y90157D03*
Y80157D03*
Y90157D03*
Y100157D03*
M02*
